<mxfile host="app.diagrams.net" modified="2023-02-01T05:04:19.373Z" agent="5.0 (Windows NT 10.0; Win64; x64) AppleWebKit/537.36 (KHTML, like Gecko) Chrome/109.0.0.0 Safari/537.36" etag="Y_zHeHaNphXsPT7MZ7FY" version="20.8.14" type="github">
  <diagram name="Page-1" id="nAIkWqvGJUCY4HMeQMwB">
    <mxGraphModel dx="1050" dy="581" grid="1" gridSize="10" guides="1" tooltips="1" connect="1" arrows="1" fold="1" page="1" pageScale="1" pageWidth="827" pageHeight="1169" math="0" shadow="0">
      <root>
        <mxCell id="0" />
        <mxCell id="1" parent="0" />
        <mxCell id="7ci9IZOPOK0UTeNCpRx0-53" value="Front End" style="rounded=0;whiteSpace=wrap;html=1;fillColor=#ffe6cc;strokeColor=#d79b00;verticalAlign=top;" vertex="1" parent="1">
          <mxGeometry x="639.5" y="160.42" width="230" height="151" as="geometry" />
        </mxCell>
        <mxCell id="7ci9IZOPOK0UTeNCpRx0-41" style="edgeStyle=orthogonalEdgeStyle;rounded=0;orthogonalLoop=1;jettySize=auto;html=1;exitX=0;exitY=0.5;exitDx=0;exitDy=0;" edge="1" parent="1" source="7ci9IZOPOK0UTeNCpRx0-37" target="7ci9IZOPOK0UTeNCpRx0-15">
          <mxGeometry relative="1" as="geometry" />
        </mxCell>
        <mxCell id="7ci9IZOPOK0UTeNCpRx0-44" style="edgeStyle=orthogonalEdgeStyle;rounded=0;orthogonalLoop=1;jettySize=auto;html=1;" edge="1" parent="1" source="7ci9IZOPOK0UTeNCpRx0-37" target="7ci9IZOPOK0UTeNCpRx0-42">
          <mxGeometry relative="1" as="geometry" />
        </mxCell>
        <mxCell id="7ci9IZOPOK0UTeNCpRx0-37" value="Back End" style="rounded=0;whiteSpace=wrap;html=1;fillColor=#d5e8d4;strokeColor=#82b366;verticalAlign=top;" vertex="1" parent="1">
          <mxGeometry x="400" y="160" width="230" height="151" as="geometry" />
        </mxCell>
        <mxCell id="7ci9IZOPOK0UTeNCpRx0-4" style="edgeStyle=orthogonalEdgeStyle;rounded=0;orthogonalLoop=1;jettySize=auto;html=1;strokeColor=#808080;" edge="1" parent="1" target="7ci9IZOPOK0UTeNCpRx0-15">
          <mxGeometry relative="1" as="geometry">
            <Array as="points">
              <mxPoint x="130" y="224" />
              <mxPoint x="130" y="224" />
            </Array>
            <mxPoint x="84" y="224" as="sourcePoint" />
          </mxGeometry>
        </mxCell>
        <mxCell id="7ci9IZOPOK0UTeNCpRx0-5" style="edgeStyle=orthogonalEdgeStyle;rounded=0;orthogonalLoop=1;jettySize=auto;html=1;strokeColor=#808080;" edge="1" parent="1" target="7ci9IZOPOK0UTeNCpRx0-32">
          <mxGeometry relative="1" as="geometry">
            <Array as="points">
              <mxPoint x="52" y="380" />
            </Array>
            <mxPoint x="52" y="248" as="sourcePoint" />
            <mxPoint x="150" y="380" as="targetPoint" />
          </mxGeometry>
        </mxCell>
        <mxCell id="7ci9IZOPOK0UTeNCpRx0-6" style="edgeStyle=elbowEdgeStyle;rounded=0;orthogonalLoop=1;jettySize=auto;html=1;entryX=-0.016;entryY=0.49;entryDx=0;entryDy=0;entryPerimeter=0;elbow=vertical;strokeColor=#808080;" edge="1" parent="1">
          <mxGeometry relative="1" as="geometry">
            <mxPoint x="216" y="223" as="sourcePoint" />
            <mxPoint x="148.9760000000001" y="230.36" as="targetPoint" />
          </mxGeometry>
        </mxCell>
        <mxCell id="7ci9IZOPOK0UTeNCpRx0-15" value="Webserver by RaptorCore" style="rounded=0;whiteSpace=wrap;html=1;fillColor=#f5f5f5;strokeColor=none;fontColor=#333333;verticalAlign=top;" vertex="1" parent="1">
          <mxGeometry x="120" y="160" width="220" height="151" as="geometry" />
        </mxCell>
        <mxCell id="7ci9IZOPOK0UTeNCpRx0-26" value="Operator Tablet" style="aspect=fixed;html=1;perimeter=none;align=center;shadow=0;dashed=0;image;fontSize=12;image=img/lib/mscae/App_Service_Mobile_App.svg;" vertex="1" parent="1">
          <mxGeometry x="919.9999999999999" y="210.92000000000002" width="34.5" height="50" as="geometry" />
        </mxCell>
        <mxCell id="7ci9IZOPOK0UTeNCpRx0-29" value="" style="dashed=0;outlineConnect=0;html=1;align=center;labelPosition=center;verticalLabelPosition=bottom;verticalAlign=top;shape=mxgraph.webicons.last.fm;fillColor=#2b2222;gradientColor=#000000;" vertex="1" parent="1">
          <mxGeometry x="20" y="180" width="62.4" height="66" as="geometry" />
        </mxCell>
        <mxCell id="7ci9IZOPOK0UTeNCpRx0-32" value="" style="shape=image;verticalLabelPosition=bottom;labelBackgroundColor=default;verticalAlign=top;aspect=fixed;imageAspect=0;image=data:image/jpeg,/9j/4AAQSkZJRgABAQEASABIAAD/2wBDAAYEBQYFBAYGBQYHBwYIChAKCgkJChQODwwQFxQYGBcUFhYaHSUfGhsjHBYWICwgIyYnKSopGR8tMC0oMCUoKSj/2wBDAQcHBwoIChMKChMoGhYaKCgoKCgoKCgoKCgoKCgoKCgoKCgoKCgoKCgoKCgoKCgoKCgoKCgoKCgoKCgoKCgoKCj/wgARCAIEAgQDASIAAhEBAxEB/8QAHAABAAEFAQEAAAAAAAAAAAAAAAQCAwUGBwEI/8QAGgEBAAMBAQEAAAAAAAAAAAAAAAECAwQFBv/aAAwDAQACEAMQAAAB6oAAAAAAAAAAAAAAAAAAAAAAAAAAAAAAAAAAAAAAAAAAAAAAAAAAAAAAAAAAAAAAAAAAAAAAAAAAAAAAAAAAAAAAAAAAAAAAAAAAAAAAAAAAAAAAAAAAAAAAAAAAAAAAAAAAAAAAAAAAAAAAAAAAAAAAAAAAAAAAAAAAAAAAAAAAAAAAAAAAAAAAAAAAAAAAAAAAAAAAAAAgctOwuR9cAAAAAAAAAAAAAAAAAAAAAAAAAAAAAAEeRqZz7HXaC/vvO+gm0XI8cz7UMoZtDmAAAAAAAAAAAAAAAAAAAAAAAAAAAFPINo56SKYPhen42o73c0jdy1is0NXp2qOY6/G5qdOy/wA97edVYLOgAAAAAAAAAAAAAAAAAAAAAACDO0s5pVXZHoWKvcme9X4lNN6laTiztuR43cOwajC2g5VF7kPnXL9d0ovbdx3Hn0S4ptZ0Bpu0kkAAAAAAAAAAAAAAAAAAADkvWOBkyN5GJFCkvR5uPPa4N03HVMlCKV22TLVgZLK4aCb9keYenZrHILZueoSMwavMyOum87jxKQdf2Tgko7u1rZQAAAAAAAAAAAAAAAAByXrXLDEa9ncUe0VeF2mmSRI8rMmuSNx14g+zaSL5NtG3XdDum7QYmSMHBzm2nLPd6xJrdXnosXhY8v3yBvWp2jvV/wCe9uOrIcwAAAAAAAAAAAAAAAc06XzQ1aPNvGL9shdpoL2y7Ff4rbcO2qFNGCx23DnGH6/DOO4/r+MOXN0xZjb1EA9e0h74eU+2yqTagGRomRT3rXJrZ9BNH3gAAAAAAAAAAAAAAc06XzQwkyDnTRLkTajE3LNJ1Xzmm/8ABbdR31AAAA8gZAa3id6HK8d2HHHHonWsEaD7sONIFmQNgi670o0S4rLfYuSzzsSisAAAAAAAAAAAAAcq6rzM1vftI6ecOycW2XL9m6Xujc46abUAAAAAAAADE6p0EchxfU9ANV3jWoxl4u7aaPa6jZehcP6qZsAAAFFEeRW132LaJ4tUAAAAABzPpnNTAdZ5P1w41ido1w9ueVFzqvK+qmxAAAAAAAAAAQpo4lg9h1o6dq+uyzL1YuSSJmLh1dnq4zm89ejz+d1Yuiec9vnQmrRU7JP03JdDYIXlCMiNMgAAAAAHIOv8tNX7vxftZyjR+n80Mh7dnmP6pyvrRnAAAAAAAAAAKKxwibvXJTdtO7lyk1q3NjFqfPzNqYGNmrVNM/OyOuWpKxlyMbZEiQKTd27VY9deswOcZiW+e8Nqvn3FwK8d3cRyZ1tYvgAACBPxxflRZRrvJO48RIt6zeJHYuN9tJYAAAAAAAAAAInFuxYCLa1sHKOyHJYe0axNc3nJcK2eAzGJzFNc5h/aLZ0QpcBOSot5TOdfm7m8bs1erZPJnnWd2PXurLG2ZdezGX53p0TO8Mk9WHannsgAGNyWMJUmNJHBe9caMHXRcLvdOH90AAAAAAAAAABEiY+T1vZItxzE7to81k4udbq2SFTRrlE2HEbVTXDWcnYtSFHn57lvHzVVHzfUxOQprfHwNg86qYjV930r0stdPPTx988GbvxpJ2qRj8gAANcyvDzqmW4fKOsc5y9k1OqN6ZfuXFe1AAAAAAAAAACDOgxaHmcLq0TnuPzdeTdzmu7VbKXTIsWpTsup+U1z8KHbmubzejx+DXodOs+8t9hr0q1W2/8AsG74vTfi+NI0HD9Q0T6XixSbL7M0uPeOu5jAZ8AAc06XCOBdU5bsh2TXthxJxO1etGf7PybrIAAAAAAAAAAgzo8ToOobDjYnBws9j5jBbVrWzzHpbKY3kGE7yP5FpFFiHMZJjLkxNQRmclqVWF9savTnO1xdc9snewvenObJxOWOsbLjckAAAcYwO7aQdK55FjFy2kmf7VwrshkQAAAAAAAFnEmcaTiDpri2HPoF852T6S8+cbp9EaLze8Q49fpFtyvCKki1VeG19k41NOrVclpOue8g8Ow08ivHVaeZZQ2+vB5Um36agAAAaqaZpFyOV1+ZEe3qSmZH8O+MDngAAAAABispyAhYKXijMbRp+XN15xnrZltJu3yLI9slNqLbJtqNWVx5NZDu5OyQlm4VSaZBj/KAoymVNXuZ+AS/cpLNMolY4ndP5RfPor3WtlAAMTw/ZdaK61srkWpBU9qI3tfhH7Hx7PnXgAAAAARuHd44eYS5TcLi/QWq6Kiq9koBbws2ISZD0pizxbvWrpesKDyzkxAqnemPT6iHZyGPJXldJb8mVmvyKKjM4XNYc2fsHGuygCmqMcC8s3S7bp8J0iHeJPtrwrs3bYs3/DtU7hXUTZAAAAANM3GwfP8AY65ophl2oizlZTHykYx8OdBMn7HqJNUSgyHuHkGSu4KSZTzF1E6vF3CXVCoJlOMukqRjp5Fydy0Y+FmYRase5A3XpOPyAAByPUfobQDmrJ4gnVx7pK9t+F32mkt37Pp7T5QdY2ri2xHR2u54uAAU1C3TeEWiaIFGRpMbTkqDG6xucI4zG6zrZorbbhp1W8yTn9XRL5zLzqkg5JV1+8ca87dfOGVd4uHCL3dBxCR2gceude9OT3+penONtzVRGv1ABbuDG4nZrZoet9atHFLPcKzhlXdrxwu93D04vX2Yckl9QHOMjuw17O3AAAAAAAAAAAAAAAAAAAAAAAAAAAAAAAAAAAAAAAAAAAAAAAAAAAAAAAAAAAAAAAAAAAAAAAAAAAAAAAAAAAAAAAAAAAAAAAAAAAAAAAAAAAAAAAAAAAAAAAAAAAAAAAAAAAAAAAAAAAAAAAAAAAAAAAAAAAAAAAAAAAAAAAAAAAAAAAAAAAAAAAAAAAAAAAAAAAAAAAAAAAAAAAAAAAAAAAAAAAAAB//EADEQAAEEAQIEBAUEAwEBAAAAAAIAAQMEBRESBhMUIRAgIjEVMDI0QDM1QVAWIySQJf/aAAgBAQABBQL/ANU7lqKpFkMjLcPF2zqWv72xK0EFqcrE+mqCSEYMXNG1TmTgo7cMhf3XEEzNAT90/qXDVhpa70QZSxz7IzAS6qxEoLUNj+3ImAcpZeeYISOvNOMsap2Hr2YzGSNSRhKPQctWI5HUEj69Yca66qquRq2m/ss3kh0J3J30ciZM/hw3a3D5JoIpmKpJC2XyHNKEtGxeWepFWy1Sf+wvTdPTHV4n8HXsmfV6TzwyHt5MuRavkYsvq9W5FZ8c7imvAeByAK1jb1RNKzqtdnrqrxATKrkqtn+t4qm2Y90PcW8Pd22V4pppp1FYjGIclyWoHXAmLFE4SzQTDmp6yq361pvC3jqltWuGVZo3aaGYXVXI2a6i4gfbBn4CeCeKwP8AUcQT8/Jy9Ny4QKWYhcDVUd9i4e+YPcuytUIYsczJhZ3/AJhtWYRMxkUd21Go83eFR8QyqPiKo7xZWjKrOOx99WuGZBVmtcpoLDOo5GYq2XuQPXysFgHy4xDFKEwf0Za7XMydy3J29f8ADqt2F2XcF2ITvTTV0Pv49JY5fh/L91p3CeUDHNXgU81eypoWEgKUUc5bN256dqamWLy8N7+k4lhHr2hjuV4S3eBdhYtryNtkRDtAZQJbUJO3k4YsaTTg+PivU6VWd8O/WlQm6iaCWF/FtWWrrYtpLU2bcsTn9ihmjmH+hzoEOWgkkizUrcmyy2vK8+nOk9caxlYLVm5wuTL4VfrEMTk3I3LpjRwygmfuZkaiyZsqmWj60nrAdzlnK7xSYrJUwjq+WpyisTREDGzEUe+F6fEE0RVbMNqP8/iP9y5vIy080e9jiXN7aKu+kjxkK4dbXIeMlWCRFjYkePlFT1UdCN0dGYUYkC9/CvZlrtbuzW/MEJTSFtYjfYz6LTVV5ZqcuJy8N9vzuJP3IR5mTzzaze7eGmssEn/NV0LNeeStCakxoupKMwqanG6PHMjpzin1F29/IBnCdgtymd3VanPND4cv1cP33JvzeJf3Cn+85qPSGP8ATbuhhmJNthWP3DjaOr5b5Tszo6kJqXGupaMrKSlE7nj3R15g8pt24ct8u5lKvS3dPAdY5MZca5W/M4m/cKX7zndWTPo1jInGUs0s5MyAiFcPakXzjATR0YSUmONlZquyOnE6OqYeDt2B3CTIN8QxLeGix1oqVkDGQPy+IZd+SgPZkMs26OVmE3at0opvDhz6Pwp6EMqtUZoFIImpYXFTMuGrLbrlfprXgQ6tgL2w/kkYgmkB1r+BxN9/R/dr4bpJQ0QfpIfDh5tK/wCJcxscysxnBJKLEqhvXsZiNrFRvD2UwkzYe31tH5Bd7bxA65ESr+mT53E/31D91u9gyQcsw9mTP4YH7L8W3XjsxZKIqkrFqsDYGeuYsE2ujMymNgDhyTli+kb7+YRyEAjILp5BZo5Rkbwf73wj+6+dxMzvex/7rcHdUzY62qrxc83BzZD74Et1D8bNZA5rIxGUAse0PS/P7xylImt1ngjt7DrXI+bTuSVIByLSs1s3frHVe0E03oZTTTOwySV4KVnqw/2qDXn/ADsvIY5YicX9wyWhv7NVgOyZCUZh9eAb/wCb+KY7wyVc6uQ4ZkGPKZnDdO3d2fs+5Rx7k9UmrwRuMtgnIcVE/wAOmbYTGoXf4rqcaCxy7GTm5q4ebbjkH3urLVvm8Q05Y7VOhYtWFk4Y94MsbZ6Q8pYjs2Y/rwjaYv8AG4irMUMjHGeOtDdpZao9S6SIdHpAPwqrNycZKTSS1aoWVC4RxHKRrcgdmykkrmrL6yOHJkOXHCqUxsUshFNdl32DicYWlNkNudkOTtiq+Yu7oJWmh89/7KHwz0THjZv1kyD3xbbcd+NacGr3oChl4Tt8qznYeaRjtRP/AKyrMOPrRg+LEtY6fpj5m1E+vgL/APVqpvoqRz3mhxdqNngvCGl5x6exzXDWN4YlyYVyY1DCzPhT3Y7z5H7GHwuBzKkziSZMmVNttT8a/wDo5+iUwuckEte7AcF6kcFc/plr6UDf/k94om/0ORL+CfRN90yhqFYavGFYOcwIbLEhtATzT7qcmRsizZqZfGTXxhNlY3Uj8w4pZYDZ9W8uS+wi9/C2HLtfyyb2ibSP8a74Z9miy+OuvXntXitsHrmlnM/Bm3B0zgzxsijZbWRNodSkvVvb65HbmtKO4H/2sWuOk+nyD+mX0131g8uT+wi9/DOhsySZRtq/41snCtaqxuy4sh1Yt7pg9ddv+vetyBv+qb3dkTIQIyhqjC+q1TP6w+nRloyljZ4ZhcfKP6T+2PfdR8uYtxBVx+VhnkPIVAR5mkKzlkLlpmJ2HTbT9Vr8a99pb9nfRrk0D25C6aYJTGOr+rp4N9/JLEisginJ1QscuWawDLnxrnRppY+ZEYkGq1T+1qAbA3ICA/Ef0Vh31xnkvPINPT0uW569WxOUXD1kmvYUqw7iZRfXjw0y/wCNe+0t/TnLtiK9ZnlnH+f5qCzF21fTWz9zC+60ejHqtUbrpYtXqxirMbRT1pShKGYZQd+wm7g5PrZiGcLFUgkGBDGIo/oWCfXFeXiOgNeJvUuFZt1RZ1zCgQr+cG2uV/GvfZ5y87I5OaU7iENSYoZVGz7GYXXp1mkLdznduca5prmGnIiZyJMZLfJqxyMoZ5opPikq+JyuvikqbJyKe6Uo8yRcyRbjduYy4d/a/Ldg6mo5FzcFY6fIrKsxY6R9BbuXDAsWS/GsBzIMnj7E0vw+6rGOukJYm+zbJGQv2bRlH6RskOrSMyCZlqKklbY5arcmN1vTkTLutXXrWrp1qt7Ley03KGtPIsbA9ej5uJK/T5TVHxHWirZG/byZN6W3aHgz0yv5Wq1ZcQ1TlLUWREn7+QWR7dOGaE73trMtg6uzOtGWjeGjLYK5Ua6KqukrIIYw+TxbLzJy9LezbkzO6aMdKUvT2KlyC2P4EsoQjZylaFTZ+HSbiCQhlzNmUXvWF1E+vPk1GSR39bkw7jeqxOcOwuUy5K5KeFcpCHaJtpV83dhX+R22d+IrjOXENxk/EN1PxBdTcQ3NA4ksoeJplHxLE6DO0nUeQqSIXYm+Rxi+zIcwjilLQox1TDozeFOV4LXz8hejojftPanlJhKjRt3lX4am1j4dgFTVbFd8faoVsVbne1MEbC23Qe4oiFmc2ZCbuGpLcO8nF0TM6fZoOzaOxmCLsJRse8GIpA1OQXRyMS3cxVcfYvBNirkYlEUQ6kIBbnjWDzIzxM+reXM5VqTXDOafTaAxaoA2tonbxxNyOxV+a76NnLGt+y5BDHHvauxwSyZG6T08xarnk8od+JzZowYISd4jOYq4k+ru5iSc0bOi1EIq469PCpIxaSUdhRxSG0MLk+k/LeGUWARJQwuJd9ZqzzEdZwbG5c6FaTiCwQ2Z3nl17uErCdiTfgLR26PkylrpKW4iIdurgDOyZlotE3Z0z7ZMPb6un8yxryDfRTvrLW+nXvotPCCMinI3aSUijiibe7QDrsFFEO2d9ZINDTTaIJnd99pShYmEKswu1edl09hdLK6amSKKVBqMspyMopjcun1XSCrYsBVBZfzYjFpeFZyC35OILT2L6FE+pMm18TZe7EsJb6W58wtdt6tIM9ktTq/RotE/Z37DGDhVcpdts9Wq9zd9EPqb+Cd2Cs7kiGQmhiITrPK7eZ/YY3GUmAkIxiTeF9lVP0q4/q4W2fEvEn0Ei3Eyd9BFCm8XdN2J0zKnIJ1/mZ3HxlXJtUBctc9k84opQ0ivRx06j6j3F7ftW+rt4dtGXoZdkLxoTidPLX1aWJ3OzCDjPGRS2wjILDG8ljbJFNvc5nGSGcnbrZuZCUszThKuXyyi5sqcyc+FqhM/jaFzrBqwqR/SzoXTPqmX8o0z6sqtgq5Y3JhYH5WrIphFW4qZqzRdl0NjVsfadDjLabE29a+JsDLYilgKUTMIOz6pkT+kTYSsN/sCUQQlzpItwNtcyjY1JFzzcHA5wAlIzCmYuZHsJh2moTrcyG5C0dK30hTWTsOzizke4qlGSc6UXTVvJxDQKtaR9wF0K9vFn7IX7p0EjxlgrvUx/I0W1bFy1ymXKZcply2XLZbGWWxvUtLVmgctdzmTMxumJ0Luz79SI9y92BiFMDs/L1LbvX1LTvtdcqRNTndfD7Ti2MtuLYi27BhbSHBWEGBmUeBJnrV3ijGNM2nkkAZAu8O97NGzVf6XF/F/An7aaxiWrbu5aqndOrBVzxNHDlq5ABjIPytFtW1bE8To4JVNVtm02FtSL4Bc0/x62v8AHrDoeH5dA4fdkPD4M/8Aj8C+BVXXwWnoOIpimxtVk1KBk1cGXKZbFsWxbFtW1bVotPM5KQ5FLJYUpWVLW1R1HZcs2XqXqdNHKS6O0bNjLxL4JcdwwdtDgLSDh2VR8PxCo8TWBADAP9foyeMXT1o3XRwLoayanXZNXhZMAstFp/6A/wD/xAAkEQACAgECBgMBAAAAAAAAAAABAgARMQMQEhMhQEFRIlCAIP/aAAgBAwEBPwH9IlaF/QlrH2tASh47vET5Zh4PcrT9waQbBhToOsC0D3mF3BqPgRBnuPEHnd91FzwLiPwz4qbMvT9Qcrz2gFxqoVKjY2fOyIWipWIVucuaoIrtlyI2BHwIdnzsupwipz4NeDrCt9DNTTKdquY3qE3/ABw3CK3XUZcTnPDqsf0j/8QALREAAQMCBAQEBwEAAAAAAAAAAQACAwQREBIhMRNAQVIFIlCAFBUgMkJRYaH/2gAIAQIBAT8B9yMNXxJTHb0Gno+DKZL7+rX5saqQlv2hcSfs/wBXEn7U2r82VzbIOV+c64uYHboHVO6cx1RxbjLI2NuZyNa9zjwwjUTn8VFNNKNBsrz/AKWeftQ5QYN0NsG4VNWyAa7qaqfKbuUU4jN0K9o6Lw+Vsma3LHZBDc4t2wnoGzPz3Xydvcn+EDL5Xap0RacpUZfE67VSVbagf3lSgrfRdDXGSmjkN3BfAwdqZSRMN2j3I//EAEQQAAEDAQMIBggEBQMEAwAAAAEAAhEDEiExBBAiMkFRYXETICOBkaEwM0BCUmJywVCCkrEUJDRz0QVD4VNjkKLS8PH/2gAIAQEABj8C/wDKnbqnkNpWkbFKbmhUxaPRPMOafx59R3uhOqVDaJ8s1k0HOrfE51w5Kn0tV9Ks6+064O+yvaKzd7birNqy/wCF9x/GxR2uv7ldm4p+S1QDYvAO5Tk7n0D8hu8FZr0qWUs4XFWcnyp+Tv8A+lXvHn9l/MZPaHx0dLyxXZVGuO7b4fi5c64BOPxfsqlVpZoYgm+N8Knjabo6TpOZlZuLceITXsMtcJBzWajGuG4hfytV9H5cW+C/m8kZXA/3KWsoyXK5P/SyjH/K/mqD2fMzTah29O8TippVOF934m7J6V8HTP2U+8Vd/wDR1HZOdmm379WKtNr+YROSVnj5HaQVg0W03jWcBipBRa+1VbOE4IAVLDtz7vxCtV+FpKBOMSj4dSGgkplWi0ktPuieatur1XCJ0XQnU6uUvZRa0WZgytGvk9Vu49mUbBhwxac4dRa0VwccJQsta+fmwRL6Jez4mXqCuwrOaN2IUZTStfMz/C7OqLXwuuP4a2iNas6FchngIPeLTnarPuVLnGFYrUHPdOv0kI9E3pJx6cB3mrWU0emaZ0ZhamVUPpdK/lP9RD2HV6T9igP9RyVzB8bcF2NVp4Z+2otJ34FTkdcj5X/5XbUHFvxNvCvXZVjZ+F14Xa0L97Tcu2Y+n82sFaoVGvHyn8JsjUoCPzKaXTipucBC6OmJccB5pzHYtMHNJ1Wp7u5d12YVpPTWWmJuKwz2add4Z8OIUmkxr/ip6K7PKqw+q9Xvo1OYhdrkk/Q5RUbUp75C0coZ33KXMpl3xMN6nI8on5an+V/MUHNHxbPFXoFjywzigHltamLjOPinQ8MdstJjq7OzcY6RhDmoPpODmnaPwQxinmodMu2rBDipzUfnfKK3hYSF0FVwLOV/WFToXlhvBAlX5p2q8NPctGWfSUHsr1g4bTehL2VW7Zapr/6ewO+Kg6CuxL7P/cEK6/kUQ5htb4UOOAXSZLUi++mcCrB7Ov8AAft+CWWsAtC1zKr06TOjyikLbfuEy1jmKyf5QE4ccznjEFaWiVom5XjqVMncbniRzVb+IsV6tapoCoJ/MVQoupvL6xvc10We5PybpofFpktxCdRpmnVe3Gw5RWpvZzHUuJC381cSORWtPMIDRIGGxXscCNrTghSy1xc34yIPerVJ7XjgfwIFzptCRwTTTFpxJEb7ldcxxluYMbrORs6ouTam3Vdmp0aoljiZ8FOSVp+Wp/laWTPI+S9EmjUbGMtV0rRMrSpujerjBWm5zuZVLp6VOu6lqOdiE7KcrFTpCLIsYAKtlbMpt1rVumyIOKo/6h0sUabZIDsdwT8vr0adSrMBuAbesnyqiLDauLN3WaModZpe8VTuI6TCbkYbA3BTRe5h4JrcqFpm0q3QqB44fgFH6PuqVU4NqAnkqtgW6XSaIcI8FfRf+pFtJgpg4xie/NZdquuKMtO6YVPgHHqaVJq7Mli0SHLtqPiFoFzPNaNl602ObncKZFh2sxwkFN6Yiy3BrRAHWDKV7yjLbI3BNccH4MBwRx4ZhVyZ0EbN6s6lcYsP29vo/R90xu8keStgesY1/kgc7AMSqYabIm1J23q00XdDPn6C9g7loPI5q4Bw4LtKMHwXZ1CPqWra+laQI59a3TMO2EIANaC26Wkm0geELpKQtAMtP4cOeebRYfiGxDJcoOmNV048PbqP0fdZN/d+yyfgHU/AoeCuBPJXU394hGHB9beMGqjYibCrk4im0H0d61Y5Lsn/AKl2jS8cFqFp4Ls3+K0mHu6t4lWHnRq3d6ewah0m8s4e0kctiDv9wXPHH22j9H3WTf3FUYKbzZq2rWwWgiLxeg3IKxbSjANiFNao554nNoucORVVzpJstvPf6fSaCrpbyXZuB8l21HvhaMtV2kOGe7uVPKm+sp4/fqB+LcHDeEHsMtN4PtgERYEc1Te0WnNdIG+5ZTvNFr/Ap7QQ7iExzXVDWs4Rd1K35R5ex3Cw7gpi03eFpBS28KQn0H6r0+lsGHLPdiv4apqu1OB3ei0iArnN8fYaP0fdZN/dVP52vp+I/wCFTdvulDgepV+v7D2Uup6D/IqxVbBzNcNhlU8qZi3Hl1LTTem1DrYH0LQcLKvY3wWoFVpzojD09H6Pusm/uhMd8NRpVRmxlU/v/wAp47+ofrPsxZVbO7gnNN7cQ7M/J6mwR3J9O0DZMTvzScURtKrdJ/Ti8utRCpPZUJa4xeZCf21gNMbFLa7Xke6dqm0FMqW52/Qc9bkPT0YBOhs5rJv7iqj5VWIwe0PHeEf4gPLC33UeiBazYDmC/O72d7KTWim0kYawRrtEsBh0e6reDcJUnHYpKd0bLZa0uiYuCtdH2h37FohrQ/RKs1qlXoII0T4FCjlQtnW4gcVNPJbQX9CF/RLo+gsnbLlgW+YVnJpDjIuON2xUTllWzUsmS6844Iuol0AxfmqWta709aHuGzFOc1xa8RBGKv3KiA5peKVlwncU2MQmim02nXjcix4hwTeabxcT5+zObJEiJCrsfLhrWinUqmpWZZg4FOqZNJobW/CozXJxiQLk2qGaBMSFR3m+OCmTJ3o/O6U0jaM1QAY//FC2ICNF4b0d5aTsTgDIbCGEucTmqfSPusVj6U12aTahwAwXROHRzfac05mtIbPTG7bZIRCc14mi6871apjVFm38SCocvZ219jdF/wBJ/wAKRdVpuxVOsPeF44qoGjQ1hyOfKHOMS4IOdey8jfin1gIJp4eSh7i0DcujDbmtuWkczn7iP2Upp5Ifxbw0R7pUtaajuLinPFV9GnhdtPer3k6O1GMBcrdo8lrHxV1V4/MVdXqeK17cYggJlRuDhPoK/wBBX5RmqmBLYcnG7SaMOpk4+Qezv6QSyII3oteL2aB+x8FUyR50amkzmn1MehYJHA4pzTiEVRcJ6Q/sm2zdD7+Kqm/EM+6/MpWEZqnd+2YciqlkucQItHYrYYxzzvdgm9i195LsO5SaMP5bE7+XfE3SE4VadUdy94dxWvC9YPFEio3xVPhI8/QV/oK/KM1Zm9pVKzc4Nh2c8lRHyD2cDe9o8101Jto2bLwNo2JlVt1RhkKtldQxReG/tgqFZzS23IsnEbvJR80LTMw0Nu5qk2dpuQO+o5M43rHO/uzNk2ae/en06LTYBwTGWSdGZ3Jug+8TgmjSDjsIVSpSm7CVrDvC93wV7GeCvo01/TU10g0S4+7cg+nVqAjigetX+gr8oz1G7if3zlNHD2egP+4Mzw3RkB1+BVFrwDQpP6WFOU1ZduHurJxvMp99zsc2Tt+Kf3QmpqiLli49694cisE2BirVb9KOlobGxgn9yYC6JpEAb1kzmVL7NkjgqYmZNx33pzbVrs/Dgj1W/UiqZ3tHWr/QV3Z626Z8s8cR7PUc3ENKyWbRNse8c1GqxvaNkk8E3KQ+no4hjIjerTnMqMq+9ZUv9xi2+Cwd4LJmj3Y6kNF6Y43vnwzu7kFgPBC4XYXKo1jWglpCLXCHDZ1RzCKyc/IOtVpBzXVXXWAb08PijAutOxV+UU/Fetnk1dJk8xF9q5bLltLvJUW73j2et9JWSf3GqSsmtVGdHpB1/BVWUS11MmRtRpTohPPyjPS7v2V7wtFpPNbByUPNztqp6TdbevWN8Vrt8UdNuzatEg8upfc8YFGRDh1PDNk/09WsaHrA02VOLiJneVpQEBRpOdPgu0qU2cMU0tqmpM+6v3CA1dkqgyQ6KmI2+z1vpKyT+41dHSqFrQ0YJ5rVHPIIxXfmB+JkIiRK1hdsTeX2RYXdnFzsJTg0y2bs7eaMV+PcnTWiOWCgOtaKtM//AFWm+G7NisVDsdh3KDcrzmOaj3/v1hlGTCJdpN2KU+idamfLMX0zBa4Inffmyfmf29nrfSV/DgWbEOtyrR3I3ElxRc11mRE5gHQQAsAtiZacLsFcFqHwWofBah8Fqm7gtXyQIafBSG+S1fJWmxxEG9eoXqF6hep/dEOocjuWr5LV8lh5Lamcz+/Wq0j7w80WvEOFyZOq/QObKA4gaO1SokIk7GGPZ6jBiRC7KlWcLIvcpOTPngEAMlqzO5EnJakBerd4ZroTm2W3utWkAUOCcHOgOESvX+RTWtqF0GVrHxWs7xVxKxKvtBYvXvLB695ax8VrHxWv5rX81c53cV2VCq78qo0nazW39e2NWrpKQmXOqZRZvYN67U2KWxgwV5LkfFZNjf7ZsTatGkHta28ghRZVzergVgVSyh1L+Xv0isApsieSvAWCwzYLVHgtRvgv6aj+gL+npfoC0KbG8h6Glk9nVbbLlxOE9TeqL7yym6YU0Xyd20ew2qr2sG8oaXST8F67ESdttCy3o+I2+KAc+eAEHyUdI/lauV9Y/qXrnE/Up6TxJVo1gD3qTlTJ5OU/x1KeTlFtrxvwzf8AGbFEyvdUizPG9WLdJzRcJaLvBauTlYUF/scoU2qA4Qpt0R+VS40P0rTbQ81pUqPcSr6DuYcFBc9p4sKFnKaV/wA0KWkEcPQ0C3Ho/ur/AHTcoY603f1aVUe672BrqocQ7cnPbUstd7sqywte4bYR6LSAu1gpq1aY5CUbVWo50clU6dhYW7YuPJM6dlJ+VRasube69WiKbJwY0QAr3Nng4LVP7r3R5IknwV4PepgJ1ooFxBQ0gQiA4coWtH5UL4PJESZnGE518ETxU6R7kDpnmgdPvV1pYFYEJ5ycA2LiJX9K7DYJQlrmu43IOtE9yEOI+lxCeMsrtDxhNykYdboqUOyg7PhRdUeXv2lRtOa7q0m2x0obBbN/ppKf0bjAOGPem3ianw5hUpOc2oNoUmqZ4Imq41gRqvOCax1NrADNxQZTcXH6UwuoFztknaps1BsgAYoNoMIMXuKBm0QtVaJATeS1TKNtt2yFqJgaLINygkLQbKdNxarIoHmpdTcAjaMR5qkbDsL5C1b+SbaabuCFim8uVgZGbRMufvTiwFpGx1ydWr3vqXkblozK7Rrh8yB0BF1zAg95bI0YAw6tSpaAfEMnei+oS57ry4rYrZvPVjNIJB3hAu9Y3Rd6V9lgqGNU7VFqHTffsW3vTuaiHLHOCJAGJChjzF+3BS5yN9kBSXE9y2q4GUdHwR6RgdzV1DyXqo5hah/SofTw4LRa4d6N2PFa3/ury3vesaf6lJqt8U3tA7kp6aBuQ7eflhX1vIr1v/qm2STIvlE7VxRkkNN4hGkalim6/meq5gOhS0Rz257sBm29YWj2b9F32PpTZi1slVi+z2d53BA8IR5rALAIfZWjMTCltWZ9wOvCAe2RtulAJ44K8qQbs1xKcTeVj5rSNyd0vd6CdivBUht+emea5Zp2QtIt1bp39QlOccSZzHrxvzRjsVKHtJsjb6U1KFHtp90YqH07JRCvWJ8Fg4HfKfQdkwqiprOcb+Cc5jLLcItSVJkN+GUCnnh1daFomVpO0uCxJjFWdK1zRDWkxxUOY6eagUuOKg0VApDCUGFmN9yIa3xTgWiAJRvDb09si5Nax01HYDijTylpZUDjiMVIcAopjQGLpwRxBP7I5SWNsHRBPUqtYYcWkBQ7Hr355zaE3FBrzpb/AEm0p38q+0drV/L060bQW4rRoVfBeoqSr6LvEKTTH61aqAAcHItNUjmtm+5O6jp3q0LF/wAycbjJlVHRGitFsynmLyIuRdTbwXvNcLjMKy14Bs4uKp28fi6QQg6mWhmGvMI1HOFQC65QC6U4BxvF1ya6zVtDY4AtlOpvyRgLrnFrQjYpOt4F4dsTW5SKlYMMh3SKOja9kyLTitGbA1W7Am3ODHGLUJlG1as3TEdU16Y7Cof0u6s9Xgc1yltycx50mexmo0kvAuatJrm8wtHHbcsRa5LScAu0LSFouFnirTHRvuQvNoe8FBDncdywe5TDpVos81LmtJwxUEsMcVZlsblGzcGrRa/8rFo06vcxXUa3hCjoaniFfSI/Or2MH51f0XiVe6j4LTqtI3BqawOMBYnqljwHNOIKJyOpA+B/+V21FwG8XhcOvC4qBisQPNVGUaj2F3BMZUa0ujWlC26y7arTHBw4ewaJUaJHFHRYOSgWO8rWohetpt7pV9dvMNV+UuP5VJyisVe+qfzLSD3fmUGlI4lXUGq7J6f6VdRp/pVzG+Cw9PgrlrL1r0ZC0TmwWqVdSd4K6g/9K9U4LSpz+ZXU6beblfUpNWnlI8FpVC7uWo39IQa0QPxHBXhai9UF6lngrqbPBXAf+QP/xAArEAEAAgEDAgUDBQEBAAAAAAABABEhMUFRYXEQgZGh8LHB0SAwQFDh8ZD/2gAIAQEAAT8h/wDRNaLYIljZ/fqK/DqdCHhNQsefLMdKsYOs10/vdMKyuYfjQZs7I6TWY6Y7HHeg37w3vjKyMZcpRHlr7Lh9Z5R+9t1/uxeuvp0EBsKPoR6ib5NZydrzE2C1G3/v1l/8JN8TyZp7Tj0lHUxV6Bl6oaj5Wnw7y6rGt6HdZP7djKVrNBrs4OhFCDQvU5OIigSsYDnt9PC7xfD1z0hojAbng86pqUV9+e8+0WNkFoeTn0ZoPdpR54+qaEX5FZPSYkNYavg1lZOujq8/7O7NqB0x/wASysrBY0VQ/G7bNyXEusmGEt0eTs8n6/poaO5UqK+TP9C8nrB4IFL9LItyy2Z0gb1CLI9JRinybQRLGz+vBFqs71iKyFtXu6zqa4dOX0+sM508GqJ0gglvDvAcZaaTsIEx8qm9AUGmrukJnrY8m7H2hAbqgfny8bz0FaNfXSFveAC+6ObhMCNaDwxseoPsMphjlp9Uow/wA/1rIcHymX7ShRoMTEc49k/E0RmhkVogGWQ2lcG/Q0j+D6A4IRAkgSriqTELpyvJ2ZjutLDUd5g/HaxB23Rp5Lp307RRedd9b094SUXc0+Ij0/PcJXfn1PRLpMfOJgaecrCmhY4Hvby1JTheHu1k9J17PZ/U3OXs6tY0Upa56iU1KclXAY0wOsZSBuvW8VF2y6VwRFDFQNLGmo7h3AsrZg7iESVSradd4PoMU8+/6GPaaavGGaanXcJseb4iQh0cqdfsvugShbY9RFUw4KfR+Iziuwv0Jsx7/mI31kv3MymUiD1U+5KwthKhj59I78z8TSo8ln9JQhumJlFm+reVNY3mWXdHriBabRj6RFYb8piN2XYlyeW47xEvajch8ORFrhtK8MnPgjW3givKOGsHhlHErALTeU93mYhaHJ95o8GTCOjbqpqWqj/lt/SKE/C0eekVwF0ouwuBZ+sEFhAO0oYsj5AlFg9X1+7+kXiFVdTMx6vQpo4NbiXLIt8szVrjErQ4ncSfNlp7KVNPZKrTeY89zSWC/INkQwPaVibeF+m+9mvt9IBKoE1NOTSpzX8KNY7nSVKMmsN+00YYedgPTNZ6QMkdLy5Y+FHEXsg1OR8gY5L38J/jTLTA6GaZuOQ5IAL2SgCMFU+6AUHN3f0VHwHRcTz0fNDYAhVpTt5TAlL7Sv8AZra6i9pgOj1dnz8GzUYNOJvDHsPol07zUH2llg0kKZyKxpoFw6z00BZKbUHkxMXQoWcS9b4w841hcNWA9vrcIOZsSc271xCDe66cHLdMTbnUpYA1r31j/hlrd0vDx4bv6L9s2WqxL0o7Z5V+JV7ZzBFR65Ym0ihy+v5nKldx3/oPbvqlP9dg9oxKRakFw7hnJvAa+ka4j1llwqUSqxCvvnDNOAXYYlr/AOEH3/Re3V3Cn2lb7hM8R0amyHf7s15PRNQh0aYvXeCCaEZVR6rRDvxlX/DYH6WF/ZwcygZW9s6FwazcqNjmJtO87d+Y7hFxa7YOJ3Gg1+7+f7F9UpLUz1y3qA4dfynmASoQWsSogHsKwMm8wyDpHI/Wl6zddzhMl0gXB3uJ9o4nWgtPYELmgk8qGg/wKlaQ8WBmm8glEkFa0a5hHHDXQ4MFPdTOISohA27cdYNRvMjH8MnT+d7N9U1XR9UZdXd9L6j8u4s6Y6LildVgHmzJICtn6O7ASULl81MEcUcr+2DQE4Zr1/OM2mdkC9yCJPY3tC5F6GoboOciNhkrxqAaHrrUXSXe9hp+JR6vUW3lpCAltQJnUjR8v8jBowjbkdHX+b8Lqi9H9IwNcLVQ49bh4QM3WVGUK/kY3m3PvCvc9CXuSalr++GrvZNMp1TIdFY0ETl90Ytt6kzVOSKRpKZZGZKbtcMAbYWTj4uCBKJTAheiPnZqecIQWhufzM36t3qu4nfw6tiV2tE8P42G7UGh+8YpoyIU1ivw7QZ+vof7/hJZTkl69Q/GWPyfWC1d1NfAR0ZagjsHncjN6lvlaQIE6AaSqemzfgvbzP2iBMeWasoA6J/A+V1TPsvoyu1qHqkMUGrOm9f5M+ukO3g2lr5r/FCKMxIg/ftAnZi0bT7kzigDN3v85ggRQfaOSGpeOswnqtfJv+zoUhp3uakIeJ7YgbwqN26vb9/53VPkOGf8vF0/WJbOibfBHlSQsQrxnwNPz+P7fxqWDduujLUsFLUflTnU7MqLSwdfz6QkWSh9URczN/wRQZCqhu1mo671vKsjItB3mY0DB2d42zkoPJiLOA1vH6KHGZdbF1krx+U5PH5Hr++TOcV7pxNrXkyqtbJ3MzaKp8dyGuRUMG4lLNTaeDLvTIcedn+PfIE8vI3tZOam8vtfR5has2584lcw0y4leZscRzNF7g7y5r50GPNvCqzhXdDvE6JERb/4YnEbS9hFcPNmKKq2zDffkstuvuCsXD6rVgANKyk1tWPOIkFnAdQ1aqWPLytZmPMSqBS2dtvv++9tCYUxRiZfwFQzAoN2Uv8A5UYnN5Ru6wa7ShcvUZV2I5ltIz2iVL/GJrIaxSdovtzdWO7NTnVsmpfvEBozq/8AMMyhjbeDYijUjphjnMeToQ4t4Z2yCzgb8OrvUTZWDA3KLS9DEIjRbjmdSPuC/slpIjUehd1dbP5hoYeRysNt/gH7eHwfMJNIHvOk9f3Xq3oLUNYBeDbABWneBRUPk+uNrV9hmDiZpsgTCdqhvqw07NbT3M7hT7v8ehOHH63mphJNKGyOsof9O0J6z5BLejCau2vaZU0IRNsGXWMEMGMWAV7zJY5teWrRhoRT13+CbZmoXiagIYDiFIDlBHrKivIlVap9VfeAG21MpneXVS4Mt8pjxJXKbQC8WtURwF14lzhVICAsaEfZdJV+XdL8wL3d/rNqhjlh38pd2Vg7fsY/BxNRr/28Lc2YrOGZF1ijQISvDz7C+075H8fO9dwYqV7mM+pX4nlPsaF1PM+kUgRQt2fZV+UbUsN8kyjqEIei3noPqwWxaKcivecqjCVpamr+KonWFXfaArBF+EWmNXNaPv8AaAOZBQptcwI8jZTp1gTYodDpC1Ymm7EI4ha3UJOHGMXH5m6O9Kjdwu+nTpOLzfjiaTtWYIKl7jq/Y+A4mo+Gvh0I3tChxQ3zmF38GnvTol9H+Pn/AM8ZgYVqWojqP1lphbdSH/CU77uptSBeLOgWt/jSDCuvmEXG0alYopKSP04RSsz5rQmT4PqbiClR0QBbHXx6M1R6onNMjggwwULepnWXE1WNBHgGuThK62vArmC6FLQrIkUo4R3JM3z5plrfKKFq9IeBBvg4jwRuro9ydZC/1fCcT5HfwczoRvSHC8GfZ+86HE9v4+Tyfn8LoxUC2dcRiDAtrKa7ayj0Lovp9ITlBwANKabY4irRxpKkw2erjrCA0rE3fdQ0q9y4UgZd2DTTRjVlNH1PzgBkYAFfVH8nEOwXOnOI+qvswy+TCPuNbPvMPaN9UZ9php4s9ontJ1PHt+tn0P38VoDq+l2g2DjJ4KvkPvDB/GSSmB8okaxrkx4DctIG2nPaUV2WgHR5zDCWRRtGvpDGltWDeI4fmnKQaNoXvbWCx4eOGmK2lBu+2wdIw+Ayt6LDDXgbOs/lO0Gg4orWLv2BU07y5cvE+Q6eG6qfT/UTEsTS96lrcRT5z6F7/SP1Z9aB9Jm4cn3lrvDmctulaCD4zv8Aj/FcRJV8CAiUG8dmUc4Z0MVNJsqyV6MKA2LPP6nvDZNVPYhZy1HSYv0tAnXcGWH9fwmn09EtOs2zF0NZHDGuY/5qWaengrdPZgClOV+I85oV/wAC9Jygo5l+P1vsjLP0n6RmtruqCrqZvWGzCigwQm+LGq7r0hB6etxLBmqlIYlKs8NiniWVtVy6Be8qAtW3R1P4/wAVx4SUJcqmrBuBltNYXcBdWI4fb6ROUJBXc29I4ipqXpNLm1WmCnGcsotRkiYQITueBgxTpW6ihC0BcatFz6ksABmXUjXXnEqPuHtl/wCwg2bbNhekBv33KZVazIe4rSGIDO00YDR1/wARmVtej1It7U0gzFoeHboPd+qpPo2i6Jx/sVAYvMFxqTu+PheGR5aQCq7au8zStJTuE938f4LiLj2CNW6mYthjpMAK23Ri5aLowXQ6y/OveYXYDEyBw3UywLnE0jLqTpuypQbdAzODwFmu8ffM8Cw6swFZO8bIWRIoxGOcCoXrleNF4Do7yh0e8SI/VPguJNJmtfVDKY5MuZ8KnxqLIks5eCSqmMfb9QsCvB42PrEDm2Ar5vMzV77p7+B0W7aovaefqmx7S5aI1YLi7uD6fx21QxGimJrW4otq10PrFZIA6AtcaesKN5NIEFoYiLKl3rGIWrQ57SwI4YCBMKMS9sAmk6OALoCSzWvx4bFNZKGh6XL3WfzmoO9ZM3d4zAU39bl/4Wc77oncYAat38UBTUHqStO0r6yr00HnV/WLFXvN/f6wRSU6jH9QFWq6mDcQ3iH7rAevktezdDqRX4DQvcR/k3iWVd4lKuyo02tI2HNQT8wMhZd2HWQiNjMcM9ZjrLnWgGBMRbQ0tOK0hoi8orZ1UaoO5AtB6TNdL7SjiLaj0i+s2S8/bM95fltAtInsQJ+yA+p3BbVe0Jo5K4CamBs14i3w01H1y+qBuNcHrKww1eO4fwSiC1bRcwJUXpMOWouoSu1azrE7x9EUxF3Y9SkaNO/iuW7jy42222FE998KIPcOXPSY59t0elTTW9D2qMI44YesRNmuCAuswvW3PSKG6XqjbtDcgPWJjp0oD0hpiagU6YSnH1h95jKjsifeLWOe5fmVPoD9ZSv0eiGXqT8wJazkPylS1nRREOtWiJusYHmQbIaBC9GDWPRVj+yqerxi43yCuIGis1mLTEKgh2lRWKoXtvBss0f30Mkgm49F13VHlGGpAAJYgcNB5TUu7IoesCGaXK+4rdL3bxJbPIZgZqEhqos/WORfH7qZ6t1o+hjZZQ8jDAccmCmwUtconqgQZbBqZwSwHVtcWsA6Uw0IQRAaeSKyGGta4+AsJ3EyFRaKNVkTZd4EoQwbqkXsWu6UqW7S98RGGVjXEpJApCUymstx5QspmR2vsy8nJebVC2GaAnoMWB+iY994RKKyJv8Aqr6PjYOX8R+Q1N2WCmS4Wu+8Ki3nCN41JVlkSYwe4Zi6/eBEAN2Wh2KmnUX1i072DU5uOiIA1pF2jZg8pwPd2PoyvrzA7iZ0zllwtgNCzHzaqfTVL5KGQBy6Q/BsiG+uLmJrZN7GW0CHLmJHWdVy0uwVkxEZ/BSxDc9/+zzTTR7bxeGXKicMK1eMVvG3euLuhGwZqpClQF93ELqNnmQcFbaQikClFLh7uMqW3nZPZjtCa3eAf7EkaTT2xDkC4uCAUxhpmszWhBgNPKOyrpWB+kiLdQu9uIo3WqKwWJk6ygOwEyb8K/EcILPMRJfkYVgTrLDX67z5/u3gopdRC4xl2qeR85fGkMEm+jCq7mruI5esBipUqB5eBxL89ct45uZ7F2A1lVdcwXKz0E+8z2lu3+xK6ViBwmyoJWsRpwgauKE08wNiqQDUVmmpZn+SkWQh1Kc+8U1Xo/MQU44s+8C3T5IU9Dm02vZH6DpLZfOVrQjqjK1FdmmU1bKXMY43GD/kto5eTE8w3CNfmCwDcdjAe/6dtBnufOIQXAqH3IcRbEQHe/WViYLNTJMAm8NNhriVPQOn+6aZVOhcTg2aHUdeus6ljVhqG66hX+0XHB0Zfoiwgo9Y/iU03XidXzmSQ4x0mSc6pVe0NhpBZqRUIVkiNsunMw1Vwy4rgyyufWlmF4zIHXXKlSpUrwNogZ1C9shykd78AOw+kzUbD3gGV0s9pue0ZNCtB5i68g3WP0dCC42qAvBZt5j4g+AczI2aO8FlRhaZYVNXh1BzWf3UOubWy1uZTtOwqmK8pm9JUZp5QJcTD5JPtGZVaZhsrSoInjdjPZmXQmwUzf0gENO1zEBbsjbcgnMWzL6SqYbIGRKdY2ukdWWKXclIlRwhILFUW3p9o+Ay1eU5uTVL8rAyWnrKsbS9X8ysy0zlTOGUVYAA3lcZqskheAEVLC6yutSkUgHlMNrjedOYKxh1v2iRq8EB+Yi3sF6aKi4guoFbn6FyJg2agBbTDcJQDlnS8DMzSTVqsXsaeAss1lBDOtwo4gYzScvw/tpas2zsEsVN2Om+Ykgn8AxNWMTnnuqisgesmeoxMBAQc8cU3vub0092cueFd5UrxeJVu79JUUsoBimI8DkFOmIexACC9oKj0Kir3Jgl1Juu6oGVp8cfWYXIxSyP0oiq2PbEBwVvl7kNLgw4KzxKmg8FdZfIOokQALTr74IWqazyMpJaf45iMCQpFHapV2eGi41hFZWUNReU7paTTBNNh+m2HeepqdmONRJnVtmXAxS7GzeXHOsuFxcMYz10O/gbzqgNbb3vHdHMLnHf9ltGEO0TxGDwR4I8UeCPFKG4AhmCMHjOQ1q09BjQo4QHdNKJjoDoRUHvYAjlBpXJHo48Kias+DCInKI+6fbMioreBrMoAGgxp6iIZJLO6zfhmywzKEY47epnbgBf8qYB29Uh9TXZD3jkQcUmpTr1ziVqJOkhbbo55BSfeUtXR4Fyn9ACzoFiQGy3WDtHbE73CV1H4C3jlgxYhglFoVHx6MybjQnWVXmGss17AjJYIsJxcxAgye8f8ZsxcOKO6v8AbpGGVx+jHaEc1fsLmOAdTAgbDPyYK4Dw5+0Oo20sKZqoem7qZ20BqoK295J56MqGYOJWHVT4zNPPkmiLywKgHQQDQHaVlZWUlZWUlZWUfpY0jhzymwr2I4TFwMuq5dYnbkUl01LGo9YGgnQmtXzfiDR6lNA7wD6sFVA7VJRCArPRhZ9gbw4xnZ94oUlfLMLgGgAfT+wW1Jq3gtW1t5zqPeaNHpK7GaMuxK8SnEo4/wDQD//aAAwDAQACAAMAAAAQ888888888888888888888888888888888888888888888888888888888888888888888888888888888888888888888888888888888888888888888888888888888888888888888888888888888888888888888888888888888888888888888888888888888oc888888888888888888888888888888s4kYw0888888888888888888888888888QIAUMI04w888888888888888888888888kA8gs8gMkgw4888888888888888888884kcQAEwwkAE84QY88888888888888888844soYIYIwkE8Q8Y8408888888888888888w80F88sQ8wsEsYAwA0888888888888884Eg4R88888csM8gAYsw0888888888888848I0M88888888sMM4csU8888X/wDPPPPPPKIOGIPPPPPPPPPPLMOLF6n9FNovPPPPPPOGAKBPPPPPPPPPPLEKICKwvvl7qOPNPPPLPGJAPPPPPPPPPPPKLADY46or7Z0gUdPPPHOADPPPPPPPPPPPtTrua6lX2lagCEPPPOFBDNPPPPPPPPPPPKMJqTXxUZJL2cKPPPODLANPPPPPPPPPPOb13CFw6YBBFfLHFPPPNKLFPPPPPPPPMMMIHFHINHIPIHJCHPPPPMILOFPPPPPPKHANDJFENFMMIEAEHKPPPGFILJEPPPPPPNJGKJKDONEBGKJJJEEFPOMBAICIMPPPPPODMECNHAKBCPKHEDMLNPPCIGJMIGNNPPPDPDIAICIGGDJDBJDEOHPLDPCODJPLPPPPPPPPPPPPPPPPPPPPPPPPPPPPPPPPPPPPPPPPPPPPPPPPPPPPPPPPPPPPPPPPPPPPPPPPPPPPPPPPPPPPPPPPPPPPPPPPPPPPPPPPPPPPPPPPPPPPPPPPPPPPPPPPPPPPPPPPPPPPPPPPPPPPPPPPPPPPPPPPPPPPPPPPPPPPPPPPPPPPPPPPPPPPPPPPPPPPPPPPPPPPPPPPPPPPPPPPPPPPPPP/xAAnEQEAAgECBAYDAQAAAAAAAAABABEhEDFAQWHBUXGAkaGxUNHh8f/aAAgBAwEBPxD1ZAqD8qgLlwq24u14ZuOFc5aZ+EwbvbSIlKbS0WOO5xa5g0njmXcGOsQZ+ndiJ5OIQC82bV07kZzmAHT+wK0VUS68AVL7bd4zHFbuXf6/cV8GNXjg7AQgFFFLzlkunK0VxtBNRWqXc3M44b50+59yh5fdm2G8Gcoj4EH4TLkxKCyGYKdOFVFYm+iKAeWqq2wYET3l2r1ApTqQCl9SP//EACgRAQACAQIEBgIDAAAAAAAAAAEAESExQRBAUXFQYYCBocHR8JHh8f/aAAgBAgEBPxD1IozWrzfR8BVK2W3VvxUVWpYQebW8hZk8rqGxCttx7k1GUQXEbpjmqgYjm8qMq03WSVIrf6ip7uYHRNRBvhlbxXLRB7A5zNs46f7G9Qqm5Rsff+o7HyJZC9eTWi41W5d6QijvwGOG4mwjN/bp2ljl4+pf0/jz/MPWKt1y2tNbP2e0NeCwly+qO8X3fxLyBONJCb0k6JOp+OVyGA1gDiFYI1aYqXxybs/RcC1U831I/wD/xAArEAEAAgIBAwMDBQEBAQEAAAABABEhMUFRYXGBkaGxwdEQIDBA8FDh8ZD/2gAIAQEAAT8Q/wD0TBEANrCQk0jZ/wB+v21kdFyedErPMYd0X/4F4JascAkoVvSKN+YIBQjyf90oLZ3Gg9WiW1SooRwOgcdbYhbhhSUPaWdke2KRDTGzT1l1nCwlYCjVHDB9pkMx1u9geIYK6t9Kj2X/ANs8hxalt/Lj0Y+sBg9giTF8UsAPJ1O8ANqY+he8awQ4KMlOEPoRlPZrMe9j9AjER8h5c9vIlwjZDwpAejDQ8dr1XQPEVT8Rxj1D/rlFTdoAtY48nH+Q594l2roHgrQU8mEQU4YFgaCzwVbGkl2dZp+C82PNw8HSJFAyxCx/R2T2I+zL5vd0v+/XqIrfI0EYL5pbP2O3AVPrWGI7v3hTV59cEpT0k9EZsvW5gN3AzaXRhbWagiWa/wCkVaYhg5I6o5d2usRJUB5dHiVIsCtsLT/gxK6BklR15g0Kg2JsespeYFdNo/drof21KXVS8HZ6SkgVM8gnoVhFvZ05wNipHCvZSISFmFsV92O+WpapG3ZdtcV3jAJlBfxbl7w2JCxGx/59qgy7PuVHETNWorfWrjMiilDgl+lgdxDlWjo6HB7QWU5jbQs05yvXsQbYwJUKHq8LchDe5Ykml4PuR3MldBLfRBK73LSaG8N8JUvR3nBhHneKUHdJ+tpZTbLChmwBdZzDTwMuHi1GOpZAOgHAqOQyc7IowmE9QwGb2Pm4gmsj6oU+jEFL+LwX6X/zWIAcOW+oe6BSaCdqr6S6GKHgrPkhFXt+hWqjF3cQqWVOXDmHaYFXbEqy1S9oMHsEIWobvIrm15rVReXPgRVVBUMA2FQoYQhXCGqqgqu8vSXCekVY6MQE9vAo+lbcsVIkoqvQLR4g6ZXiPo/b9bi50z3xPvLbJsP0DJ7jEuCI9S9PUIPYk4On7QXrUfTByejHVdNx8iH5I1v+ij1HzI6hLJXs1p8/8lnDS3uOfUKPSL7Ic+2XmvVpjiWJPOcCbONXDMGI3QaS4pUI4nqsPVa+kzCQh4BQHt8zdYYOH/FMuQZD0GX6FBYVKhjbp6QxwLpPMUAguaalQppIPM2sS1FHeJPiGLpu9Z6tz9koQboj6x9JThbhh6gHzKyjkN8csAnJDOXYz71BMhyS+BNAGPLdufW4AhZPSBgfURDfFZ34sPeMikOcE9GYMFyIpByue65bVc5pedhfBDVGDSXWH5M0QO1C6IW+6XhCQj72cn/EVCFJeWsTWqFhvYrrd36wBKOyeOxB0FAI9C/oQgetKittuPDN8iluxrzF9YKwh7w3FRA87+pCmbqBdekVgAUraejqDN3wfCxhPTiYENm9BFavVWcZcfeahHE06rm7V6x3kjsKT0YvlFwQJ6LZIVVDre9ymLb42a/RNekoQBrbpsszqPNTVjchxz2uLZgK/mRYvMbEpG9kgt5xAqQ5U/DcP8EVAb3TfrcXgSMHoNV+YWtcJTKymrW0nR1DsOc0uq4fP/EoPXRC9DTq0C9oEQexw5VUdhqxThm7Q0HGz4TzEofAQOL59lSFMUwfT+ZIsUVn67HxUb7WvFwwqRSyKSJ3ohpY8YW/Xj195RttpsPtH+RKFVUKCpWb3D6x1EO1FwrQOiq4e0YdCiR7CrNHeZwuINANSJo4BthKubm3pMxOKpvfaKQRZQijS5FNi2syzj2EU3Tp9IZgj4mEixSH0i1V2M/0TbjvH10lLIW6I9tfEcOw0fL4YsjgDVUg2bV9Zcui2h1RSR6gV4PgGvIz5gfzoQV6a/4Qa7iZyp0cj7wl9GB5FUbyDDBcMcEX3mvTvEULnllg9BOhyuwZuVhVB9IKv3uHcQAOAfA+SEbZe1QyUmspEt3QvQAp9QmG5UkO9JfiHi6I9F0tVEMBBvH5lLd157e0vkkIqUIsRQfrLu5JJ0CuoIyFr0tXgpRs46y6GV4KIWdg23m4H7bvI8kJR3Y2+N8VCjILWjBTMnltYqVVA2rKzMvg12aVdlwcPaVZH5Jf6LVsV63QsAkbp5qGGqVnmt4q1vWMz/AscBrtZfrLrCsvLdy7PSHLHAWGKTYTOA31JxzezL0Gx8/8DGKqWRbC0pWPO0dMlQstrQvI1DXYvovdlGFLtbzQV2KIZ0w0xa9GpND8g0xoWeBWVTTVcRgKbDt+uIIiWOydQQfJqMsi+4wfz8x18rb2fzL7U8B9n5lirtF/CzMD/wD4TL4w5eveZIjswyUoOUOYIzq9jJX3KZVYOjcarOqsdiBaBtQm5TKYjNzCJU0MMpb2isgNWbNlsXjnUtWgzBxbpdYvdLMqBQoLTTS7IYoG4pEOpz2cnZ9Ej514idqdO2z+/ikCmV+WGv5qCNFEosxoOyWU1DoZTCDUpQHmVYwpYVgBExac2HWX9bqoLzMc/j94BAI7GWqV8V/iWCDZSe5TDDouy/VOuQ2SaK7xV+5mFqH4K+zmIusbhJRsG7Jp+jBYzD6khVKvPmEGTcNw+POg3qWPsKgaDX1hK/rdm1O80SnBI7BHDOjhghQ3a7CDKeMh11Lgx2+YpeRFGFY1X97F4DvtCC8sZ3WE+CS2/Lc9GdNSpF8RAMhaUHVoA8sN7CvWjZ8mYOIKDoPFkmu7mM/AxoWGu1n8bl+4LJeoryfTr4lG3ulvsn4j6gZ09kzL3SsV+q1EEH3j3yRwqPFd6kIFgtZ6/pV4mZSR/SLhZe5Dt0l3HK/Pql0KfWH5L9ExX+mnuhzBZ91rqLymDDWrKL8BQej2/u4eLCzvN84SWTHIhK3dFgrvNJiXWLq0liBwGgAVk0y3bdxEwhZEo0VqWdJlVP8AZTGv0EIVWrnVfz0ZnbZevlwezcswndX3JZ9oBH0/mMku8L/7S+pXcfbcUlBwwmE2QDYYJwNjC28kmgfRD3SwP07rKJmC5U6sNtHUv0HJCN3RsQsT+5YwCO4Uds1EsIDaTo9b0z0mGY65OX/niGCqmC3nQcWcQvM6gChe3F58QBYOMZ/SQt/gfoP9IDAJhEsYVanHRffT6TUDzQtHZs+nePQp7Q9Y4+ANkU5A3EVL+uwr1h+sDRbY75+2PIzNNdxbsM2dZ6f7moSO24N9r2lF6E6H8TEUoSLZ8agYFavD/QqJ2wyU7Aqu+sF7yscaGDuPM4Ln0tB+zEgUnwxqtlHm5ynPux4L+pvDDTbnBk7hryfMzvOB0eq0kc0E5Igpor5r6hcOI6Ugp6FHxFk7UuDtwDawOCcJplUEyZBvhB6x0mabD9wU+r/C6iJyXSAvtPkQD9ovmdv2QjDWZE22c1Y15/n+BhksrJ8DL0R+JzT4W+lKahUPoT3r7wCzqIFn0VBUrrFTKX+yf1g7lSjjrOBih1sEL1X0bFHUYBFo5DZG6Urd2Z9FSG3pgkA4HUqskQ3dANr0JeD1oOB0JVI+OgTbKjxQmnYBsZLie/VQjQW6RDI9YAe2VIoFWj1+IA0cbSbDoprvUKFQizDmxaOz4DcUpAkMhOzBHSS4w6z+tYB1X+cAh3pFWyjiBptffK3eI30B8p8hDP4cHKZ9iZPsjOCZeMMrflwuLt83+g0eEnzL6hQR8rfz/XDgDCRB3JaUFORiGt/0ma+A1pYjmXwMoq3eih1fLGJWtQd1dhXRzAGZXHCfz3giVV7AFl7BwQ9Q2BWLp26cEVi3KX4NNY3riDKMpfRqMcmCj5l+LsZYXIWVizN5qopKWq2B9oEaC3P5nQD/AB3MbacmZQJ3Is7U16lo2e0SHBWkpM9k4YxBcApyqaqIYOIu7YZwGi97IcovZl5rqFlN2TRn4fzgLaro1laM6i/rTTEjSZ5YWYlVubMxO6vXnBC4sNXviJAMKjaDuTCVBQoYWHUzUWkAbo7Op0eYbD/FkA8r60Pt/W744EyrXCcRIIIDo6cK2eRCWtBoSNoL2Cea5lp2xqnuw5v6njM0JQ3k/hLQEJxe4U34bMNOExw9I50FkaeeDMY3MCiyxDJplBNeKERcOKWO3mWcNlF5TwYqAYKAapD14YHg2ulCn6jHKy94+AznN0BXeNNIlpV+moR60mQ1y4C0kyv36xuNPiiLa5QJdXS/0YH1eHayiCC6XwII6b/kEpaGTOUYDG4ySRkLWTyrrxCHYCsyucCKaS4Wx4qDcCn44aT6sqAdhaYsrO7RQomBSWTgynQtDtDYWnV0xDN1X1b+u2Wo5yh76XwxcYTsWwO1g+GFdSrbVl+A+kTwFHDSVXwf/ZWCwq8nPo/WAODNXiAGGtbC6Fd2i+IfKtzyEK03fgquZbPnAAKzRu2OT6mLtWM41AnV3uoOerzfmMLlBaHQPSIrHJklD6mOwV+Y0KByaIl+wybs+1JBLdkKAYYt1vTK2ikocBoQ2CGKYWkAAc7YPPSFK1moYvpLLWFcua38/SKHshWrQS+136RoHbDDrTr3faZlTVUt+Xb7MvFILro74P8AmU/V4FIlAS7F+ISgHYW2PccfwO1/i8RtTy/objAKtHnwsrUAjUQEr0L73CzBQSpdUWXqnEn1hf3/AK7C7Zy0fUXUYmoWzmN5yPVxKWuscAYvAPldZQuEl131gGFkFirTGHwlMbonftG+XiKkoFepcI2bEDbQclA77h0JWLoG8PdPYhx9tPb9QZVl0oZpX4tjgQ0UK2nOesUMexbVy9ZL2L46xkHAN80CDopow0v5vj3gKtop3YOPLjiFu/KlsABWSlXwSqMA75nN5atg7b+YDeLTiIyDF6sr1fRjibj20Hz4lhtAXQbRQZw0jSBgAwnAckNK2EA3lePvGO3QA6/gFT/5vBX+rP6DQLpzvavmGAYjrmo7rKhDIXt+lIxx9KvvCH43x/rr/wCg34Ze8OrGe5DvwoJLoBMllnuJ3m8BlVVpOwhC3OZoVT4VgnEWFJWEM4HPi4wcgHI9gtVoXGoGfDBAEmeuWvaYiVh6DP8AUjgMfIn3RguJk6zDyMsrRYdZQeopZkWhctajxU17KER9d8RS7HVZWtdcvrCzqr4gHL7fMT7ZBYL3nmseSPOu8BdrMsLTUV754hC6dkENitGjxEhd8qPPT2Bp8ivxAJkmMF+JVYE0DIoHTHtBXosIDkTCPSVRxe4/cqT/ADaDD/Gf0ACORwxmSmp832YKfd/QPIr7iUv+KB/XZwV70v7Ial+gEBfB2pTfVmcDizr53kA2IxupQOAtzU7ZZUhNBAG+a+0vxKuYcDoPxLCVMB0tuKzGA7pMPwMznrd5GKBc6ucpOtH0gewHI34zeIjiAbRXzH5JZO04Pl9YAx219fxjLbJlpt6h6ViV95gTPtaWgvr5IuOjZgSp4PiCA3ToS6Fd3+TaBl4KhMvD9KAgMSt5gwxPg+qRPrvpP/vjl/cq/wBmJ/n7/qzilgMC8vQsYHBBupStnsQtki+pIAA0Y/rdl9RIqYDTMyrJbzyhDRAdFsBbSnIm/eEOtISWqNKa33hxqWYLma4q1ZY+mRvMRWK122px73H9QVj8Uvo1f5uHJ2xsFRfqz0UzDBO7tNJVh9Xod5qnfDZgHXv+lk3PXj6GAkmQBTwwNEBBChgd8cwERWWAZ77I9eDGqOp1QlEiAZupoiIMI8Tl+hyRlu6b5iqHZJ/sXU/cETJK61bAFuYQ1uxMrU4CsYvmCXUusefuiIdGT8oEKEcjiMBmyh7TCbw1r0jsFENJ1F8rrUsLPxa/1/8AI6peRLJ90Dga1NAQ/wBAXUcs1mW8BlKuRTtYTpUtIx3EtBTxgTy6wsxpF6FPvMAGDljqmoy4reuhq2YCTgr8dLgU6ofbLLIPTWPuyv7EK+C3owIDTsRBy4if8XzOYP8AHWAIlTPc7xjtgUaZd1KykPt1Kwhqr/8Ap9EH29J+o8+efMIvEvHeNBYiI+8PZ1nZL2ln2/bS0Udqqu/TvC5TbLdtXlyw1satlQVdcuMu7y7lUPyZF024FlbjZd2JvoQ+tAGbgbd5IKUKixYGlR0JNZFbDoXeIRLUtZs2dGr/AK/+R1T/AFejCN/DysVbHOox2PuDxDRCDYoBtE3g7Mojtvyj8Sp3UhdfLqviFIK0RVdGNsCF1Lp5YQgOcPhCxss8BnU3Gnm4FqM4pYoDGF1m67y79pFUF4SqrYWTSV24BiGVMR6xeSswLw6aUzVM6SCoAD8ha/2Jhwab0D+eZSugUiJKkvCVWlmZQVhne9amg1xLT79R6k7NhFj1OkTkHQYlTX3c+8qKgFOPJFbc8z/Rk/dY4sS2xR9TY1jCW6poD5lpzJm1znsg9v0fisJ1Nj5InYNa3abfHMr3BCqvtKf1/wDf6pXAz4ItnTaeZhxaNzulWq7hiKOiGQorvE2H2I9I5GuTMwEu9s9GvmWBsAWq5GIryKqbxxqYQnHgWSwByxKcNjxUuN0LtKrLnTfxNlgC2lj5l+kOo37xWDTV4L6bji5BM2XEw4aFh4/9nLAsXjfvLN+ADRSt77y0IWubrW+veGlgKCHd/wDKTcSBFWgXP4jgqSsP4yvAK8/jACuTVsMdmoQVki+Ixp5OYKCBHp+iWzmC7SuNbax5JZSFHOo1AT35s/8Af3LkJS4s+kB9IsuGCEXCdRBPPc2Oq+Ae/wClaKggDOT1QPWM9Mop5xCgbItZRdX1+rqOWOilFKOcn+u+ILj1RI7JTRlcXZZQS8hboZVWC3SVjtaxKp5uo7nFrEFsKWLhZ5+IVqUsWqxHlJWUKtnBwQYSsenMv0NV6vnHMQTOOLm7er3gFLFVx2IoZrHzFS6/H45RkDw3QGcv5ROH4RFzV2VKASNGD4npiq7SozWvyoLQag0XADPjlZQZDzNJoL3pFt0T1EJ2HVfi4BihN7r7pQLRgIBxHQtPVFfMBoIBWDsL5yv73TVyhgWPjGWUDoGx2Mc9rTqs24C84vDHAL4npVPdPpU0Zqv8T8xDUsoJlNDqy9QoFN1KHjqWfH9dxuKBagdZTKyuszKO65lYTm5ZdTKkwYCJJXSjg8dI2OLaL4d6/Es3JaEz33KIUDJei4m4HaYq68Ilgqj7EHUlqjn5leo15r8xXvB+exSbcu6rEIog4AQQmOQv3g9C9AYlY2qsE+QVJZse02z8ibI+RMbDNjk+kyco2u1jQHx+CU+G/wBofwlAviwqDts96gOnRvWUWvdljxZU957P84jFDbqKire+xBNoTw9oOAx7QVzui01q2V/Zfv0Z9df0RhEI2Wi3nDKWipagGm0cPadNmgYxgbdsQ/Ky2OK0BZnmVd+u7A5bDOriwtryFe4lX8QwC5lE54QlaKW2T2uVZHh9kR7RjTlAqNVpDOqqsunRS3DDBQ/yxQcpXj0AWEUesKj5jiEo4F0MoA3b9fmWOoKwGr9YtcAboW168ylAKByQ95XsFuOaxlY+pNcGAA4Cw7dpSG0KUg9KzhKzHNA4/wB6QwRYorHNO9Q1KHTeXS8tZinwQvbVjK3nMFEDx6fqqKyGsHjmHKlMNk+o1B7jgPXAo+8XxdkFWcCPoy2JRtj1QR8kFWNieAn8JhVoeS2H3YOEJLhnI4+Im8uAKCAc0Kneo6NnLf1ZQDy9ZQr2ZPH6URtqNXeg9kuEaCFicn84A4AUQvJdy18HelAIhM84xmoMJaLC9EC/MrQsV+a2v4lXS1JF64I/SpKYWLC7B7w8VxQEEuigluGURw1uZijRroSycyanAgLcbblhFVW49RFBsdLy92UIVGbx6VcdvEYuXm6viNGTkA0ax9JSnbocavq+8yB0mlq8envKSDSrAfbrcILc1JS8ccEacA2+pffEvNcQTn/XGnEysp/qY3rlh7eci+YdhQmoAC1V7CWse6knjPOYCjkiWq6md6l27phT/sThNtT2f7cyAlNUyO3+1HRoBauhZZUXCoj7RSrrokCvEHXeq794o3O+P0Hf2hklYALzV8wi1iQq1dD4h66IE46Yy9YN1RCwOkf3FLA0bRrv9PU42P7ryVModAKIMKEu+gUfeNlEcrH+8TV8uVKs7EcAvuQAaHJLRGN23MMz3CNXf8xY2tSgO7CChGhEM0B6Ci4ZVYm1Rt4UYqUEVCyv5mRcJ8Oo5OzuUp6AJQOwHxFASNEhsQFvjPWNuQlPDWQimO5Fq2mtFzBUEuKXY9t44jt0HadkZbdq89IAeWGCmh1e8wgv1oiS3NXd10ltyrrBda05Yw0rCW9UJSI5L9r9Y6Ho2M/rHBHEDYtN8ahy1fKjcetsAlquV1U0oQNljHl9UoTK/k7co0tNqHAmA5rFzbBYwPWOsRADdlGET8BUQ4GukAallL2+CpdcNVWqs2aqDngVJBq76dcQAaAUvdaMVQ3x3m8m6QcYAVdsTVxfAAAh7U+OJxLBHk5v7cczGRssRRnTnF9YYSHbexVpspt5m42MtIyXWcJVY/asugsHGlN5y9iKe6jZbzKADMqyxipwQ4x07S1wC+AoJYFQAtQeIDFi6f8A0P0ltmTKbuiaqzMc7XXykx6VPv8AylBsALHCuJhXUGYoAWU3TpqKiEYi0HLWir1iUC0BqvEdgTZqO/iM2vlQ9kuXbcTWoy1wkCDNu6hUKoQIwHaoIGQlVVYDreXIFm5VIOhSy92BRpo1PWy0tsHJK3FGqtqjb6wHWAA1AWAd4r9Eve/WVLQaGBswKNxqqKcaivjF+JilUbLYc95iXdZSveVA4bnTVrALVvqUXeHYQ+kBg0yME1acK/ARlEbKbePNhFuJ6DDziXW3shOFvVS0rXxZXacgIQ1eMw6SZwbQY7VFAgFwiliIoyJee0CogTFa1y3uK6KXDgN1YgvoMqsxcTEK6X3VX7VMLJnD9RePENuAiwfMCiMFnLmW0Nzix0AIltJ6sFKRXk3qQdJZV0iiRxd8RqiypxZyeFp7L/Kg9gUSKmLTNS9KguxFGnBBWyjBLackIFeQksoS82rxOF67j+P1Y3OzAdiefEuBlmilBnXKPknKxvLFeHaYiCt+rrQrHWxWFVvu8QANoPzDGlF+kEfmy0snO+3KJNQqwrBHExklruMaweZCqucFcodfWN4IVRpTnHTU64G9SvQiawEB0gErjkilK1tOfaKVLRVofWKXzCx4rr0lOMxTlPZMQvAEY8oYHkzihFLe7z8QBYpU0dkPRUXShcvjH1hhWt1MlAXz0/ZiO76eCNyqw8qq/WLMrHhR5YQBHHj9BZo0vzEdYns5ENFpi4xbFTl5vu7uWiOi7Q8Hr/LpiaXqBPe+vmVqLtkbubPJd4lsAEs2r1bA1u7Cr67b5lwVOtb8RDWGwbBSFDfW8Q9ObtOpHNp5bu5R8tJI2OygUsxmDmCSktC55DddpQeVa2d4PliXAKe6LYvkuXyiHQGPBIRtFHgwAZc6KuXukgA+8S0Zt0vRC4WsAslRxtv1i6xKyx04j4HUAodZqxctQPgXMfoDBMPtKUyUyVog8zUglFpznqVH64LseNwydbiFBfa3UUIY0KynJ2hiEIZb0VohUnhegK/Meh5dq9OYuNYGwwUuM9cRivosDFNNArhdjbLVIay56wtxfG5hdazEDArQ6ULXMcaBEbR9HE3GVF0NNcuLxr9iSOXpVAnrC4DveDUReGCk5GiMVSiBaB2u41GQzi8cTCz5GpQNnkPwzBoD0i2FBseiaYBmL2dHkhsSaOC2Kq2EeHPEZR6RgfR/+Dx0/iWtzXpAmoo176c6dF056kxEEBqjZdLTniVEpQvZ6FmI5XWaDjj2iuairVfMorPAj4jq5INV0uK6xP5Go6xVgAnvCN1agKg2Br5hWIjRTs5qFusV49ktlhsTricz22WAAlmPG6wBHP0heIBs4EK3mX/G0bsr8SryhhVaGdRxR8Mil6ghOkcUsULfT0jmp00vJRlz3gEGTBR1enXtuNi2v1OachNtEUSQLgHJOjgmYHqSKeEMFxlEFrnZRnPXcR6cWG6uhV93iM2I0oFZFsXmnZF/QD9dbBuyqguDR23YS1RxdckvxNSA2DYAGt1cSlqSUeXAimr55gWx2WxsPXy94p+KPWgpRx3mAtMxa2LB335g2fsFS1WdwdEyd7OkQqd7kNJ2qkEzk/RM86PD/wAh1Rg7seYy9k9/0pWr06P5p9SLHslVq5qkoVjKqT5ldzMMda6qfWk/gZyGC9JvBGx0H6gAIDBeEbDYAQdC+rEImwRW+5ZFNwY1eW9SoAu9BIc7hcle0NysiyZ2Ezgxya5Fq6lxg+RkaQrZMFa5gJWTHXmGqwqVlL1iwjS3WtwgILRibdNuu8yAvtYAbvXmXHpK5i8GO8FKjwUc284ljVwMnqVBkU9TPFNS4SRT0cv0mD8qhUFab448zNOUpaNvL+eZQDORrSV919oXSHJRWLTvFoxopjBu8da+YUAVUIo52TG66jHznfaXBCIiZ42GJ8a/moYCt8QtE8v7F5gLJcIwLt5Le02V2b8xrXMZj7hLXmRYhqXAiJ2lgtgCvlluZX3AxUHQqG64z7Ql1KW/Uv0YgDQouBuaOERYBfeEbCOVXpFGwE4UEbMOOvSPVlSyJiw++5cfAbOpVLGIUgQWbMfxIO4pAeZbzHaSEOCFOZ3nSvih9GMDGqBvS4W8ChtPARllwvEv3gLK7NvhWshNpw2dqZpa7esGQtVwKbrfMvpW8mztUCCgGAcFaCNO2FFal3qoegAFKxdYvuyhPk2sZ3hZ8dkC/Yvwzsg4X2h9EdAEC1OoQ6BAuCHahAmTOjAtH7Fohbme7KD9WlVuPZi6BYaAzPo7VVb1iPsBjYUtnrBFeiigsLMC2Qzc9PsRl8yilH3CHmZhgNdOrdWk4hRUFCCgtuhmRF1oviWL9d09LIEtjmp9CGVPIVH3DCbXQaegD/noOyaAZ+YJsl9ZpfyUzW+uP3n1JB+s+E9fafCMEB1HZQLQ9v8A9AP/2Q==;" vertex="1" parent="1">
          <mxGeometry x="20" y="320" width="77" height="77" as="geometry" />
        </mxCell>
        <mxCell id="7ci9IZOPOK0UTeNCpRx0-33" value="RaptorCore" style="text;strokeColor=none;align=center;fillColor=none;html=1;verticalAlign=middle;whiteSpace=wrap;rounded=0;" vertex="1" parent="1">
          <mxGeometry x="20" y="140" width="60" height="30" as="geometry" />
        </mxCell>
        <mxCell id="7ci9IZOPOK0UTeNCpRx0-34" value="Excavator" style="text;strokeColor=none;align=center;fillColor=none;html=1;verticalAlign=middle;whiteSpace=wrap;rounded=0;" vertex="1" parent="1">
          <mxGeometry x="28.49999999999998" y="397" width="60" height="30" as="geometry" />
        </mxCell>
        <mxCell id="7ci9IZOPOK0UTeNCpRx0-35" value="" style="aspect=fixed;html=1;points=[];align=center;image;fontSize=12;image=img/lib/azure2/iot/Time_Series_Data_Sets.svg;fillColor=#2b2222;gradientColor=#000000;" vertex="1" parent="1">
          <mxGeometry x="430" y="199.11" width="48.76" height="64.76" as="geometry" />
        </mxCell>
        <mxCell id="7ci9IZOPOK0UTeNCpRx0-38" value="" style="shape=image;verticalLabelPosition=bottom;labelBackgroundColor=default;verticalAlign=top;aspect=fixed;imageAspect=0;image=data:image/png,iVBORw0KGgoAAAANSUhEUgAAA4QAAAMgBAMAAACJ7bHwAAAAD1BMVEURHCTm5ub///8CCRCJjpJn1S4IAAAdeUlEQVR42uzdbZqivBIG4NJyAd1pFyAcFhAnLKAF97+mA4jyIdCEVyCVPPkzV8019ih3V74qIMWPFn0/GkJxIeFygBAhCBGCEIS4HCBECEKEIAQhLgcIEYIQIQhBiMsBQoT7EdZ/qvrvEYoLQQhChCBECEIQ4nKAECEIEYIQhLgcIEQIQoQgBCEuBwgR7kiI2htKvghBiBCEIMTlACFCECIEIQhxOUCIEIQIQQhCXA4QIgQhwsWEqL2h5IsQhAhBCEJcDhAiBCFCEIIQlwOECEGIEIQgxOUAIUIQIlxMiNobSr4IQYgQhCDE5QAhQhAiBCEIcTlAiBCECEEIQlwOECIEIcLFhKi9oeSLEIQIQQhCXA4QIgQhQhCCEJcDhAhBiBCEIMTlACFCECJcTIjaG0q+CEGIEIQgxOUAIUIQIgQhCHE5QIgQhAhBCEJcDhAiBCHCxYSovaHkixCEa4TxaAOhgLD6WAMtA6GQ8ELDjXXtqJQCoYuhKv88l1Q00Vgbc2gnLAhdCeM4uf8aow1PClbNFP/ufgehS6GKoxJG08zGVORiPTaC0IkwoiWtGBuPBT8Idw+L8Y81LWuaD8UPAeGuYXIvxj9a2rjoftN7+fNAuEuo4sRmBBxRLEbFQxyBcI8wUst70N4UlTIQ7rCKiL70ZwCrmY3+BuG2oYrubOiDjc1d7BpDZr0w+SzgY0w8FT8fJd9Nwlj9sqbPN0NKgXCLsBgEDa3SWKffIFw9VFGuabVmzB2EK4fxhQ2t2YoREYQrhnH8y7RyK0ZEEK4XfpOh1RubmwLhSuHZaKItDNPnfwzCz4a0jWDZmepjBMLPh7QVYFWGyhQIPxwmmwoWS8RDDMLP7qiZTQUfq4sIhB8L419DmzemLALhpzZF9xAsB0QFws+EewkWA6ISQeh+SWwvwdIwE3A4yn3C/QTLvrSamILwP4W7ChYT00MMwv8Wfu0rWHSmhSEIl4d752BleItBuDh0QZC46EtBuDB0QrC9PgShZeiKYLM+BKHlYV9XBBtDEFqFyh3BqvgEQuvz2okml1qVhyC0CNWZnRIsl4cgtAq3rw/OOZ0IQovQsRys8vAEQouQtHuEZLLITUInC4QuCjpbPnSQML4bcrJxCsJ5N758Ge0mIRkNwjlhxORuO4Lw7zBm7TChyUD4V+joVKYzpQHhVBhfnBYsWgrC6TBhxwXLwzQgnAhXvQv7U4Y3EE6EP+4LFuNhDMLR8MuQBEKtQDgSRkwy2iEC4XD4pYUQmgyEg+HFCBEsN0tBOHQfrxjBsv4b4c6mtzBmEtSqjTaUfHuHZbQkQk4VCN8OyxDJMgRhL8w1CTNUIOyEX9IEmwU+CB+TK0PiGh8iEDbhj5ZHSEaB8BV+CUzCpisFoaC90eG9UhBKnMvUTccgfISGpLZqnw2Ebh9Z+2M4PIKwCC9yBYsWgVDFLFmQMxAq2UlYVg5Dv7NJdhLWT54Nu+RLmoQbZoETJtIFi640cMKcxDfOgia8aA8IdRQyIRP5k4ZBEibaB0JKo3AJcy8E9z4ZvCfhxY8kLO85DJWQPRHc+WTwjoSJL0lYPigxTMKc/GllGoZHeNEeEZYzmvAImcivNAyOMNFeERajYXB3NuXkV7sGV/K9aM8IjQqNkMk3wiwwwsS3JGzqhqEQ+jYSttIwEELvRsJqUhqFRMgeCj7rhmEQJj4m4bNuGAZh7qVgPRoGQXjxMwnr0TAIQk+TsB4NgyDU3hJeozAIve1HHxOaEAjZW0EyxyAIPU5CKu839P/OJp+TsJzQBFDyTbxOQk4DIPwhr5vxnzBivwn56D3hl/absH4Wjc+Ehnxvx8hvwkR7T6g9J/zxXpBYeU0YmQAIt/4ikm0Jc//70WJd4XUWcgCCzwMYfhImOgjC6m5DTwlzCqJVdxt6SshhENLRW8KLDoQw3fS+7Q3rhSqUJNz4G502JExCSULiq5+EKph+tPrmdC+zMJh+tDxD4yVhQElYpaGHhD8BCZLxktCEREhHDwkTHRTh1UPCoPpRog2/3XAzQg6LcMNvN9yKMLB+lKrvkfGLMA9NkDPfCDk0Qrp6RhheP/p8Yrc3hD/BCT6fQ+PLnU1ReP0o8dGrku9FB0iY+kSoAuxHq31Sj7LQhEhIR48IA5yPPvZJ/SEMsh8t90m9IVR5mITVnNQPwkD7UaKTN4SXUAm1L4SKAxUsH2HiB2Gw/Wh1ntQLwmD70eogmw+EcR6sYLlB4wUhh0tYLCt8IAx3KKzmpB7c2aTykAnZh5KvCrgfLZcVHhAG3Y8WywoPCC9BE1IaiydUP0ELVnts0gk5bML6BI3ojjTsfrTpSeUSXkInNNIJVR64YFWtEE2YhJ6ERP9AKL2dZBOGvqRoLSvEEjII68FQKmGEfvS5MpRKeAHhc2Uo9c4mDIXlynDlJ8yuS4ihkJ63bAslxFD4KDgJJsSq8LEyjOQSYjbzWBkKJsRsphkMhRJiNlOvDMUSYjZTN7mEGApbg6FMwhx4dU8qNgsxFLbmMyIJMRS2F/ciCbGwb3a6I5mEmM008xmZWYiKfaspmXc2YTbTWhmKLPliKGy1q0hCDIXtJpMQbq1lhZJIiL2ZfrFCHCH60X6xQhohZjOdtuI3j4Bwu2KFNMIfEHaaQELMZgbnM5IIsTfT25+RRwi0wSmpIELszQwPhiAUnIbiCDGbGZ7PyLmzCfeGvhMKK/liYf9GeAWh9CaNELOZt5YKI8S5mbdmZBHioU8Dg6GSlYWYkA7sz4gixPba0C6pKELMZsbmMyCU3LQkQhzkHhwMRRFiNjO2xSaGEF7SCbG9NrpLCkLxu6RS7mwC4XCL5JR8MSEd7km/QYgs3IwQm9wjU1I5hAZcw7ukcgiBJZ0QD5wZHwyFEGKTe2yj22dCUzcJ+M/3anzOQuuLQnS/n4smotp/Kt/p+f5LbIvINymElmsK1qes/gkiliPH55s9k6VhsaoQQmiZSuYWx4II+d/r3Ua/xlNCqwGN24IisvBf6/1aGh6FENptcpssFkwY/1p92KuPhHyKXSPU2oIwsnrH10jGnU1WawqtHCMs1go8vbbpEMaJTVeaCin52tQpXt8Z7gqhORW/U2fWswnj3OI31nhIqGO3CM3h8YmmDHuEkc0E3EPCo1uEr5E54dmENu+ZlQzCfPFIuDuhfk2Pv/RsQovpGx9lEM4f3+s7X50hbL2fia2+PqHNI3aEENrsVjhGqOa8kzfC+VNwIVloUS3sT2Z270hndY9vhBY9qQxCi2Vh6hYhH9oTTT13CmbTk2rfCNsX4/v8fdu52NTt10ffyql8o7fvZb94MgiXzEfPLpR8ed52LddvNVswGPpG2PSjCWsmvXu9t7PEmVreauL2b2DkGSEvIMw1OdC6q9SLxdA5f0qaeUXYXAJX7sGwXCo05Bwq4dG1KqElYfM7+LMr4afrhfNvD33NHiKWSdiMBP+z/swul3znd4qvvRBn7mWzGwufD3SymZK+tvA8IVwwJ3dkRtrPqfkf2lNCV+5lm7kuHBjNQyXUzp15Otrumh2sCU8CCC+CCeftkQ68ILL+0C4TWvSKC+ptK6/tbStIz5yKKEzC1DnC9mA4p2vg1JqQQLhuO7V2bW3+/fyVrYAsVKIJm+rDvFPaqf3mhABClkz4SquZB3zts/DZV7vckZJowtc5UruPEFlvDLuchbIJyZyKDzF9mvs/ZSEd0ZGuPist9IymgLNQeEe6cOjcNws/XS/kkAgXzEiPzpd8LY6RhJmF9ekZhwkvGlk4vfQEIbLQD8LqKCcveHxPef7zg8dVUxAuI+TqUUNl+/1lG47i3z5eRh9CRBYuIiwA76/T8NH5PvL8HjZN089l+62eiH/fhxfv768JMQvXXhcafevdlPI7eLnTe9Nq005FNx+Q59ZrflfKQnZ+UZGvS8j69HZfUZzQgOG1dwyGddaXf//pdgfYFmVhfZLUYUJelZDfUrB+kNabYecG4vI/eH/lu6E14QmEtue/0ywebMn70NYj7PSiYzVBZOHahPz2dIWJB/h0CTkdSt4+PC8+OwPC/yo4cAywSzj80j48snBlQp3FEy2fGgv5MPyiXleKLFyX0NymBN/SsEM4lr+9Sy80Cz9bL1SrEQ6OZp001OOEx7EXdZ8QtM2M1PGS72qErP8Q7Kdhm5DGX8VbZ2H9xhwmpLUIs78Iu6NhZyyc6II7abjFWOg8oc2tglaEpz8Fe51im3BqJsvIwo0ID38TJqOEc3MXWbgmYTpDg5cQtqmQhWsS6syuJ+W5hO0HN24xIw2XcHxdMNKTzibMkYXbEM6Zz3Qu5GzCVk+KsXBVQtO2upMx+nSbmprMJow0snAp4dVudyZrqoNsymegmepp9p3BcHosjL5vt281MQtanIUxCOcQPpcVrS+7Mr1JTvuyvxOeq1NPp2w8dxdnoc1hBZ8I/732v2z63V51d3Q+80b49XiheVtiNvAgtCNs5pjzXvOoNpy7Z526m9/RBGFzzKJf8khAuJQwsyOsyN9vge/0i3p0LPwyrR3zXl+qF4+F6fDm3saEn60XWhA2NTw9uyeNcj02RPZ/0nW8Pt+vW/HiLNSjhwYmCB0v+Vp8lHSo+5tsg7/semSLrUvYHUC7X7jXPEDMOgvJ+jOU357mC6H9A2U5G3qIQacKlY8Q9uh7afi/xVnYPHhv/mCovSE0yu73vaxW5PqPnbd8eCx8W3l30/D/7J0Nkqo6E4bRuICB4wKGfC4g3rAAR93/mj5AVBDQNBJId15u1a3pU+OM5pn+S3cnjzdARvj8+yEMIggxpMruhhLyD3+/6tPO279hLfx570EPMyAcbPCXrIWdvvrvTtFrG8V8BOFl3InVL5vsC1smwPlqZiXEkGZjZT76Yz5roXrvQR92lu4Li3etrLINaUb/5B+jwg5C9R5hsh0KZOkRKfnsRJFa+ENGaG3nxuRsghZ2uwAuk7Wwrc2uEY0MhO3WXOqAaD2crVoz2pMQJjMh3EELaUpYTfg2v3OfNOm6mYYwGyhS0RG20xNHhCYVpoUHihIqc22t/L3qlE3xhZ145v5npCZ4tiKLXQsvhkKwW2No4vhsYJ/loxZ2EP5O18LW4GKsvvBAGfHtVdzr+sMkQ9rZ1Pn9QgtN9FpI2ZIb6EMsGU70hcdPCB2z0vP64cwq9cJJEelgQ/fJmEm+cDApn4BwQkQqpORLzwtHhtNyNVEL50E4IS80MhAa+u6MPY+1gXpC6PS2LN17HuVpods29/iE6LSIdCYtLKJFqJJWgnehWqyX3sJpvjCZQws7lYrY2p+o9cI3Q77TDKmZQwun1AvldLApUj6lHOYLaQiTeRG6V+0FITxS4hmHOW2iL5xFC59+2H2HQhBCWgebJmqhWiYindLBJqcVmNJH6mhHF88LJ/WRxtnN3bOj+zL+u/55RejyScLo5mYxU/GywZ2rquBr+6fLEnzhLHukmGxyDwW63fXK9Co95Hrhf0D4PULCfGHxsi36VM+/iYb0c7GJhBAjos7f+up3XqaUCAg/lnxdPkkYU76rjcUQ/oQ7KtPtrrfFNF/YbbxIvtRC0qx96IdZekGYbMfVo1PBIOSF7QDp9K0WUk5CDB6hl5MQx6aXeiWMpftIcSrwJITqTcLh3pB/nAUhTgV2Rtii1NvKmobwc0M+tNAXwn7ANKVeaLOPYzEGWrgGwpGI9PIh0TTQQu8I32rHZ0Pae43LiCi00JcWTkH4NgTSXwxqQws9IlRvj0vYDW/LISKljCLM5wvNZ1/4Orrx0tB4SaCFbYTGA0JLj0i/PzrIky+M9BbRTmo/CWGb4et4zTPTXEILY71Re/suQ/i8R1rX+e8lqt4RbCPH6EELvVUqXkOTjXbwhTXDWhH7pf6fRbXQA8J564WpHy3cjLm1lx7hf28QVhOltn+S8FdHyk7RwnnW2V/J1xPCTvzRubHObp0RVks9OBuVLOoLg0d48I+wPRhsdy69M2+f1jtexBcGj5Bw7xYBYTeG3NsRgm994djzYxbVwm2kCF/6SPfWGmNKx3Z16yN9+1ySRbWQAULlBeH2NTKp/vXq2gr87mnXHxfQQhU+wtSLLxy4dSsnzFQ42tFFItJYtbBboiVPNjnaUWjhTfznBWGy/WIsJs+c4lH4wkYLPSEsvkCo31zZdTHLamGio9VCM6pJuUMf6fiLbbKsFpp4EY5PGP44dLBtXIIZaOEdofGCsHPCS+dxaUIc0+GXpV8gIrUMEB48IRzTpItD1V6NvzhZWAuLiBGO3OZ7sE59pMMv3htKp9wsWnj0gHDmeqH2hnDwKthcGadubjX04t5Bmgto4XGudfZX8vWI0A5Yw6rw5NSQP/Tii0nm0sJEEkLtDWHv4sESgnWeqegxHDivaboWOm/OsEDoCkSRB9WVHTzYeXCDrT9T0TsVuv+3RkZ4JGvhVhLCZ8uE81kDyrTbJu7Hq1+fz2VcC6trogZe3P35wz/qc0OIs/doukilIEzICKvnrkuHU9OSVl1Z8XjeIKzOX/x7qKAyg2r+fFygPGpgwhC669RANudgTE2ldqcWLmWsLf+5/J9J3iKsEO2qFytrx3767QdVFeWIEf6SERJapir7q7rqNhY3DE/F3BSM9AsdmgncEeYsEBoqQvrFW8o90ni17TPRm/gJjDCE5wn9X+7R+wjCOX9HQbcjLBC6G5XtQDo327MEQvoH4KGF2nkJNtMtaRAIn5sK7vtrPBCSd+1pNzcFg7BV/nB++1seCOk7bPpgLTtfaM1gI+MH08sD4YVuiPQhUWV6p2aMF/0hNNU7Ve3tdUIE5wPh3PVCQutFe1463/9dy/8UA4S7ffleO0cSu4dj+Yzr7K3kS0A40K57YYCw3w/p3kWaMkHobA2NP4QefeF/b3tRP+QUPBASLjo4c9TCHkLCNSPiEPavJGSphe5v+sjEkBKu3eg1B3LUQsoNOUwQEiZjeqEBR4QnguMQiNDwR3ggnfwkD6H6Y+8L3ZWQEcJfwkq/eEN+WnigbA3mbBBStsl2zLVQmegRdhsL/WjhxR/CE+WzGjYISeW/bnMoN0N6IlVYjmwQaprJa/fo8kKY0whWfcBcECoiw2fdhoMv3D7biYkf1BPC+euFeUbthVG2acn2VGya1xfubu/1pCyxulltCfMo+eYpuZ1JqV43dsAl38nvVTNCSC++z94bsUD7E5k9I4Q+OtLC8YVf/VUBYQi+MAqEWWAIA9HCLSeEClo4HJDyQbj+mqmiNe4ZhhbWRwFyQZj+BrBgg4Ojqz6aFUKT4OGNMAfC/lOwQpgC4cjeKhuEmQKx/iY3L4T/gKz3nHkZ0n+wpIPRjBeEPuqFfuZ2mT+3GW0uJV8gHNouYoZQA2EvIE2ZIURI2tsh5YbwAmgvCP+4IfwFtKFohhVCOMOXhx1C7JK+PBt2CBHPDAakrBBii23IjgIh42gm5YcQ+zOdp2CohSgZDmyv8UKIeKaT2G9TIBSxvcZmsun2C34Arh2Q+lpnbyXfFF1sHSUsWCLUINdO7DkiTOEMuSPMUG96GtKMpxb+D86wVWliiRD7M+3EniVC9M+0yxQ8EcIZthJ7ngh/Aa9B+McWISzpI5phihDxTKtMwRMhdrpbZQqmCFG5v9nRjC9COMOHK/SJ0F8dC8n93RXOvrALlXw1hn3vWSFnhEjuk+a8Ga4IUfatXaHmjBDO8O4K2SKEM3zcu80VYYrMMFGaN8IfWNKCOUI4w/upmmwRwhneb0rlizD6zNBmzBEiMzSaO8LoneGRPcLYnWGTFXJGmP6LWw1N5h+hz3ohpn0f071cS74ap7FtJSCMOq1QmQSEUacVRktAGLUzLEQgjLoVcSsDYcTOsEwpJCDMI7akRy0DYbyHCFVbMyIQxrvH5un+5RUQRlu6N1qKIY31eNl6i1sGwljrvr6uDV0BYax1X6PlIIw0rTguhNB3vbAWVZx21P/CLlLyrcVLjGpoU0kIo4xJvd2ztQrCGC2p2orSQv0vPjWsJ+wFIYwwJm0OVBeDMD5Las+pMITxZfc5EDIPZgpxCGOr3fu81WAthJHFpEbLQxhZTHoUiDCumFSdJSKMap/UaokIDzYiJdwsiXCJeuFNjCgmVZnXlVyh5HsTI4pJ/Z7kvB5CHY0l9XwM8IoIozkKqs7rRSKMZpPN8zHAKyKMJjXcpmIRRqKGtRIKRRjJJlshGGEclrQpUghFGIMlvVcKhSKMQQ3vV9hLRRjBJps5y0YYQUBz77iQilC+GtosFY5QvBqafHGEi5W1Gkl4QFNVCpdZyRVKvo10ka2GJsukI0xz0SUndczlI8xEV35VlkaAUPasYR4DQsk7NGoTB0LBlrSaKYwBodweGrXNI0Eo9kCvOq2PAmGu5HrCSBBK9Ya36fo4EAq9+GCpU0qCQCjSkjbT9ZEgFNmAYfKYEEpUw3vDxfIIF64X3sRMoBoWq6zkCiXfRpSnhvYcGUJ5V22bPDaE0tL70hPGhlCaNyzy6BAK84ZVThgfQlFquOhkdjAIJanhspPZ4SAUpIZFHidCOWp42x2NEaEYNVx4rDcghFLUsNkdjRLhr5XjCSNFKKOLxp7TiBFK2Ga7dcysiXCdemEjSujON+ss3eol37vIf0imvmcyZoT8L4k1OnItZF90Kj1h7AizH9amVJksjR4h775ge86BUHOOaOqEAgg5q2Hdgg+EjI/OV8ccCGtxz5ShKrIUCG8i0yOhzDkFwkbkaUrvp1YCYfWcDF8lBMKbxNCUVikhED5FfqZUFToNBOGq9ULGzd2lGQ1j6dJAELJr7q7OJwHCl+Zuy8uMrti+HSpCXn009c4aEL6IueLD8NYvA4SvIp+ShbqdMAOEPfHCRA1Vc4Q6EPbEnAlD85cD4Yh4YJFZqF2eAuGYyCGzeG7LAOGQyGC/+7E3CoSDog4+s7B/GgjfIgy9r1QlGgjfi4H3lSqjgfCTGPR1MsrqABEGUvR6iiFnh7eMMJy1Cqnk2xbDzQ6bjBAI2XZD3TNCIPwshpnhq1D6nTgg1EGGpSbLgdBdDDCksVudAqG7eAhul8ZuNBBSxCw0hvZPAyFNzMLaaVM7DYRUMaidNpVoIKSLAYWl1mggnCJmocwdqkID4TQxEFuqdhkQThWDsKWlHwTC6WIADEM4WYbFZNOYuPocvi3CXZxQS76vFeB19fDmB4HwK3FVW9rkg0D4nbgiQ2U0EM4hlvmhWc8PAuEcYpausudtHvkgEH4tZmvMHtpNlgLhfOJBLewQld3oFAjnFPOTXTaQueoUCGcWfxY0pjbJdAqEHqYPl2Jod81vBsKZxYUcoioJMlgNlgh1frVLZINnJqvBEqH+8Z7l19kgEPoTdZ5Yv5HoltFqNAiDrhcOiSdr/XnB5Kx5rUbwJd9B8XDxxNDa631LDwj9ivmPsT5saJFqhqvBEqHW2WnuHFFV2bwGwuVE/ZvMGptas+P08SUgLKOyvZoNYuUENRAu32Wa75NZzKlVm8eZKUC4tDiDOS1/QK6ZfnwJCMsssbSC5gsLapJ6Ow0I1xT314kQlbW7a9b05wDhyqIqHRqRnzLqL+X6eeUhzHJdW0V3fuW3nhn/yQrUwvrL2jRaB/NZfs9O8/68AhE2G/jXa+kYR11jRc8W5fdU+ztAGKxYfrFPTPUoq+onMZXjq77YNN8l6fMGP9k0Rcwb+dBSwKqMq7NMxgfkXfKliI9NcakfUD7CWEQgBEKIQAgRCIEQywGEEIEQIhACIZYDCCECIUQgjBqhtHphfCIQAiFEIIQIhECI5QBCiEAIEQiBEMsBhBCBECIQAiGWAwghYrIJIkq+QIjlAEKIQAgRCIEQywGEEIEQIhACIZYDCCECIUQgBEKsDkeEqL2h5AsRCCECIRBiOYAQIhBCBEIgxHIAIUQghAiEQIjlAEKIQAhxMkLU3lDyhQiEEIEQCLEcQAgRCCECIRBiOYAQIhBCBEIgxHIAIUQghDgZIWpv/2/PDm0AAAAQhv3/NT/MkVTOUonLVyKUCBGaA6FEKBEiNAdCiVAiRGgOhBKhzIS+N5evRCgRIjQHQolQIkRoDoQSoUSI0BwIJUKZCX1vLl+JUCJEaI7vHHDpE80usSmaAAAAAElFTkSuQmCC;" vertex="1" parent="1">
          <mxGeometry x="265.5" y="244.76999999999998" width="74.5" height="66.23" as="geometry" />
        </mxCell>
        <mxCell id="7ci9IZOPOK0UTeNCpRx0-50" style="edgeStyle=orthogonalEdgeStyle;rounded=0;orthogonalLoop=1;jettySize=auto;html=1;exitX=0.25;exitY=1;exitDx=0;exitDy=0;entryX=0.75;entryY=0;entryDx=0;entryDy=0;" edge="1" parent="1" source="7ci9IZOPOK0UTeNCpRx0-39" target="7ci9IZOPOK0UTeNCpRx0-48">
          <mxGeometry relative="1" as="geometry" />
        </mxCell>
        <mxCell id="7ci9IZOPOK0UTeNCpRx0-52" style="edgeStyle=orthogonalEdgeStyle;rounded=0;orthogonalLoop=1;jettySize=auto;html=1;exitX=0.75;exitY=1;exitDx=0;exitDy=0;entryX=0;entryY=0.5;entryDx=0;entryDy=0;" edge="1" parent="1" source="7ci9IZOPOK0UTeNCpRx0-39" target="7ci9IZOPOK0UTeNCpRx0-38">
          <mxGeometry relative="1" as="geometry" />
        </mxCell>
        <mxCell id="7ci9IZOPOK0UTeNCpRx0-39" value="" style="shape=image;verticalLabelPosition=bottom;labelBackgroundColor=default;verticalAlign=top;aspect=fixed;imageAspect=0;image=data:image/png,iVBORw0KGgoAAAANSUhEUgAAATMAAACkCAMAAADMkjkjAAAAsVBMVEUAW5v///8AjscAjMZJptMAWJgAhb8ATpUaY5/5/P4AV5kbaqQAh8S+0OFAd6tIeqzK2eZUh7RVgK8AhcPc6fEocKcUaKMAOIvP3urr8/gQXpwAU5dEfq8YjsSq0ug2ns7Q5/J1uNuUx+Ielsu42uzU6fTj8fhXqtQdfbSDvt4giL2kz+YbcqsferFksNcvm82eudJ1mb6Xs85jj7nd5e17nMC0yd0AQY8ASZKKqcjF4O/932sQAAAI7klEQVR4nO2dbUPiOBSFW7BTWhiHWRSFiu+ijjOOyqzr+P9/2BZRmtzcJDdppTTp+baSLe0zpynNyU2CkKTkesd9XdNYhAGt2fGo675Gx5Uyu+j4oFmVzC5HdV/ORjS4rJDZSbfuy9mIuifVMXsd1H01GxLNaCRmntiMajQKM29slhvttSJmO77YLDfaTjXMrvx4aK40Oq2E2bU/NsuNRngZ0DO78qc3W2pwVQGze59slhvtvjyzOejNvrglEdpoXprZGW+zmzRySOl0JhrtrCyzOd+bzXqBU4puRKMNdEbTMRNsVvdVVqwp0qPpjKZhNulyzC4csxlqtG53UorZLX9r3kR1X2Pl6iE3520ZZglvs8647iusXilmtKQEs3PeZj9c682W6omPzsG5PbOkw9ls5qDNcKN1lEZTMrsDNnOvN1tqjPRod9bM3O/Nlkp/ID2aLTNoMxd7s6VMjaZiBgK6vpu3Zv4bTTRa58KO2TH/du5ob5Yr6iNGU+TDCma/+d7sp7PMTI0mZ3YJ3s7dRRZEPxGjyWM7ObMTb2yWPzqRIaHf5sxe+d7MZZvhRhtJYzspsx2PbJYLMZo0H5YxOwW9Wd3X9MlCezSZ0WTMgM1+OW4ztEeT5cMSZlc+9WZLRb8Qo0nyYQmze89slktkJovtcGYwOZnWfUGfL8xooz0DZsBmDg5pI0J6NNxoKDMPbSbp0dDYDmUGAzovbEaP7TBmE7dzYJmQQe7OCIvtMGa3jufAMiFpSheL7RBmIAf2xWb0fBhhdu58DiwTMR8WmSUDx6cbyJUiU6sGYmwnMvMhB5YJS1PEfFhkNuOfAP26r2OTwmI7MR8WmPkS0OEiGU1gBgO6uq9is0LTFGg0yOzYi+kGUpFiO8jMlxxYJqRHE2I7wAwUas786s0CidEulcz8yYFlQno0GNvxzF79Sk4wEfJhnplPObBM+nyYYwZt5l1vtpQ+tuOYeZYDy6SL7VhmMKDTD2kXVTDaBpH4F7UM28qPbYoMnYhwKmF2bRrQTXtrSfgWDXrCH3RK6U2nqoNPp1GcpSboNEZjmMFCTe2h469h8q7wa4w0iPbXDZJwd3nW8bD4i0aTgzm1aTjMlt/2TXLsyeTw4XH6klG7ZzRNuUKZXZsmJzmztVBm6T7zr7NidhhSlRxoSmgYHcYrZirNn/ZjKjXEaEz9cMFsbtybNYtZruG3mHSLovlwEdsVzMwDusYxy09zmlGgYWWdRT68ZjbnkVGSkwYyC5MFBZq6rHPNzKJQs4nMwpAEbSouxFXkwx/MQA5MSk6ayYwEDTXax/l8MLu1GNJuKLOEMiioiu3emcFCTVJAZ8PsD5lDeKCuomS1Z8Is/IOdKzx1MbZbl3W+M7MK6CyYReM+q3GfabAAn6V9/r8XTNsj0DaCzNYNxv3df5+BYxeEy8OMds4yS2Y2FXQWzMArYcq+un3PwHsiaPsP07YPlqwIILP9okGaxekj59k9gtEixGjvsd3qpO0KNW2YQbHM1P/6HLN95GAcM/BtWcaca+5CgtHksd3qpLtWOXCDmAUR15M+Ex6d8rLOt5OGAR3xtaxJzPhzodycAZam3K2ZWQZ0NTLDTlHNLHgZMh9TmCE92iq2W570pWUO3CifBdkT8/GYcI3SfDgQbUYe0m4Ws3Sh/Bj7RvFN/c1oQYlCzWbdm+kR/bveDyiJ7YISAR3H7L9Y1Mt4m3zGMqP82MiPiFfbBSUKNVlmyR6qbWL2yP7/NGZ4WWdQIqCLud+JOtXNLH5mPqZeIpqmBCUKNRvFLAqY16fJC+0K0R7tNDAO6ArVyMz8GfDC2gx9YqFfiqUpkJlJdt4gn6Uv7K+z8JEaQOHMHL03mU5+ObCxy411JtQrlNybzXwGGNyb097uXzDS+UAKn5bCnwEV/dbYMDOtzyaFhOHehByoy35rVPObdsPMtD5TiZQ8vR1R9pu2mnenyRAT24ts1mcKPVAfmop3J+u52iyzIfruxCLZFmbPVGSqd/RKxoKG6LygT3vftL83H4g/ZzVjQVWMOW6Yma3PkgXZZfKalLeTtqxxahyz5CE1mCKsHtuuIENpwL355y9tUtDH96kzlAqyui332d7Xx3GcGU2t1WV1YPFei0x423y2OPrQ4vtuL8tiowm1ASETLj/3YNt8tp+la5lP3Q6Uk1yqmuOydcxK1oOoli6XzKUiLXawzfdmWWaEuVSl5+w55jPSnL2yc0MdY0aaGyrMQSasReXuvUmcg1xyrrtbPiPOdS9ZU+GUz8g1FeVqd9zyGbV2B9aI6dMUV5kZ1IgZ1yI6e2/SaxHDU9Cj6Q7tKDOjmlfTxY+zp2LkH4+/eodFNIDdTsGUaXCk/rp0t2g7xObcRWyDMoupmNRWG9fwZ8XQv2RkigkH8IvQNiiU6tpGBgeTy7CGv10rIjBeK6Jdk8RiTZJ27RvztW/aNZYs1liynsPtirC1vGahmlm7ZpxoM92ace3ahIK0axO2a2AKNtOvgen3WqvygE7JzOs1fUl7viJrR7u+VbVc1mtHt2uUc8hIa5S3a+GzvRlxLXx/91wQbUbdc6Hd26MQeW+Pdg+Ztc3OMDztXkUfKrlXUbsn1rvNDPbEssiHG6/Se6+1e/wpbCbdS9KfDZhXqmAvyXbPUvM9S9u9cS32xvVt7e0q9mBu9/q22Ovbq3y4oj3l7cs6mydCDkxj5lE+jCYncjAKZt7EdqSAjsbMm72eDG2mZOZLbIcFdHeWzGBZJ63arnGSF2raMLMr62yaTG2mZgbKOmdOGk1RqGnDzIt8GNmtGsmB6cysyjqbJVWhphUzq7LOZgmzGRbQ0ZlNXJ+IQM2BDZjZlHU2SlgF3ZmGiY6Z47GdulDTkploNPImcg1QamMzPTMQ23W+uCXRZiOdzfTMYGznumQBnREzuPWf42ILNa2ZwbJOt8XWA5dgBso63dZIkgMbMoOxncuS5sCmzF796dGkObApMxjbuSt5DmzMzBujkWxGY+aL0Wg2IzK79OPRqciBzZnB2M5RqQI6c2bHo677GilyYAtmyfWO+yK8ArzpfwUPPy24517BAAAAAElFTkSuQmCC;" vertex="1" parent="1">
          <mxGeometry x="190.62" y="193" width="74.88" height="40" as="geometry" />
        </mxCell>
        <mxCell id="7ci9IZOPOK0UTeNCpRx0-40" value="" style="shape=image;verticalLabelPosition=bottom;labelBackgroundColor=default;verticalAlign=top;aspect=fixed;imageAspect=0;image=data:image/png,iVBORw0KGgoAAAANSUhEUgAAASkAAACqCAMAAADGFElyAAAA9lBMVEX///8zMzM+hj0oKCiNjY0uLi51rGRfmlorKyt2rmNxqGF3sGJtpV9dmVfF2MR5s2FnnmJ4tV94eHh2tlxlnlp0uFgUFBQiIiJzuVWzs7Pw8PDZ5di2zrRrv0dal1LR4NBKjUZvvE6qqqoPDw8bGxvk5OQAAABXV1dEREROTk7Ozs7s8usrfimvyq1qamqYmJhXnUubvZjCwsLa2tqbvZns7OxxcXGjo6NWmE2GsIKqyqZvo2pYokmFhYXy9vF7qnecwpJop1K617HT5s2HwXGk0ZRiuzlswkZjrkpOk0RPmUEzgjBQoD+rz6VRpzzG4cElfx+Ns4xY5WKcAAAIh0lEQVR4nO2ca1viOBSAe7FbxrVMV1kYLRaVKmhlREQFcWCci5dxdlf+/5/ZJC29pEkbZkaJw3m/+EhraV6S9CTnoKIAAAAAAAAAAAAAAAAAAAAAAAAAAAAAAAAAAAAAr4O9dm/Rt/BKuNC91tmib+JVsF5SjebF1qJv4xWATKlqqXmy6PuQH2JKVfXa5qLvRHZCU6rqtY8WfS9yE5lSjQNQlUdsStVXFn0zUgOmRAFTooApUcCUKGBKFDAlCpgSBUyJAqZEAVOigClRwJQoYEoUMCUKmBLlNzG1tX4wx56t8/F0LH7tzT2SkBEztXK4J37lBXBZ1VWj+v5c6OTxx5s3qw8dwUv3VK/m4daLmNr0dEPmbfaeWiMNEEsxfdp4++aPPyquWRY4eb9VNdQgyXBRaOqo7eGjwh/ZS7Pf8oyoCXpRiunzxsbbP5GpVdMcTPyia39ohpdGPSUWxTa19b46u49SVcaJLGpMgNfOy4j7X+43/gpMrZlm5eE099J7TT2+cPJdWKZODkrJM2qyFTHseYnGBC3KyYh/3X7398zUasWsVNxBnXvpo3ZN5ZA11dPpk71DmYoY2I0pVdnT1afb7XcJU7hTIVd2g3nyeTyWik2dHXrZk4zmuixFDPvcxtSM7HT1efd2dzdham2tQlRVmNPVSrPEvjTD1NZ6k30funf5bI2fh9zG0H1//OV2e5syhToVUVUZ0NPVpk6P6RxTl5kJIPGRqYuPGDZz7g+T7vtfb++2s6bCToXHYDJiOGszxhLP1CxC4d1GtbXgiOGkWdAY1BxjdvK4izoUw1TUqVC3GkWX5o0lpqnik0sHi30Ktgpbo6rV/fDkzs4u21QlUrV27IQn94o/g9jU1kHxyaXWAvzEiJjyYlODO7apaPy5kanN3NFEm6oWn2xIZkr3avRLCVPuPddUoErLMVXKzIg5pnSPvg25TKEV335mbo1NPbgux5QVqHL5ptCjYYWejLimUFxwRMdWMpkymsGSlHpeJ0wN3Ps7pqlQlcY1RcKNcJ1cZCp83m6m43WJTJWibY6t9eTnGZm6ehgMXHafqrjY1A7PVK0UhrDpDss2FcdwJ8lOKI8p4zDx+l6iQSlTg+s7timsSuOY0hPLostEf2WaqpEtvPIQR/znh9H9GfJECbXkJuN54tZjU9+6SBWnT7mWucMxlfoMlPfxWzJNeeh3Z2TZLt5PXZl59Q73lYXCM5W89WrCVLc7uOaYci0NqXosNsXYyaNM+Ts2whxFpqLRuzhE+lTaVHewyza1Q/g1pixsyp6EpqQo8/8BU92H7Rc1Jckm8Xymvl9fI1Ha/bObcokpMvpkSTzMZeofZOq6i6ZtNPye1ZRyilSZVhlFFQeyJLPmN4VEaddsU5qYKYFnn+JP3P7ztnxe5jb1DZvSOH1KY5tS9cSe5V5RPGUEw22OlOuLMLcpIkq75prS2DG6GoaNR6ndPXaMLskUTjGfqX/vgy6laRxTGscU3rPcz6YfeCvkUlO+PN+cpr6HorQux5TGMYWXvSsnVWrHnr/rUpyafWnmNPUwM6XNbQq3PvNKzk5efmr25eGuZhJ7uwlTkSjtgWPq1+15Gs0LmaarVmKtnvoM23EHiEz99xSb0m7Ypp5mSb+ewIZvLVqlMDOOUqxiZkSmalQonEhTRqaUztNjrIpl6vExTmPlJY8DvHZ08hk7iSXBynhGaEr3sqFwlPqOTSnjSdytbrKR51MqWjzKT+HpXspCtjIisClLWQIxVWp+YB7sGTXKlKI41vFMFW3qcUJHizlpYUYg8IGZzJblfysgU0Gow4Y816vpw/XHcAgOUqYeTCf797xSA3ZwSW+zh1TXf7qZv4BWKT/lj5tapUX2w+kqYWrAKws6azFS7tz37GWLbvI+yJdkvXCtfnZ4kHnNn5AhOIhM5ZWa9UpU6/VqznvS05Usmy4/TGMHuwpNFZUvniQnoMJyqOR0Rc36r5PO8aO2g01V1qgas3qfHomJ0k2veCxF05UuZZnnDzB9elxbXbuhtJRNDF1PHGaEa4ZQKorUCEpUi/fT+KPjm4/pyMCZWLZpmbY1oZ+Em7WaLh5z73nN3+ufVDnpCWo8dW3bvfKv8I9pJro6maePSPHAey46LupMJPfrD3HXEv36w7LRsE3bHM1m98YI/capJ15ufDJBJWf3OpmuCr/+sGzgtJNLfzGrj1+ULMWyYHjdh+poDcbKcKkgExRnSgqOEUON+tjP/37N707HtU2X/5jDD0RyuOOcDpVlfhyOXdvKhE6pE6aW7Y4Vx3H6p0ttqmGZ/O9hBdRNq6GMyw1nqly9yD3JSSOxyHOcoHM1OtPp9LQ+m8DL2BQafYp/JVsO/SVJmHIGZEJCYsgq2XRHweMwMIX81ZdZVMoUGYh1NMNbyJVr2faAdKvQ1LKTMYVE9UlfciakWAxMhdCmGpY9nB1DITp2BqYItKmyaUbxZccd4GNgikCbctDo68yeej4ZhmCKkJmn8HaL5drDq3I6Slh6MqbGQ7R+wYX36AkY7C6AKULGFPrZGdouChSQLZjRYximCL5TxrvqEwVMhdCm+qfx3p2D1sYKmAqhTaERF69ZXDAVQ5s6Nc1+fMy2FTAVQpvyUTw1KTu+7zeuLJtsDYMpAmuFjJfIeJFsW1P8OpgiZJ99/tANtl1cOzgCpgjMKMEp1zv1xixZA6YI+Lt4oSqHvVFcDrcUlp5hVNmCulfWFK5+sYaZl5cSkiqe+oo/sjOjLKh+WeaMTApc2WJbeDfYoo500OLPHcLQi3FGwXo43aWC6pdlT7HTNPrD4VWq82SrX4AE45msMRS65OH0rXD2huKpfJyw6iWv+gUIIH3JhiJPAca4Oo9ROAxkcYajIUQGAAAAAAAAAAAAAAAAAAAAAAAAAAAAAAAAAAAA8vA/HBUnrwruDs4AAAAASUVORK5CYII=;" vertex="1" parent="1">
          <mxGeometry x="490" y="195.14" width="127" height="72.69" as="geometry" />
        </mxCell>
        <mxCell id="7ci9IZOPOK0UTeNCpRx0-47" style="edgeStyle=orthogonalEdgeStyle;rounded=0;orthogonalLoop=1;jettySize=auto;html=1;entryX=-0.104;entryY=0.506;entryDx=0;entryDy=0;entryPerimeter=0;" edge="1" parent="1" source="7ci9IZOPOK0UTeNCpRx0-42" target="7ci9IZOPOK0UTeNCpRx0-26">
          <mxGeometry relative="1" as="geometry" />
        </mxCell>
        <mxCell id="7ci9IZOPOK0UTeNCpRx0-42" value="" style="shape=image;verticalLabelPosition=bottom;labelBackgroundColor=default;verticalAlign=top;aspect=fixed;imageAspect=0;image=data:image/avif,AAAAHGZ0eXBhdmlmAAAAAGF2aWZtaWYxbWlhZgAAAOptZXRhAAAAAAAAACFoZGxyAAAAAAAAAABwaWN0AAAAAAAAAAAAAAAAAAAAAA5waXRtAAAAAAABAAAAImlsb2MAAAAAREAAAQABAAAAAAEOAAEAAAAAAAA7UgAAACNpaW5mAAAAAAABAAAAFWluZmUCAAAAAAEAAGF2MDEAAAAAamlwcnAAAABLaXBjbwAAABNjb2xybmNseAACAAIABoAAAAAMYXYxQ4EEDAAAAAAUaXNwZQAAAAAAAANQAAAB3QAAABBwaXhpAAAAAAMICAgAAAAXaXBtYQAAAAAAAAABAAEEgYIDhAAAO1ptZGF0EgAKChkmNP7jBAgIGhAywXYRAADDDDEAwzDGUX2kOc5HvSPzEk6RqcOCM68EneUjnEmq4aCE6Y2I3By7ZHjQ4pOj98YsWSBAMqlGDTSXsfctgIAhV7rPlFPhXp1wfyi/ZRRSkBldTLpnPs43u3NaZjEYrKHrn9Q0gJOAtkcAQtK8DNsm2xM8Pi0GlnwddWRoKVrqmm7kdR6AL9RZ8v40fOPIvg/tGE8TfW/WLWM16Iv/aL1M85xyIBAznGBgWPNx8JYod0rZl+EProCozRKmztj9k4pBsYJzrGcBWjdO68z/CVj+3312j38sbrmtNYEYFyeszY7FVKONDUzZqjfLTYRk5gEf5xt1UO0ryUNCz77/XUarqYfKXvZU0RBPdWtsQWrk4E9M72UWYUtD7ZbB0ACtSKVgqfS/Wvl3wXU7LCuW95ThCi6z5FrN/GttPizllFv+VeA0fPV87YT91KLTuChPOsMU2kjf7LGzCHcyaUnuSr2PFI7Xdkg75jp6k6OgCbvyyOrM9O77xoK3JrOzwNcdXrxEiHT9Ai/jsOXg/TKhJgeyPgZ7Oqb0KCCWvTGZz7FOUzS5q6pHZoDmL2pe1oPNunH/6xN96XndoMREKRd7ovyJCbv4FsewyhT3zmS+YAWC+N2WO+rPWWYy4ex3T9G7JbOzAvhv+0XKVDQY2Xw0qsXHC6xnx8NGLTtLtd1IAlx+WGVPQxxQ6Vkr3RsLwqUz1udpUyC5TLfKMKzm3j+8xwPVoXM+987fNGLoqtw8JFyDeYKiI37vUMIr5PP/4F86S/PCNTP3dpMoELr/46kS/x1JXThw6Lz2HvZYPQgV2JzBo59fe94vGwjCRmLIAYPsdcvLf+Kr8u78qbTmgAc3bXR2aJZhoEceFmJvWe6eePAQvMpjxKo3LJ/4ILF6G321AJFXlrS+JqOHRiARFf9Myks9jlfyEylyK+a/P9LcTanLOJM8UwU/RV5U8P+sHUxYBs0OopEU9DJab/slbXrLA7D7iw6zzIdyVMhvQ5bhmWmHRPG1PydJab+P8+bMRUFlv8B+xvvZAlpkAydxHW5cYAjRgjXKdUaZwk55j9bjhfpYNNJByQ6+MezcycrY5GXHbHyhLZbFDZ3rBJAV7LMAkBI3s1vV9m1Yld9SGTNCJT5ZYHuw9gMJp22T7ved0NvlrutJyVXxg6qgBjI6gfq9ThaQ+K4N57o4QX+PhKpOK6VB3iCLELZoL1FRoGEvfuQGSPyeYcDPx8fdIg6opFatsptQg+mf1y9CFCudpRnwHBIqa4GfIppZwkQx+kjE4SwRy7+op+Ic3PNErTgo2kz5uL2G9Dd6czPNvnJyQz2hGQrEL9lhEbsbR9EDdrhx7K4RUBC+H/7mfl6OpFZCdLreLb486639oZzgOLtL9J5Lr4RFHyX4rhBdZ36lZBEoNHDo2RQbbMRtozgUgXNVvEb2rX3t+SCt7kc1dRCam3vPUBFCbH1CiK16uivhMQNPKCYO9ktpVvpsV8O71canSJwsEOPqPMzfwUEq4FYtvTPph725wVprb0wEoc9zqK1qfdRKVo1UocBTmAH6jEIefZs7VgCNZcWQTf2k8msVN85qb57Em0XHIyWqMZP25mpor9LA70wYCldSR/EOMRU3oXqjT2UqPU2VMM8gvggZPCpv7A95h3VPFaC/c6wScS8g3Yto3II9esl/n0RYJsJCXgMwgNCnj/H54gMifbBdXGi4v2xyFqvgl5g4IgU/RzNW8eYW+YQ8uh1bxSMLLpcBVevHh5B+NZA9uc1hp8+xeEHqIuwwMw3Tp+nr6iVmzPgkXK0cn7EbuM9AE7ClJ4AfUdlBSc0mtRTMHItIIfHHgUs6/CMQzRkU25g4p92kCdcG0AfBgbqHtPhAO9VcKJXTGVIEeS65anx9lVmdjsok+4fG3HUciITdTEHf5ESPXWkBB9XhjDj+++5q/5uNE/ZjT2BvUMN/2Kzu/Vuj+R4AUaAtMnBCabZ3AShd3D1VMX8EX1xPFo1ZO1KNrgl/FlwlfFqONkDl9IAU0U13hFWHOpq3tBS/SiOP1B4pTuICX1JZxVAbbFkq8iziOaWgKppTI5ovA6Bl8+jh3m7fHOnv+d+DtKCkRm1rz4RalEblJHPD7uhzJ9Q2C17MCvHVmH9PQuvjwZCDXURywQIpHLLMPcCHjssM5FgdzLYqfkb1stZOVmixX6m1lwQYfKWYb0g41RQkpm0UN3Kj+FQoQ42KkXONSg/sCcLIRBtdzzyCThTPKb5Tt3k5v4A3k+Zp7mXhxWeK17FrFMDjkq+fZzuP/Cqrho+cL+IeSgxeg6Hqwjggj+Unj0e3tqONBtU7lIiDgE2/KxE+A59HiYHhvLFsz98Wg9wIOBCgymy3Bs2wjNB/3wBHqRTJE5/mowXMuLPP140V9Tr2ci9p6sMlSwoE4Q6FQ+2pJENy8iZjbhNFgUDeg2v950KAsWBOwNpr66R0vc+zePe3zCDHpbtTZ5revlRf9MK2wQRI6xNvIq4Xedehn+PUC6cyGwUHCiELDvCmeH4d94q7rvzYu+dITCnMJj1WwMg+B/Q4UFZQlkksjVRzSeZRgpwWNL4tRT0C6baVwpAG99V9ty4MpPmpJqMELEAYXEF7tarR1DKuNGvMatotxh9GXxcyKYK+9Ah5DbuJL/AsIiGegCw8mnCCNDEECSjO90rQYgAcjub+c20MgaZWu6ATlBfsiY2AQ/avJUuGy601FhhtDjKkv8zL7LqR24u7NftVT2avdNPvy0t23lvb6vXH7PR4gj67FYbq7MGxXqhmq5F+fx3GXWQCzQNZKpShtrzsJtbD7qVRDVZtnW15kKFRCp4ZxbVOyYopcn+rDMH8Wg5b3ZZTuxpdeCphNm8KwroxBwUufEEMvT+RZRBzlXOZ4jQZw/LXmxnSNTAJtzX53WlWec1iuP+ptyTipI6hJlS5G95y9e6as8qQY1OhkuuUmzF4BxgFacHz6hY0bveD4iS/dZYrN8lqE0gidcRs5Q6j4TQ6ly44Jd7ggDSbpvfJBl3+DcBSZ4JLy2Egiy8/KekkS8Tjlh6Ey2SAxuSzuM6/I8v5/jIrquqBSa4ZbT9WDMx1g7W6SvIH/JhiTpYgc+c4trryyB3GGCE+h87L02dwjUfjTBOiy7ZWKZ80Ml48r6d9V/SAiNuzenMT3XjggiDwKvxKQUtzDq/vHVq03Pvpizz4Q2T5khbOUOnBwONZrZs+Kd6mGibj05G428pT+AxdyHlC/XCxhM7HFphpzXQwdVvI4/ZbI44n5Mp0j9tYgqkfK8SoLVfPHX+92Vv3IudDp985qQ6XsxgR1ZlCDExzV+115K52SxhZwM6fSIcNJAjUaw8IivT6MZ8LDPeRrZ0d3waM2J3g6tnRPN36nz/7xYKPYbfiBZ/2Txdg4GoP6f3Mz6z+feKb8Jx9NbSKOULtdNh7mWtXwFRuFYZcgZXpaEP54k0BDHh1S7ztU0axkOZjOuLGX6R6oIaUuPolvZ4zxMJ1WBzi22VaT3ce5CyGwR2VOWvlluWeZoI1iOAkUEtXO7VLp3CSuR5D4vhjh5Z1MMagVUXfxj4j6RwTuYUkXYTOrRfWpixCKRkio0f/rQcftknjrHngzwVIur/fR+T38RPYyBntmzcT2BJej1R2WfhgRCp9256ZU1jqOxmiAHqiNeVnvLM780v3SpYlsQZvIwdLRkASYNRHBHIzyaCImGd3loPPVdQs5gLTmRfCNcScknpgagMRHQuYpab4qqeZ2m3wOvidxyDK1iNeeqcftw0XWOC7QlCDjNB2PwjJUXbYRXRM9gADN+A81HRhsQsUDZ6phlTm0qqtD4NG2P0ewIsJOuhi+rJTcogF4yGbDFy56zXdRYJtPig9NE2lN0odgNUXL1iUKw7IQtpVDhdoEknYSGbh5J5lXSiqxbULCBuJolakeaYweb6ofqMiy6krIwMBrNYJNDj/h1vlbCXEQ2FWOVACiNPh+6T0pOZgSaoz21w1OgsWMc9BIaFvNrmAx8aRTCoUlPNZN1Mo5lcr3OVVtAqnUPZKTgTr5NpmLbLBm5aosx1G3ez9FuAdsYx25fZsaiWQc9uYsRh8tjE84WDBxhcYVSgM4AfCmZp9YMF/Q5NChOlxSQwlZDbUje5BuZsPV3eCf7U7a1JCFMdfDwf5XD7teJgb7QJuDSZbNe96NZW6rPqwIUpYF2oc1HEBxaMpqBcHmgd1J7/tPwRt8GV/7iwPuX0rXEpkj/8TpFq8fP5r+jgbpDpDZGoSeeoj0ROW8JOkNFkWsmSG3Un5kPbs1ZcM1cH1VKBkiFHYMt2ujOnkpjyYxQmwb+n4doiWvmzNygalKdVcp0F3kj7JFRQYGe/cVn8hwgABqq1LyT919hRnvVf2HwXdfyUwLMyzzrz2rcSPD+uv9LVKWbDhtcakxxmsrdN4A7RE2Vc/1+JGu7iUw3ZuVAd/+U+sFWvunnLLgAAmOMuqIdYfsjQiel36j/jg8Ly0CFIPCcuIc2RKQD9Z3O84MdtNV0C5kWMZx1AwGxcfLuwfEOOs9NUEO/mp7q4r6HyloU/HYSiQXyO6sv00huz/0YAdDNIhZ2hiEXepH9Ut6lSbTl5FRCLiJfk23rqN/qyFysLkXMue8WvCPDG4FTdmM5s4oy9rMHa2RO88sM0FX98BTbhhk5lhWL7DOiaZGZlS0shWK88/d7MpSCtA17xX+lzJQ9yqJEDx2hZFXemZDd7imqYuSR5sgdSYAzely6JtXkgs22c4whcBLU//rcwnOR2xx8Q4bmubYLcXguGE80P+eHRbJ89Bazzfs9VlxacrBojM4gkJNkDYHq/jPfXW8G2ZdoFGOINCCiukNQk/sEO5SEi9hsLJAafT/72vWEolQUxua8AuJF1IJJKmZ7Ah2tI0D40PBTA8vra5sso5DREk6HsAwzTa6KH+ohVlmCiXtZwaj4hnNvxdqh2FTZCqjWete7onLmk54Xcqsmytjpcx1PmYVdOh7prSWp3s7dZ3xz/P5bVVZ9G1igzvW/SPVVnPWGyaGcwGJtFRuNjkPCMYHgZpzzf+kSO/kuoo9O3POQy49A4XL0NkgvxEQLMdefhe8Wl6IJ7GzUep1xy3fOD/aeR3o6QtfY2PC+e2AiuoDHTOzcjQdIE2I5wJ0+V16wIBBJ2I6TJleWx+P8B8A7//7KgXzxqq+OVffcXKCMpoo4hewc/YR5hCDgzyAlFoGVxZxQpDcFOdYV50NZLJ50ot5Myh8Uiin2/bVF9WnQrk4CXID3Uj0aQZl+VcDfCSomSml3pMctbVE8ZSHexXJjUI4RE/1MN8qg2iaHzso26H79/lJCHsGOhVqfSI10m+XpR+6JgVyMi2YziZb19F4/SENFhw4d5/2z3hiEvzfjQlZOjGiZWJToFst71AePSl7wkwDb/eZL1RdXJi2VUU88jwai0OSWnw2JRQhJa6G0EdUL8RQe+57r9sHISpC00edpR2yKCzTb3yXeBOAl2VOn5yHm/fSa8Nr5qPHmMvLkApkpmiZ3+KobQK9fNKP7vW4CUT865HcxZpgRJRW+FXOpK/A1U9GZvHdC/Ujb/tYRFWdMeDsYxQrXF7kjw1FOn6xTJOSk9/8rFitGdOIzAgW9tIEPMk1iV/f/9vHabwq+SGQnRv7dM9VyU4hu48NuMvfuepdTDEJcA38CKFF0oZtNmDX//xNgo0cmlfq4JCmlI6RnW7mGnN0tg+HHdKSNh6e+wGYT4U3a/TFN2XJhZxr5aRkMmv72QBWnKvZLTbukUjTtnnppMF9cAXsKc88pZHKKB8/JduPT17EPg1KE1ADImIHs2nsbUXp8TSDTpmRqNCwccJtKbdL3R7a1vWdhy0yyNHaohhBajv05NgAlI39Kxd3tIW+Byq0lrmhe69AKmox12BSlWaBOGh2uaGn5VMpk9NwxXZsvkkIflZbwAzvN2x0RfzUAFBsEsLm6pAF9Zfv8Ld2Hx5p4sPzgSmJjqzxSbGSl2+Ort2ktXshlDT70gZkS48v8FwtKUkc0tC5+A0TC/Hf/XJSaw9KvF25RbGSdJqeKgo68oaWQbR3jP2yXEtZ2gAaW652RSBBLW3NL7S1R2RZUoDGUzR1GEwCnpoA6BQVrZMm5T3UmWa2vRlpNusb074EZ9yxevJycc5nsNps20GuVa8nsA1EXgEXOYc9uw7hMm2JXg08aNb9eH8mdVL1yBv4AuG2yOgsWamz9oqmC10QxqmYrirVmaEckmA3vlu9sorL0FsPqsruie4GNQvKr7e5AMH0CaxOIxqgfKXzatXNOtd4KOcLV8Q0eG5eKsILAF5qx2zjVPjN8KXzIu6PxTWi0wj6esfpYKqBFulbxqhGm5WhT82GAhI1YUdsdhnN32mOd2YGBREGZ7hlkZU/dlimS42glr6BW8DLzkP8B4YW/kk1Hc1WwE0jyJvfQIE75i4PZKNI36vcRUwfyjWgtZ/wHfKVLpWJ2+S78wemC4YkFL1/AgAwbNb4H6vbc0zpbOmvxpNg2zO/AhooUk2LcKwq6DHVXuwLOYPJOLLSPgGRiNnZWVoKm4wzLWRCi63d5rIE5wjfyXr+GC0BI51ObN+JwiABVZKa8IBfzt/N4I7PomAff6pjtRGAIQdUOViABlFyXTvCbfdSG91cnMUTlG5irdwS6QdoD8HpexCdktz6nJ++yqGVP8+CVKoc6vHZgDePMIZ4VYyWwnkXjJvVlpIdCfEn4lL+Agn5tzWHKv3AZrHngWZxCqucQKzX955EPVEFHweVBV1fwKJvoS9Fn5J/TCFul48AZWejaFgyzzUTdQmTsCBomSD4F4vKk/nTLTUMsVB43bdnJxRh+fN/uyL2RnWgb2tIjNAdS+un7LSkKrmD6LAMk9xzyaj6wuy7SLZxF8ydfe3A8k9AN7Djf0kaFgI8X3mUZusylxYXr9o8ntHAgbsh3Em6gGNtL2nSpSehEa+b8sDJ4eiI2nd11eSCmLn6ZtW+uUW78FHyf6Ox4BRBZ3kacf7U2QcTVqPgKaEhEiCEaexe6IWHdWoWieBRwT/08zLXl/9DemonBFn1v+cRW2xyiX77CpauqMb+6b9txUiRMW8gS5y35ElPRfj+ZpJh94/kGL2C9fUrIJU0n5PMk6LsBeAVblvFkTyHOyRLMKN3h944GeQ+odoUVqrY0kO/Ggvr/0ZBd8uuJ3/GRZF47r+F5jB/ZEj9gFADzSf0C/YGfz4GKr8fQebJjhQ+7D8HrwDUQde4nLX721VWVVUFobJf6oqCAHo32VfBNmyHjPmJFb2T8rhLQ3i3QGeSRF1zglfS7F1BT2ixSFyPdQ+foPXif/6YRQsbnA6abRfvNuTRMin2tWyHKQ91PR7VjO9Re1Ozp8iJmE1hD0VmtESbF/sqzQUze371VPUs4CqJzi8wX6VfFMvQXGiXIDbeUdPubmhFuKyMmr+FPF/tdU0/mecJuAuaijkNUiiGyWGT5baYm9fF4b8bDg65Dau0MFTyghELbzRYlKMW+zwQELEH+8WRhYpkZMbscvMMOlcK13Ihf1HU0i6x4WSYJPKvmRGA96XDyxBwZ/CJyzaHKL9EvYsQbfggG6BEzUvQd8Iug8d2vWWKoz5gpCfzpM+VEJafDPhTOdPhkwKlk6LOVuBEuiuOb6Vl5VuIzjYqPg92vAAuezJAWY3Ce6stUNYyEfGDJ/M1k/CD/hz8V/45GZuHSTGzE4mUhiB+8HPtb2OOdghfthBNeu7sV3tJ4SBHvsR2wGSI/jwcMzUohodHLRMP4ApQCGJHjP0oYbfV6Gwot/zl6xyj2IAWwxfyQJWYW/04jnwcctlWyapWbeQB9AcEdmKKRND80+lEqy3nBjIXXZHgQFklyCt7ZnSu5dHNkP3GFj/oKlGN7lgFR3ggnbHf8lqqUTaYLYHaINQXfTm1hDtYIs2DMPvlHyYC7vtFnqQ4sjxAw3zKk0eGuBq8qr8Akj7D76EoWeq0pYbUhEka3CTB3y+mMUuFsGUuOm+A+uJt9CjPP0wvnmoEb6/XmzL9KxQWQez3z3V/CuqJnNtzPqIZhW8f937cwQbxoupkAteVOjvCOhEklQsqiwCbMibQT6ngcm5AIrzJ0HdD4oQAeslhbhQZXuQxWsTCaSmcveGyTcjNlvtXkxmfoqPLrKWtQ075tOncUllFDejDXzBX+jYhN0905O7jImBhSO4YSk3uYYJfLODAsrLnTiK+CgIKbwDlRojwqBr/XCz8xFTTypOHRxbx1Mgfa0l2etYWvtDmphQRt2oZaKjHJmC/u+F5mVMPEkAV335MWAh+7oQeI0gjK9XQGRsI2TWG50pYSe9jHItxqozXp95zpEYxNq6L5pkebvVEgjwDq5pc5xssaHM9hHFT8co9WF6l0ic/gCdV1qXZAtKycNrYOFNdFJDfcXtTWTE95Nokqnxpx9Qi4rwAd4UlJK/IeyxDp/bAsmBRxjHWUt+Awt4WZSbbKv0CJuT6wHRflaPC1v7PT1rZ1LIuJRKwCI9QCbMExPNLSrJ8TI1FxljZHznNvDExzn8vAs46SXtRfVswi2C+DxzlOvXvbRFsPYbxJbIxjQ48nJBbO9aGYTGf21lnu5Z3L+SJfS1qDbEb0p/xd0QmsAhb72grQ7MkJZXv+3AKnrMhca6gzv63p/vQLYEUjntawKKiwGoMZuVIIlSqLVv90nBeT3uaGDmHOs5GzU1DQWeuk6yn9xdUKP/NqvQzzbhKlQd7IQmV0fSKSW1ng+MTQ9/p0xOKDh52FFWpvypvgWeNwB1ry5ioZwVAo8xrHovybtD3Sw/ZdAOsPQoEapVpx5RMmPeVZp7kwIaopE23hMhxoLqjAF6sG7ckVsGDNM6ZRkd5Bmzl+DKiPlr8mIr5w3xh1bTPncuPo/0Lwt48N2DD9MyekEtEUUAqi1jJqWs30aFEwTeNTs7sVjr1dm3CJB3Ci1XnsEikYUVU3OvDaV1KNymdaKBAt6GD3Qj9w5E1PpSAcafQHnp8Naj4S0xCwtROysYl32wkDBnpDUWaWc6z8DPXj7ry/8sywNfejZuKjtEnPeaunzVHqj3L1VA16Bq3dN1aHBDvk1HO2JKz45GroMIAJN4e500Fj6xCJJWz3tzCkzXWPo2wtaDa4p60JcP7GqTon5Tlu60htg7aBRG2Kwhzng5nDMFc8d/vJR629fJXQg7izb5T0Lamab6oBdQo3p8AetDpXRMTFsn+9a6sEf3wtXrFqMo+IDM+p0w6dqr4MDnwowkaT4Z5GbjLboHWGi/VaZknkUWkr6D+0NOwPaTyyy2GE9rXTHT47A0Q0jk4IKNpiL/XCVvx6oqkqa2iVzAeJBDCFISqKyvvMniH0r2G2kKpOB2S2LP7ZsjucQ9x/wKVXRI35tlirJTd8Vxl/QaN8Pk6tc6mntSW067dfFiBk9qbe752tAZf35T9TEaWJYXp/+mXHzL0IrkkPu8kl2teq+6c/Udl9oryAeswJ0sX5bwVmbsStSPAnT67d3cKjA0mikfbn1DeUqOY2tsob6mogFqq/d0rxZcOVndWjUvnm88rKvd5bpsbQjw1oBB+KlO7JKsvjGoBf/GjZz8741ERnZY3VGw9/htSZDZlzdhW2R7dW9eyGf81YhPxsFA1PgfmF0H6CmO/zOBJY5PkaGbDb4+qlapv4goMuq7n3c8A8BP3MmlK9mAuWmFRBhbVngDMzjEoeUVCqlfPdqQLRkfbvmC7JXyeC59j/xHpxi8OQaoUOaIKRqlwrx7X29sHC1YPC3ZwxySFKSWA39uNtedZgyoSGV33YyIjb+kl80AfT5VKALjyTbwYIzW/cXcqJgvGv2KrNQZRrzWJLc3MxZzizW1+Ck2qU+4id7y8bVb/vDHzfsNYoS+jP07nA4NH559km+dRgeq07YCIGbCyNk7JzsqWgpMh8/dsUSjefDJfWpRuILNoezslxCq6PXq/JKj25+7ICoE40sS4SrdgNYb2WER75HmUukKNs/MrYIT0cJ5Zu5dsq7WYAUrlgI5s/Nu3Uq49iGLcQhs8afWsVxH2LBO6HJT2031JzU+0UMoSGdyfXeec5spTRXPXFtu0qKwIrGySYDGfiXgB/ISLuL96r7K85w0i9cdJAGo8wBMizpvjIpqyVaSN08dHTr2ii6AvHYaEqpL1Amz4yCxAK5VAa9m4og7eK4eUOllzjw32bCd58Q+HiY3J2zHir2sLgTpuW6LqCDqosJLqUEgUl2ZHQrEnbypfqAaBNK0yhacFcMqleVGm5uWPmjDzFmuJrY0xMUxEppHcLdUsqophNDitsYp/06/XbQGj3njcVX1G8rUgv+YIFi0k/FtngJ/m+qrwdDZPCSwO6EiKthCcDTILZP5I0oyrw3XlsvCFHEYiDYcZ0ag3I3+vlGq7kQVXPwfx3emGrPt9uq1f7hkaUBQO+lrIAWA8h88CpzCGUrBn9VnECiltM0gKHipndGZ6LRGRYLLLKeyVHPIubw24SjjWZ3cp30SxC4JC+SHSpZ7saSjgj5GPMXYPtK4loYOOmSEBSNI4sG7wWkqXmOdN2BLdWXG+K5WQT1InMF8vMaopGreBYS1FFvx/oz23jeRmRoWiYz78VZoTlTtvmd9fGtGMKNa6812Y0ofA5IY8U1IwA/ED24RPvHqQGQSG8AlAhLzNrHGXYbdyt4wMhOgXJvekKfz1Ie6X7WRimJ5OvNGzgvDCwzNxPDyHEDrzPBJWQ0AvdiCO/Lx55yJ5DdwJ5DgLx2GsvmMiUN0fcXARHUQLqxJDH4Lj+WpvLyf2JY7zHHhNwcJXj0WdyRpJLcl+l6ecXgLol26j78WAB8euQCbm9O9z0VmnM+VAX0RUm/SY43sKkh16KsFEMhp2xxvRIbO1xwzNaeMrKqrdGubYhCM8C8q3pYFuTN69KAGvq4MiaUi+gYMYExS9AgW1OyahlfGiVFxtjnME+go6pbKi4br7Km9rqt4mh49wnJLefsdCDfCs0foPch/OSALzpgbdWL2P+UYXpXAB8jTlrLUHz7sPodcq/Kd7FTz8PKMzaOksonbjB6DPgsLHoFuQl52CCh8F1+VcXV8LyyEnAwplL/BQl8jVxP7IsfupLYoF0xWxOtlCaYtDlU5LP8W/zixrs+hsv1VYIORtzQyPLjL6gg8UtPs//0wahiMt9COfbEf1LrXkZVkurEN5ms7Uhk036gzjBolBWn+WQpcUqGqRJZHxvjuMy61P4SGzaPwAUH8GSg6tH+w1flG64P+lOlNFGqkzr+7mejiMVWtuPk7iLz/3TQ7AS8MVbbOHDXCf23vjoYsO+MWUzD31Okm+g9YFo2Z0joj4dw5ol8j4OXPCN4rReZ843IAt3O4RT8vOfWpSSXupfCjFr1qT7G0xC+y8aUFFpKqUagzPhZyVxqic8DwLWiql0/7zKkVwldrXiZJEvvEvMLyxLNfdr33Snw34NsZOIcwioO9UB0gvuulSNpPFLpe+bn2qvXtXkFRiApvflPCEBrlau7ykmQnJEqGEaQVsYxNoJWBramRIEeFQGjC3tY/qxgFLqJ0v1WGb6Pnv0vxOT8poxOD3GEjkx314R2FL4AZ3C965pyBo9rpOdkRFbtusoMWxo/l26ej58aaogWwSGH31h/pk03YcSnOUKypzTfEWFFpbGx59hMxCZWe/o0OqX+SDCqqAsXzl7FnG5UZ7yLW3zw8qu5JzQRzfzRC+Ghq50IQDuleZCOgpJSqqvZVicZf2eoOrPwATkV4oLT3NBhGdZ48KwzWXlDPuuHgHjaKQFqO2lbFSmMnMiAm9/dULUHp8a4SMEaKVltDyORJO9ossmPYPAIIA9eWua9Uz7PIAusf2lO8OMFoM3wcPj/XA5E35Z9PUxK5IVWZMk5n5X3/cRGfecJ+aomeKMSmiLWcEX7qz134Ymu2TCvdejcKHvjLmzHEOnwXCCqxjSuW7rSx6eTvGkxiC2bk1yJNdKkBpNIqdVKeVYO7Vxp85b+U1mW/b2OtWbWHCUWQbk+Vxh3vScwucVbJCHj8iPDsGLaUHCLEEnvahpuGUK6yItwz9jMuPZW4cyLNFPx2rqBAjMDybUuRU4t8hy2HuV5+a+MJT2mBZPXaZFO0+mWjNVhD1qYMplhEkeLyUQwn8Fvjm4fW3sznnrIAwJBzD8CCCCZs6ZvTckSi6dQXAOCwm9EcY1toaptBq4Cf8oLmt+yvYrK7IsYmOSd4sV6Ki1rSRk2Jucg6uWlAmOTSQ+8b1v9te4OWAe2PEMichFHMKtn+ARQqZAlHdgXhJS3GcptNTHODnH6192sSNBgzLNWutkw0/TMPt5MMIUSvLITa8IXHqCLknYZooOwcRqxeofSFTCOCuAy3RrkX1nx+f6kn6DCOuejtmbK0bmq/iCeh5XUawuLMUbOQIoqJLW+XK5ZM988updNjW0K8/CmfhxV+8mYMrN/fdxm8MWoaB47fVuKiYOXIPQb80uJZvktGOvpo32drMl88Jn0jeaKCctMneRoXNBsT+dDwtJa7j8lxeCRpSYtJLNsnHi9spGom/BR+eMC+XaJVHInvpf8+aNb37hFjLIomJk0mJAtx8lA1srs1WN7gookDIjPdnGelS3Gyk71IhvDpLpM1CMkYw+DkFjsx4j/JIdNayNJu5HIuRojuQbjfE9hYiK3StUMdGmP/mQJRikyfU3o1+PjZNreuLuybBKSDIXh4fJj0NzqDpUnEc6vsqmejLl3SW12Fv5fB7MeTL6j4Kwx2h5uChO1/vhepeaqVS6jGLypYLdbrYtH1GI8rBoCrOb6dlzNPiA1A3iQWsqX4HV2d6l6tsk8ZZjVsTj0qFcpVE7a/AppD8KeFkCbb2ZOUOumJ4KifTXkYkttkfDNE4BDlYuynOSY3fZyHLl32g7iRAlrIFxcTKhgt/lvSx9fDwDzyzqKPFERHXnBQw4LOcsdCr6ApOzKEKoBfmTPiP6iaAxKTxwZsuRG9Co0XNEQRnzxqIx4T3FIRJVTKbuQfhpG3mDBofkUqH8dr5tXvTKHk5K3AqgGrIcH8lge+dAAzgPMGt2u7tYqxpUprQRl3g/7COTvHEsI7JUB2uZo4LQU5IbEn+0twFMlxjO91dOWMg9dF1MLXs1S/YDeAWPj50su1047Thfx3wsRlOPN+HSR4q9fwtwUUZ+SKnImq6dW9osIiCr11c7rQC/LsNeOQ79CwwgQdaTGWkvmQXZOFvNa1eqnQnvTLpEyNMvo2mNIvB3nkQJersriTQ3g3nowtnKhwsJ3HonYE+VHRLd8ATfOl4rsvRuilr7H+thc1NDGQlXZt5dEHMyIklfd1miUS/oGpCuN54jo/F7UOXfmUlp2ZlHegPZhY4AsJKI6qMExH+FMH7MNDxfZ9PnyY/88xBYKp22yhhXPdVA8oBg/GW4Yg1gnix2qWY6LydqinvN1xPEDEEX6BsjTsNYBr0HlY+v5s4eW0tgDTn15+Mk8bARXS6IBkIm7r7t5wykjY8XgQy65BylooGvz12a9bGnnr6eovoT9tzIDI6NgDrZfzIqfz6c7A8V2RUpRLqGqy/OHP6caBjNWOvbP1MXrBqobWwruax4TgUeshMOujceNieK5SSmL591ewVr3fFbQ79R1gpQs8AtflDPgtywMbA6hPzhIxLTF/1m8K2CnmVmVuEYX1y5ImDAVuBqaiJT6z6N1J6094E3nF6knWuafxbFvtejqbTM4FphZkSAeU6SLJgrGsNliL4hSvDmzno5Hg8aeblsKj1EyThhsZ7cyi34buYpUtidxs5UcS6sVqvImcALf0JUYEDYOEfThG+C/v1/MwVVETlkZIOrdfNKPcwuml66no/lLmZiaNpEXXVDwbgL1+uShhNbPkET9gkxKtwaRVR8cscGKjG3JSx2ovtvGF6c9KZFxFs1YSBBff26kjRoSeOsVil3qH9Sc4w38+CMbAMyG07nC/5ycYzkxoUWY9lB4Vc6bK/39PXOvvwTp6CqqNH8wsalI3DybV3pBFRcVYMJOcl9DU2rN9PZkBsmS8DurzT5VoG0eBCusbjIosIDegfl6F/zP1xzxyHG31oL795HO5h4BDd/mzo9kqfb0mHS0Bcqx1I55cBFB9q4mkpunB806zgjVlw3nAcsTuVG6GlKtonNYc25B/Wa8GUgvjxFALF/S5bXK4NpjgR720p+oFY9CVT+Bb/IxPOA29ZB/cSm6Ga3AxFw6JS/aJ0uNImexxzfObfFwXxwESKcgu+ew/8+eTrPZkjBsTfegw5oxDvXqi8UwlWMLwMUH0MZwsLXFztCsBTYImKGBg/XmdCJP3f2l5m46CbeCx2axAILG+Wx7uSg8FQ5kEWY9ljaFo6PbI9T2qvC2NLn7bSMcjDUJ9naxKMf5MYoeTWKPZancfyQpsXPr3SGU92EGeMKk9mbu7XUWG0I+oK4IS87/5Cx8nioEoWY7XTX11O9oMfOKkREcHT+BCUVzBZB2r8DnKVMsLhnFRNOPXhNGMHWPjWzPvA97lzdjEq9Dr5gGDKE600b3GZV4wCOxRUWwL7RELowQGnhvnySQsPxcNJicQTIZcDap4ur+lMoy2SjPJGY2b7cFlxMOUKUKi33KhUdwElGrBLIAl05uoeSEb3bcoJjy9hKZOUV7sIFemfV5u3rzVYk46cXIJtan2c1SsdcVrO3+Nx43KI83YyoIr4rA/gqcPb+M9tsXbTvHsRej+Ydh0vX6SGvfnjkDp3PyXFTq1+Bjf/z863PjY2UV5Sx938cAKBTNkAoAaHMLzvSVzi4KwtwHNKFdyWmGqsH3rUEbF1tkGgGYm2Vem3XEN5PAoJwUyp5u1UwAiuRaw7W0pvRuZNiLmWCiqM+H9jBaVv1CefPnweSRA9Z0W97IaohfvYR8OJs7G5vkDxsKEPUiwI2s1tT2K9eX0joY6/YU9keladOlRsAu2pDtWi7kMPf5YaUh5PBc5RHUAK5mPLUEEFXDbZ4+Cpmwa5KFNabqBpqCAoF+YpInOduV2n/T337lh2IqcQoV2gqyd3vsPw5r70AyqfSRPLHGn5ra/mjYrfBe6AXM9SzbAuhy8B0QnbUzgYUPQCZFFA4SfWDbjjwOpdvAexzUJiZ7z41vrxaIbBin9I3cLUxKV/ms590KU5Zh+LU1NCStgDGyoFSu4mVbxaYIft/en3u9abrTrXDxhS6P0JpjMGWZvbNO0/XTVtuTwnkqy8exoOkUjKG4wACiOHkngLKbngBmhytmTIp7+4KSztiiH4qsgha8OEILNOXiLOXzSZT9uXtrSfmw1+lFr10D6HskPHsFniaDdD9EXvFVWwE72u+xLcbGecFv4JVf2x9JuDSxoJpHvGTAtHtvWvMsQk2DskrSGUh7zxVxM0wzk551W2PFQCZO9ermswXV4sYGzTCG0oINENIMRCnaYS6cvxEW8V4aBi9Sx76QdSDGg8nI1QWsycKkZD+dV+2y/nxr6gFoVYAUMy8obchy/rqWfKakzzvx7tXEt5Jw4cyA1x1jY3NvTWgEB/8AFrTd8Ay/X0I0dfyzVrOop3ezpoyVcFRbquiKjtNbT+L2BdYzGKw2yK/kS4hHKbsvSUL75k1ZZfCN0oReM/ANX7jvQPHxiIWyG3IZdFXflMuwkyB9IrFkxLioIn0g7H2eBak71mXPGlUv8i2DzDTfdH+6zbEezWpLCSBkFLM3GefpOkohONg/ZHkJo/+x0YbfDSUS3vbBHRBzW+H9wgka+eJUGrliYOU6q4BXCQlnmb2RIJhrTB+oKe+N6FTjkC37O8GR3n8OQ1mo/XwM8xzOhGCYvGVnMbn4mpwmqzsgoobL8e6mf2KIR7hxo9BQtGMrOvvGsS8G87qct73ilB+p8X/kDS3tPqhy/g826O4Mi8DGEEBCd8kULjrwFEduByLoEO0iNe8/dgVeE2RuP15fWY1Pl4tutmzOoVGy5spjHuCVGIkTDqs67LF36MTY2jg+Sb51RA0b5C1nXBTHxuSUvJ62R6DugV0UTKWV/BF/CwNizsIz05Kbx6pvi7XQNi/l1Ze/46lNtVwdmiYTaLkMi/zvVTvcfw9/m/j31ip/Vpd/WGxwqOpB6OeyN78HbXjB5y2W0GdhV7TxyDYpMY2i8uFpOhPLQkY6VW4u5ecTN8uv6fvkY10L+xtCDGnhqZU7ifEtyxeF7yLepBAn/HQKEa2jDJnmLRXwYmjgI2AVUi2QtCl431EN5AMg+UFQ1tHwbjCgw2UrHwsG/8HlSlMQnwwPzXbVbt4Rlj/6mrpa92h7iHAzaIKjurOUqL4six2JbhOOA8zxS9s93MmfXtZy/R7IEanmUuNi2NiVVVFkW8JajGvQbqnBox/cI4urHiT9VipQWtScNQ8ZDqGrWbTFw7E5x7VaN7/1gJap3+4c/fkWc9H8g93aA/1qKKL61v50OdRZ/SjA4eXySwAnjRlI3umeDu9x3SiZwumO0RNgrT2d24fZsIncWiO+CB6DCumFpq1PqypB8//JCnoa9FdfLxlYw8FC/oJrJTDyVYa+x31kNPBbOCLFtpK9I3wh7q6/n2s4jNOwrlpqwRRVky/NK3jQFRTGM2C/jrONA41zCV4LtZSsStWLWQDEFfsg4DRssHyBbdJVv7wovAccrQN/XOgi6S3jEMtrLjSZybQ2OC/OcLqhCvn424AojuGwSvCqbFREVkQctlFhDNapfniGGxGa9hju8NuhejDNRZdu7ZgreciQmL4P+JXUFT+pCTxwMxCKY33U8DlIaotbvpeNSVQPRs9/Ye3h2Zthq+9JBfpOl281LyE6OcrdICS2uUsADEZpqzsg2moSxKJ4nd2Onf5znOYYRY058SSXSJl+9RiUPipdZ7JdoyvCaOW/SBS0gkTgqxRRswey1HTQFbhYq6X7q2Qf/pcF4DbyEKHBEYPqBcwaUp+rAG9jMGCY5nrS2d0D/fPrxGnsuYEyybvMxYyTRSrR2PHKdJqaO3aI08EkLZNooJFqZ20V9xqoKB9PpADJ4EjHdje8slN2ookOryeXroWd4ts8umBSpVz8IW1dZ7WwKYERsXWYzzJPmwV0LlCpjjkCeuriwAP1qSu7SfIOkraoUjbERYi06VrRrEPn3UgDlYZcfAFyBgWcItrxtQ8iSbqS8hQ20qUBJWHMANUhhI5ToxEkpYZKYxF6kK/oY9mb6WPUA+tLbPOHn3WuTuR4aREsSh7nrD+xvGduexFffpAPKg75yGJ6rHGL3TlpThw2MLsXYx37P4YXkyYhkXHFL1rcW7lGdOCD9rPXGmZNxRvLBPu3bBvGiZ1VFHRN4YV57AVgW/KXBRQl6+4WxSNTlxF8EJOfexrijFYX76Y5p53uv3HhkmqCtGcLHNpswLRJQgo7rDmfEykj30m/la0rKutJw7bSwdBcbeQanObd8kKrfQTpMElc7zIW7QSIlNId7XGkxJpisg7nT4sWdETo3xqXbXsla0k+379yc9egVNtNsRD7wDyeZUaEIav6h752hlA8xY80uOUorD/+xojEfSXPGFWnZg5wwhkIMXAa0sxiZnEn8uIxEZsIFtzKPxTgBRzDZo4SwOLREVHnvL8KEiZhWRbTco6VWX+P0Q/q+sB5YKurkVDnKj1tRweDK5THamqiHTjbGp27dnkUIQIVlBdQCzXNmRdtrAxkQFhgNFYAT6+btR7a5b0lz9bXz7LXGxEksjPsGiPAcX03PUmQIZsigW6U/h68TznChj0UfYrJhlIDSkI2yYbLuoyTn1f32YOb/PU1vaUY8Z1wDzJwWZmTM84bTt7MwbXJovFUdXXxn9YzKPNxAubqC/zxsUiZMc+T3TkWQ+/FMS1nrRUrdxpg9Ulr0tGG8ATYPRpztoNWYzqgTp1BkQuB2BLpuq7lGjYfzavYhnTnvFiN3FSWhUZelvtrH9VWu9atNAbqV/nd92lqAjbNRBE3A5yXLgqX2EPv2l03rePvTQlvYQxP2W9thtJEm6Eezg6Qd+P5SEJnEef8FImV2G1UdVKjZVUrvrmNr9XjNtG8Pw3GXmTZ8p6dfcpKcERWZl1qe7VoQPFfr9ztSMg7a/8NIDX9GISVOMGg1CTORZgKDMTdFYuqc6eSri0PcbcneCVmFaPVD83sAykyfIQaWNrVG9cRrtJbE5C8YylrN+sIeD1YHLQPnsYqz+ADXJ/4RFB8jVm7AzAjZeBwfcfSU15UktPS+WQWKB/zu51tn4FF6uycUlVFVR8sn2lOQCph4H7+csuxrSnXJaCmU9FlhZKm73my7fX84GfMWswEf67eFGNDhiQa6febP6hmcdWhPEijrmZfFrgG/YCRIFp6J3swDAvTDvgK8w/PrqJfqsmVQ431pU1ScKRpeqT4puUWGwLw4xhSo1LA7ax9xNa+JJBIz0MIyWYmJRajfbNyviYhoZrvBnm5qC2KEX4utBBCRbyfx7hh6JDtZo5qot3v47umyK/Tqk/k8Y98pNSc59I9diN4DRS2f3cbNC8odtVhaWk2auOwtAnT43qA4CIt//23b9klqnAO1glsEFQbtZ5ElidmnUU4PQGuCEKVADMG+O+/UKaV/rsffw3GrpWt9cAB1JtGU0yWGHf2i2p8icOYqmR/8RWKkePKIbDPS9KZsvijhou0Ha1KHUBHkyji9evT5A0peCCRB8C7T3TeBQXV/p1QPbggAstTGZKD8KHsvtq4rcw4oYm+rnyDZBYI6lKz26y+u7ynygTPxVbAcHI0oxovEeLPhrMRsEik3jyebC+Xo3eH4UDj/KxC9EwNqbU2av5XtGEZpGte+uF8pewBgVB5iDA+Rc4gCgO5nuDHRoP/C9JoPZZL0SV1AgXlsx0WfKy8ZuoZ77LgQEvY9YJ7KE+hrI+QM4z8BRtp4GuvMrEduUs13yVO5QQvaDyK3EJUwm+0SVNt8M/0KheXah/7PIV3uA6/AN/mxmCycGOsUfQNZKVl8dNyks5ENYK7Ov0zu+rB8L1iBVpN9Di139FNwwg5GK66nT2Hs9ocZ7FBnX8GFBzGaLMa8EK5rkhI7b00n6nAzRW/GWkTPEyDu36Kl0E69EXDZSk36kRNJQdouoJ0A4CSo8wF4qxhyhbCSn5pvVL57luL8Aoy/0WFKxvi91rNT/AIrsNmmeRRJAufpHnUD6HBso4jFTpuYd69Az1g7PCIBuE4e/DnaXNJaNSIV5T1HipFCiD2WxtgQsICDy0Bd6xmhxIlGiSQ/0QlpTU18QsCfEHOvblUEDYXfrseFkQPW2Zaro3cmyP2sSuRsSSHSiiD1yNmZNHVykokEG4SRxdP0BRoEw4QOGF0jcdiYdV+koedxYHUX3n9R02o3kIiuRyzUA+rtl7RkbJuKZfeQNqlE0Q/rQXPddoxlZWZDLc1eqAP5BL5GML1Am4RwVMs9d2b8SkWTcKPDal9cWZZSmYC9MToW4Q7AJ0G/o8ZvV4/7Mvg8MIzM3viw38uKt0M/h5QLu7imdN7BOe9zuzaCU9OFTLDzFKbTddwKTzWRv61qj+SyEVpiuJsA+WWMJpgmuQVm1NaHfH5NfwSP5XIGt0mUb6rv+c3Tq96+y+LBup7kTw7sO/j/SwXko1un3tdbbrhRtOp4FbswtV59aaCcQZ56+jDVgyXM14CzDSkiwQjFhVi0ZWLBZsBVmWkTj44YJrSx9Ss9EQ8lqF1LFd7t1iiSrrEKbxHSb/QRjFF8y0Su6zolmnvXk1YObM3yNi4kKKQTsFhkKDHRZTQ1gzsPbSHxnwDdg6GzmKY00oY9b9H5HNd+eXWImeySVREHuP1hsfdBxJ6Is8oxZcGNOUZatTwz/uvzf7ZIfqcd3f2HRGUz5pgddDjErE03ys1eLaoQX2MToG2HR9SQSTx+SGRT3YqFXRRTspzo9SjOOWs9pC0Te/blrX1MAhUvIyKSzV10UmXN4t8Rlx1ZiMws3oZXuRR0b+iqGI7/VWzkYeiMHIygTqZr2Y6exwFr+HPmPzg7LTj3Lwzoohn7np/XCL1zf+MAxdxrblbL6Y7ZTqnuDmkh3oP7+h3DojQYKS3e2TMCHO+2xQuDXD2Z65sMEA6SBMtZQWIkyy7Sc1gZNoWQwsvVc0sMWanInhBiSo3BSQ+hNNloFwMCWbwHt9My1WiJKSoa5n7azqw4WJ+wYTk70njEqXJ7ntJqj0pP8fS9z7Wlouv/frxjdz2jaV1jkQmjBZzmY44uSf6j9CsIWbmqvgQL097lYlhrm7zMQDUpg99ZexFIjxGdNccCmN2Evo16EW0mz8Pbyc5ugaKBlAoUeh8RK3gCKy8Jk4prWtDk;" vertex="1" parent="1">
          <mxGeometry x="682" y="195.14" width="145" height="81.56" as="geometry" />
        </mxCell>
        <mxCell id="7ci9IZOPOK0UTeNCpRx0-48" value="" style="shape=image;verticalLabelPosition=bottom;labelBackgroundColor=default;verticalAlign=top;aspect=fixed;imageAspect=0;image=data:image/jpeg,/9j/2wCEAAMCAgMCAgMDAwMEAwMEBQgFBQQEBQoHBwYIDAoMDAsKCwsNDhIQDQ4RDgsLEBYQERMUFRUVDA8XGBYUGBIUFRQBAwQEBQQFCQUFCRQNCw0UFBQUFBQUFBQUFBQUFBQUFBQUFBQUFBQUFBQUFBQUFBQUFBQUFBQUFBQUFBQUFBQUFP/AABEIASwDIAMBIgACEQEDEQH/xAGiAAABBQEBAQEBAQAAAAAAAAAAAQIDBAUGBwgJCgsQAAIBAwMCBAMFBQQEAAABfQECAwAEEQUSITFBBhNRYQcicRQygZGhCCNCscEVUtHwJDNicoIJChYXGBkaJSYnKCkqNDU2Nzg5OkNERUZHSElKU1RVVldYWVpjZGVmZ2hpanN0dXZ3eHl6g4SFhoeIiYqSk5SVlpeYmZqio6Slpqeoqaqys7S1tre4ubrCw8TFxsfIycrS09TV1tfY2drh4uPk5ebn6Onq8fLz9PX29/j5+gEAAwEBAQEBAQEBAQAAAAAAAAECAwQFBgcICQoLEQACAQIEBAMEBwUEBAABAncAAQIDEQQFITEGEkFRB2FxEyIygQgUQpGhscEJIzNS8BVictEKFiQ04SXxFxgZGiYnKCkqNTY3ODk6Q0RFRkdISUpTVFVWV1hZWmNkZWZnaGlqc3R1dnd4eXqCg4SFhoeIiYqSk5SVlpeYmZqio6Slpqeoqaqys7S1tre4ubrCw8TFxsfIycrS09TV1tfY2dri4+Tl5ufo6ery8/T19vf4+fr/2gAMAwEAAhEDEQA/APviiiiv4SP0AKKKKACiiigAooooAKKM5ooAKKKKACiiigAooooAKKKKACiiigAooooAKKKKACiiigAooooAKKKKACiiigAooooAKKKKACiiigAooooAKKKKACiiigAooooAKKKKACiiigAooooAKKKKACiiigAooooAKKKKACiiigAooooAKKKKACiiigAooooAKKKKACiiigAooooAKKKKACiiigAooooAKKKKACiiigAooooAKKKKACiiigAooooAKKKKACiiigAooooAKKKKACiik3UALRRRQAUUUUAFFLmk49BSAKKKKYBRRRQAUUUUAFFFJ+dAC0Un50tABRRx60UAFFFFABRRRQAUUUUAFFFFABRRRQAUUUUAFFFFABRRRQAUUUUAFFFFABRRRQAUUUUAFFFFABRRRQAUUUUAFFFFABRRRQAUUUUAFFFFABRRRQAUUUUAFFFFABRRRQAUUUUAFFFFABRRRQAUUUUAFFFFABRRSbqAFooz7Ui9KAFooo/SgAooooAKKKKACiiigAooooAKKKKACiiigAooooAKKKKAH0Ug/D8KOnqaomwtFJ+FHNAWD/PSj8KMUtAxmP8AOKOvt+FJj3pce9BI+ikpaCiPINHHqKXn1ox70CsL+VH5UmD60YPrQUL+VOpmT60YPrQAu0Zo20nPrS80CsLilopv50BYaPrS0Y96MfSgVgoo4/yaX9frQFhu6jdS/jS5qShKKDzS5oASilz+P1ozQAlFFLmgBKKXFHPrQAlFLmjNACUUfiaT8aAFooooAKKKKACiiigAooooAKKKKACiiigAooooAKKKKACiiigAooooAKKKKACiiigAooooAKKKKACiiigAooooAKKKKACiik/ioAWiik+poAPSj/PNHX3owfagAwfWloII70mPeqIF/wA9KKMH+9Rz60AFIKOaUfT8qAE9e1Lzto3e+KT8qAFoo/z1pP51JYfxUtFFABRSetLQAUUUUAFFFFABRRRQAUUUUALjFJn2p9FUKwyk5qSigLBRRRQMKKKKAGYpc5NJmlxg0gHUUUUwCiiigAooooAKKKKACiiigAooooAKKKKACiiigAooooAKKKKACiiigAooooAKKKKACmmnU00mAlFFFIA/AUUUUAFFFFABRRRQAUUUUAFFFFABRRRQAUUUUAFFFFABRRRQAUuf85pKKACiiigBc/5zSUUUAFFFFABRRRQAUY96KKACiiigAx70Y9qKKADGaPwFFFABRRRQAUUUUAFFFFABRRRQAUpApKD1pALgetLg+tLRVgFIfx/Ck3Uu6i4hn4g0v+eaODSYI6UEi0UA/nRQAUUUVJYUUUUAFFFFAD6KKKoAooooAKKKKACiiigBlOXpTacvSgBaKKKACiiigAooooAKKKKACiiigAooooAKKKKACiiigAooooAKKKKACiiigAooooAKKKKACmmnU00mAlFFFIAooooAKKKKACiiigAooooAKKKKACiiigAooooAKKKKACiiigAooooAKKKKACiiigAooooAKKKKACiiigAooooAKKKKACiiigAooooAKKKKACiiigAooooAKcvSm05elCAWiiiqAbijFJuFG4UrAPpN1LRTATg0ntTqKBDMcdfxopOnB6UtBIUUUVJYUUUUAPoooqgCiiigAooooAKKKKAGU5elNpy9KAFrmfiJL4rt/B2pTeCYtMufE0Ue+0ttYD/Z52HJjZkZSpI4DZwDjPFdNRWlOXJNTsnbo9n6iaurH5YeJP8Agqt8XPB+vX+ia18PvDmmatYTNBc2dzHcpJE6nkEeb/8ArrN/4e9fEj/oTPC35XP/AMdr63/bY/Ym0v8AaS0F9d0JINL+IdjFi3uyNseoIBxBMf8A0F/4eh+Xp+NXiPw5qnhDXr/RdasJ9M1awmaC5tLlCskTg4II/wA5r+ieHMFwzxBhueGFjGpH4o3enmtdU+j+TPmsTPFYaVnN26M+3v8Ah718SP8AoTPC35XP/wAdo/4e9fEj/oTPC35XP/x2vhCivrv9UMi/6BY/j/mcX13Efzn3f/w96+JH/QmeFvyuf/jtH/D3r4kf9CZ4W/K5/wDjtfCFFH+qGRf9Asfx/wAw+u4j+c+7/wDh718SP+hM8Lflc/8Ax2j/AIe9fEj/AKEzwt+Vz/8AHa+EKKP9UMi/6BY/j/mH13Efzn3f/wAPeviR/wBCZ4W/K5/+O0f8PeviR/0Jnhb8rn/47XwhRR/qhkX/AECx/H/MPruI/nP0b+Fn/BXDVb/x1plp4/8ADGlab4VuH8q6v9ISdp7XPCy7Gdt6g43ADdtyVyQFP6UaTqtlr2l2mpabdwahp15ClxbXdrIJIpo2AZXRhwykEEEcEGv5vK+wP2Fv257z9nvVIfCHjCee/wDhteSkhgDJLo0rHJmiUZLQkkmSIc5JdBu3LL8LxRwLRnQ+s5PDlnFawX2l5X+15demu/oYTMJKXJWej69j9kKKp6Zqdnrmm2mo6ddwX+n3cKXFvd2sgkimicBkdHXIZSCCCOCDVyv5/aadmfRhRRRSAKKKKACiiigAooooAKKKKACm4+tOooAbn3oz706iiwDc+9GfenUUWAbn3oz706iiwDc+9GfenUUWAbn3oz706iiwDc+9GfenUUWAbn3oz706iiwDc+9GfenUUWAbn3oz706iiwDc+9GfenUUWAbn3oz706iiwDc+9GfenUUWAbn3oz706iiwDc+9GfenUUWAbn3oz706iiwDc+9GfenUUWAbn3oz706iiwDc+9GfenUUWAbn3oz706iiwDc+9GfenUUWAbn3oz706iiwDc+9GfenUUWAbn3oz706iiwDc+9A9KdRRYAooooAKKKKACiiigAooooATqKB/KkWl70CG0fdFJ/FS0EhRRRUlj6KKKoAooooAKKKKACiiigBlOXpTacvSgBaKKKACvlX9tj9ibS/2ktCfXdCSDTPiHYQ4tro4WPUEA4gnP8A6C/8PQ8dPqqivRy/MMRlmIjisLLlnH8fJ90+qM6lONWLhNaH84HiTw3qnhDXr/RdasJ9M1axlaC5s7lCkkTjqCP85rOr9sP2xP2H9C/actLfVtPuIPDvji12RpqrRFo7qEHmOdRy2Bkqw5HToePk/wD4c/eM/wDof9C/8BJq/pTLeO8pxWGjUxVT2VTrFpvXyaT07Hy1XL60JNQV0fn/AEV+gH/Dn7xn/wBD/oX/AICTUf8ADn7xn/0P+hf+Ak1en/rlkP8A0Er7pf5GX1HEfyfkfn/RX6Af8OfvGf8A0P8AoX/gJNR/w5+8Z/8AQ/6F/wCAk1H+uWQ/9BK+6X+QfUcR/J+R+f8ARX6Af8OfvGf/AEP+hf8AgJNXi37TX7BPjz9mrw5a+JLq5tPE/ht3EN1qGmI4+wyEgJ5yMMqjkgK4JG75TtLJv6sLxRk2NrRw9DEJzlstVd9tUl/mRPCV6cXKUdD5oooor6k5D7C/YW/bpvP2fNSg8HeMZ57/AOGt3MSrgGSXRZXOWliUZLQsSTJEOckug3b1l/YLTNTs9b0y01HTruC/0+7hS4t7u1kEkU0TgMjo6khlIIIIOCDkV/N3X2F+wt+3Tefs+alB4O8Yzz3/AMNbuYlXAMkuiyuctLEoyWhYkmSIc5JdBu3rL+PcY8HLHqWY5dH97vKK+15r+9/6V67+1gsb7O1Kq9Oj7f8AAP2Ooqppmp2et6baahp93Bf6fdwpcW91ayCSKaJwGR0dSQysCCCDgggirdfzs007M+mCiiikAUV554G+PngH4keN/EnhDw54ms9U8ReHiBf2ULHKrwC0ZIxIqsQjFCdjEBsFlz6HW1WjVw8uStFxejs1Z2eqevdbExkpK8XcKKKKxKCiiigAooooAKKKKACiiigAooooAKKKKACiiigAooooAKKKKACiiigAooooAKKKKACiiigAooooAKKKKACiiigAooooAKKKKACiiigAooooAKKKKACiiigAooooAKKKKACiiigAooooAKKKKACiiigAooooAKKKKACmP1FPpj9RQJi/xUopaKBXGUUUVJQbRRtFLmjNO4DqKKKYBRRRQAUUUUAMpy9KbTl6UALRRRQAUUUUAFFeAft5eJdX8H/sn+O9X0HVb7RNWtlsvIvtOuHt54t17ArbZEIZcqxBweQSO9fjv/w0z8YP+ir+N/8Awo7z/wCOV+gcPcH1+IMLLFUqqgoycbNPok+nqedicbHDTUGr6XP6B6K/n4/4aZ+MH/RV/G//AIUd5/8AHKP+GmfjB/0Vfxv/AOFHef8Axyvp/wDiGWM/6CY/czk/tWH8rP6B6KKK/GD3AqpqemWet6bd6fqFpBf6fdwvb3FrdRiSKaJwVdHRgQysCQQRggkGrdFNNp3QH44/t0/sLXn7PmpT+MfB0E9/8NbuYBkJMkuiyucLFKxyWhYkCOU85IRzu2NL8e1/SLqemWet6bd6fqFpBf6fdwvb3FrdRiSKaJwVdHRgQysCQQRggkGvxw/b0/YtX9mzXIPE/hmYTfD/AFq6MFtbTTbrjTbgqz/ZzuO6WMqrFJOSApV/mCvJ/RXBvGH9ocuXZhL979mX83k/73n9r13+Zx2C9nerT26rt/wD5Jooor9gPFPsL9hb9um8/Z81KDwd4xnnv/hrdzEq4Bkl0WVzlpYlGS0LEkyRDnJLoN29Zf2D0zU7PW9NtNQ0+7gv9Pu4UuLe6tZBJFNE4DI6OpIZWBBBBwQQRX83VfYX7C37dN5+z5qUHg7xjPPf/DW7mJVwDJLosrnLSxKMloWJJkiHOSXQbt6y/j3GPByx6lmOXR/e7yivtea/vf8ApXrv7WCxvs7Uqr06Pt/wD9jq/OT9vz9v06QdR+GXwx1IrqALW2teILVv9R2a3t2H8fUPIPu9F+bJV/7f/wC3s+jRXHw2+Gt8y3V1bRS6l4ltXIAgmiWWNLVx97zI3RvOU42uNpJOV/MevH4N4N5+XM8yjpvCD69pS/RfNm+Ox1r0qT9Wbfgjxvrvw38WaZ4m8M6nPo+u6bKJ7W8tyNyNgggg5DKwJVlYFWVirAgkH9qP2Ov2xdC/ak8KNDMsGj+PNNhDaroqsdrrkL9pt9xJaFiQCCS0bMFYkFHk/DytvwR43134b+LNM8TeGdTn0fXdNlE9reW5G5GwQQQchlYEqysCrKxVgQSD+jcS8NYfiDD2fu1Y/DL9H3i/w3XVPzMLipYaXdPdH9GtFfOX7HX7YuhftSeFGhmWDR/HmmwhtV0VWO11yF+02+4ktCxIBBJaNmCsSCjyfRtfyrjcFiMuxEsLio8s47r+t0+j6n11OpGrFTg7phRRRXCaBRRRQAUUUUAFFFFABRRRQAUUUUAFFFFABRRRQAUUUUAFFFFABRRRQAUUUUAFFFFABRRRQAUUUUAFFFFABRRRQAUUUUAFFFFABRRRQAUUUUAFFFFABRRRQAUUUUAFFFFABRRRQAUUUUAFFFFABRRRQAUUUUAMAxQPWg88UUEBRRRUlhRRRQA+iiiqAZT6ZT6SAKKKKYBRRRQAynL0ptOXpQAtFFFABRRRQB83f8FFf+TN/iJ/uWP/AKX21fiBX7f/APBRX/kzf4if7lj/AOl9tX4gV/SXhr/yKKv/AF8f/pMD5fNP4y9P1YUUUV+snjn9KFFflj+wH+35/wAIR/Zvwy+Jupf8U18tvoviG6f/AJBvZbe4Y/8ALv0CSH/VcK37rBi/U6v41zzI8VkWKeHxCun8Mukl3Xn3XT0s39vh8RDEQ5ohRRXA/Gz41+F/gF4AvvFviu9+z2Vv8kFtGQZ7yY/chhUkbnOD7ABmYhVJHiUaNTEVI0aMXKUnZJbtm8pKK5nsHxr+Nfhb4BeArzxb4uvTbafCRHDBEA093MQSkMKEjc7YPcAAFmIUEj8RP2kP2kfFX7THjyTxB4il+z2MG6LS9HhcmDT4Sc7V4G5zgF5CMsQOiqqqv7SX7SPij9pjx/N4h8QSG2sIS0el6NFIWg0+AkfKvTc7YUvIQCxA4ChVXyev6e4T4Tp5HTWIxKUsRJfKK7Lz7v5LTf5TGYx4h8sfh/MKKKK/RzzAr9Av2A/2A/8AhN/7N+JvxN07/imvluNF8PXSf8hLutxcKf8Al36FIz/reGb91gS/n7X6S/sC/t+lTp3wz+J2pE5KW2i+ILpunZbe4c/gEkP0Y9DXxHGE80hlc3le/wBq3xKPXl8+/VLbXbvwSpOqva/LtfzPp79sb9jnQ/2pPCizQGDRvHmmxFdL1pkO2ReT9muMAloSSSCAWjYllBBdH/Ffxr4J134c+K9T8NeJdMn0fXdNlMN1ZXAAaNsAggjIZSCGVlJVlIYEgg1/RrXzl+2N+xzof7UnhQTwNDpHjzTYSulayy/LIuS32a4wCWhJJIIBaNmLKCC6P+P8IcXyymSwWNd6D2fWD/8Ake66brqn7WNwSrL2lP4vzPw8orb8beCdd+HHivU/DXibTJ9G13TZTDdWVwAGRsAggjIZSCGVlJVlYMpIINYlf0pCcakVODunqmtmj5dpp2Zt+CPG+u/DfxZpnibwzqc+j67psontby3I3I2CCCDkMrAlWVgVZWKsCCQf2o/Y6/bF0L9qTwo0MywaP4802ENquiqx2uuQv2m33EloWJAIJLRswViQUeT8PK9T/ZV1O80j9pj4Vz2N3PZTv4n063aS3kaNmikuEjlQkEHa6O6MOhViDkEiviuK+H8NnWDlUn7tWmm4y9NbPun+D1XVPuweJlQmktn0P39ooor+TD7EKx9b8XaF4aeJNX1rTtKeUFo1vruOEuB1IDEZrYr4A/4K7/Dv+1fhr4N8aQRFpdH1GTT52UdIbhNwZvYPCAPeT3r28lwFPNMwpYKrPkU3a9r62dtNN3oYV6jpU3NK9j7Zs/iT4R1C7htbXxVotzczOI4oYdRhd5GJwFVQ2SSewrpq/nF8IeJLnwb4s0XX7P8A4/NKvYL6HnHzxSK68/VRX9Fukapb65pNlqVo/m2l5AlxC4/iR1DKfyIr6Lirhf8A1cdHkqOcZ31tazVvN9zlwmL+tc11axU1vxdoXhl4U1fWtO0p5QTGt9dRwlwOpG4jPWqVl8SPCepXcNrZ+KNFu7qZgkcEGoQu7segChsk+wr8j/8AgqH8Q/8AhMv2nbrR4pS9p4Z0+DTgoPy+awM8hHv+9VT/ANc6+X/A/iq58C+NNA8SWXN3o9/BqEIzjLxSK4GfqtfUZd4efXsvp4uVdxnOPMo8umuq1v2sclXMvZ1XBR0TP6Naxda8Y6B4amji1fXNO0qWVdyJe3ccLOPUBiMirmj6rba9pFjqdlIJrO9gS5hkH8SOoZT+IIr8cP8Agp547/4S/wDao1LTo5C9v4d0+10tcH5dxUzuR77pyp/3PavhuG8iefY54SUuRJNt2va1ltp1Z6GKxH1enz2ufr1p/wARPCmrXsVpY+JtGvLuU7Y4Le/ieRz6BQxJ/Cujr8aP+CX/AMO/+E0/afs9WliL2fhqwn1JiR8vmsBDGD75lLD/AK5+1fsvRxLk1LIcasHSqufupt2tZu+m76WfzDC13iKfO1YKKKK+TOwKKKKAPmDxL/wUb+CPhTxHqmiahrepJf6bdS2dwqaXMyiWNyjgEDkZU81638Evjv4Q/aE8K3fiHwXeT3umWt41hK9xbvAwmVEcjawyRtkTn3r8Lfjz/wAly+In/Yx6j/6UyV+mn/BIv/k3LxN/2Ndx/wCkdpX7DxFwll+VZOsfQlLnfLu1bXfovzPFw2MqVq7pytbU+4qKKK/Hj2gppO0ZPAHrWT4t8U6b4I8L6t4h1m4W00rS7WS8up2/gjRSzfU4HA7nivxQ/ag/bZ8c/tGa5e2yX9z4f8E7ilr4ftZiqunTdcMuPNc9SDlR2HUn6/h7hrFcRVZKk1GEfik/yS6v7vN7HFicVDDLXVvofsB4h/aN+FXhS7e11f4jeFrC6T71vLq8AlX6puyPypNG/aP+FHiFlXTviV4Tu5W6RJrVvv8A++d+f0r8IvA3wm8a/E15F8JeE9Z8RiJtsj6ZYyTpGcZw7KCF49SOoq/4w+A/xI+H1q914k8CeItFs05a7vNMmSAf9tCu39a/Sn4eZZGXsXjX7Tt7v/pN7/ieX/aVVrm9np8z+g60vLfULaO4tZ4rm3kG5JoXDow9QRwasV+EH7GXjbxD4Z/aM+HtjpGuajpljqOv2dve2tpdPHFcxtKqskiA4cEHGCDX7v1+bcS8Oy4dxEKLqc6krp2t1tqrv8z1MLifrMXK1rBRRRXx52hRRRQAUUUUAFFFFAHmXxx/aH8Ffs7aPpup+Nb24srTUZzbW5t7V5yzhdxyFHHFeb+CP+ChXwY+IXi/R/DOja1qM2ratdR2drHLpkyK0jnCgsRgckcmvE/+CwH/ACTDwD/2GJv/AEQa+C/2Rv8Ak5/4W/8AYxWX/o1a/Ycj4Sy/McieZVpS9olN6NW929tLeXc8WvjKlLEeyja2h++tFFFfjx7QUUUUAFFFFABRRXj/AO11qV3pH7MvxIvbC6nsryHRp3iuLeQxyRtjqrDBB9xXVhaDxNenQTtzNL73YmcuWLl2PYKK/nf/AOFy+P8A/oefEn/g3uP/AIuv3m+BV3PqHwR+Ht1dTSXNzN4d06SWaZi7yObaMlmY8kkkkk19jxJwpU4dp06k6qnztrRWtb5s4cLjFiW0lax3VFFFfCHoBRRRQAUUUUAFFFFABRTaSlcB9FMo3+9MVwAxSZz0pTk9eBRQSJ/KloooAKKKKksKKKKAEP6ilopPutVEElFNanUFhRRRQAUUUUAMpy9KbTl6UALRRRQAUUUUAch8WPhhofxn+HeueCvEkc76Pq8IimNrL5UsZVldJEbkbkdEYZBUlcMGBIP4dftL/s0eKf2YvHz6Br6fbNNud0uk63DGVg1CEEZIGTskXKh4ySVJHLKyO376Vw3xl+DXhb48+Ab7wj4usftmm3OHjljIWe0mAISeFyDskXJwcEEFlYMrMp+74V4oq8P1vZz96hJ+8uz/AJl5911WnZrz8XhFiY3XxI/noor1z9pf9mjxT+zF4+fQNfT7Zptzul0nW4YysGoQgjJAydki5UPGSSpI5ZWR28jr+p8NiaOMoxxGHkpQkrpr+v8AhtmfJTjKEnGSs0FfoF+wH+35/wAIR/Z3wy+Jupf8U18tvoviG6f/AJBvZba4Y/8ALv0CSH/VcKf3WDF+ftFedm+UYXOsLLC4qN09n1i+68/z2ehpRrToT54H9CPxr+NnhX4BeA73xX4svha2UIKQW6Yae8nIJSCFP4nbB9ABlmIUEj8Rf2kf2kPFP7TPj6TxF4hcWtlAGh0zR4HJgsISfurn7ztgF5CMsQOAoVV4vxR8R/FHjbSPDul6/rt9q2neHrQ2OlW13MXS0gLbtiA/guTztSNc7UQLzlfMcMcI0MgvWqP2lZ3XNbRLyXRtbv5LTfrxeNliPdWkQooor9BPNCivvH9iv/gnOPi14ak8a/E5b7SvDmo2jroum2z+TdXG9CFvWJB2IuQ8akHzCAzDy8CX5q/aX/Zo8U/sxePn0DX0+2abc7pdJ1uGMrBqEIIyQMnZIuVDxkkqSOWVkdvnsNn+XYzHVMuo1E6kPufdJ9Wuq/ydumeHqwpqrJaM8jooor6E5j9Jf2A/2/Nh034ZfE3UcqcW+jeIruTp2W2uGP5JIT6Kexr9K6/mvr+gj9m64lvP2dvhbPPK808vhXSnklkYszsbSIkknkknnNfzn4gZDhcuqQx2GXL7RtOPS+912v1R9Nl2InVTpz6Hzz/wVA+DPhbxT8ANV+IN1YeX4t8M/ZUs9RgIV5IZbqOJoJePnjHnM6jqrDKkBnD/AI+1+3X/AAUc/wCTM/iF/wBw7/0421fiLX3PhzWqVcnnGcm1Go0vJcsXZeV238zgzOKVdW6r/MK9J/Zm/wCTkPhR/wBjZpP/AKWRV5tXpP7M3/JyHwo/7GzSf/SyKv0TH/7nW/wy/JnmU/jj6n9A9FFFfxGfeBXj37XPw7/4Wn+zd4/8PpEZrp9Mku7VAOWngxPGB7lowv417DTGUMCCAwPBB7104bETwleniKe8GmvVO5M4qcXF9T+bKv3N/Ym+I8Hiv9kTwNrV5OI10rTHsLp3P+rFoWiy3/AI1b6Gvxz/AGg/h4fhR8bvG3hMR+VBpmqzx2y/9O5bfCfxjZD+NfSH7O/x8/4Qr9gj44eHvtG3UY7qG3s0LYO3UUEDhT/srDM/Hc+9f0xxfgFnuWYedDrODT8p+7/7cn8j5XBVPq9WSl2f4Hyn8TPGs/xH+IvibxVc7hNrOpXF+Vc5KCSRmC/QAgfhXOSRvC7JIrI6nBVhgg10fwz8FXHxH+IvhnwrbbhNrWpW9gGQZKCSRVLfQAkn2Fe/f8FIPhZB8Mf2l786fbC10nW7C21G1jRcImE8l1B9d8LN/wADHrX2X12hhsXSyyOjlBteSjypL53f3M4vZynCVXz/ADP0h/YI+IqeOv2TfBd5cTKJtHtn0m5LNxGLZiiZP/XIRH8a/Gf4teNX+JHxR8W+KnZm/tjVbm+QN1VJJGZF/BSB+FfUn7Hvx6/4V3+yl+0Job3P2e4gsEvdOIPzCa6AsnYD1VjbH/8AVXxfXyHDeTf2fmuY1mtHNKPo1zv/ANKS+R2Yqv7SjSj5f8A/Vf8A4JF/Dv8Asb4V+LfGU8RWfW9SSygZu8Fumdw9i8zg/wC57V9O/tL/ALR3h79mb4czeJtaQ315K/2fTdKicLJez4ztBwdqgcs+DgdiSAXfsp/Dr/hVf7OvgHw28Xk3Vvpcc90mOVuJszTA/R5GH4V+a3/BVbx7deJP2kIfDrTE2HhzS4IY4Acqssw86R8diytED7ItfleFwkOLeKa3tX+7u2/OMbRS+ei/I9ec3g8Irb/qzzD4tftwfGT4y6tMZ/Fd/oWnyuVh0fw9K9pCqk8IShDyf8DZvw6Vxuvab8ZPBdkmu61a+OdCtHIC6lfx3lvGxJ4xI2AcnpzXQfsjfG3wt+z78VD4x8S+F5/FD21m8enRQyohtrhmX998wwSEDqPTee+CPs3xH/wVh8AeLdA1HRNX+GOrX+l6hA9rdW013CUljdSrKeO4Jr9dxc8VlVaGFyvLVOikrtOMfkl3Xd7v7zxoKFaLnVq2l8z50/Z0/wCCiXxJ+EXiCyt/FGsXvjjwg0gW6tNUlM93EhPLwzsd+5R0RiVOMfLncP2O8N+ItP8AF3h7TNc0m6S90vUraO7tbhPuyROoZGH1BFfziNgsdoIXPAJya/ar/gmp4huNf/ZI8MR3MhlbTrm8skZuTsE7Oo/AOAPYCvh/EPIsJh8PTzHDQUJc3LKysndNp22urfO+p35biJyk6UnddD8jvjz/AMly+In/AGMeo/8ApTJXcfC79sDx18Fvg1qXgDwXNFoh1HVZdSudbjG66AeGGPyos/Kn+pJLYLfNwVxk8P8AHn/kuXxE/wCxj1H/ANKZK/Qj/glN8JvBniX4Q+IfFGr+F9L1bxBD4hmsor+/tVnkihW2tnCpvBC/NI5yACc8npX3+dY3CZfk1PEYyj7WK5LR6Xtpe+n4P0POoQnUruMJWep+dlz8YfHt7ffbbjxv4jnvCc/aJdWuGkz67i+a+0/2DP29PFqfEPR/h58RNal8QaNrMotLDVdRk33VpcNxGrSnmRHbCfMSQWU5xkV7P/wUu/Zv8H3fwK1Dx/pGhWOj+I/D88Eklzp9usLXVvLKsLpIFADYMiuGPI2kA4Jz+TNvcS2k8c8EjwzRMHSSNirIwOQQRyCD3rjwby3jPKZP2KjvHZXjJJNNNW7p9L7MuftcDWXvX6+p+4P/AAUKhvJ/2PfiGtiSJRDaM+OvlC8gMn/jobPtmvw7r+iLTYdN+K3wqs01W3jv9J8RaPGbmFx8ssU8I3D8Qxr8jf2kP+CdnxF+Der3194Y0278b+DQxeC9sIxJdwJ/dmgX5sju6KVIGTtztHxvh9nGEwVOrlmKmoTcrq+ieiTV+6tt1vod2ZUJzaqwV1Y+if2Of+ChHwn8AfCPw54G8U2l34PvNJg8iS9htGuLS6bJJlJiBkDseWBTGTwT2+1PAf7QHw0+KZWHwv430LW53H/HnDeILgg+sLEP+a1/Ptc2s1lcSQXEUkE8bFXjlUqykdiDyDUYJBBBwRX0OZ+H2X4+rPEUasoSm2+kld67Oz/8mOalmVSmlGSTS+R+6Pib9iP4Xa58V/DfxD0/Sn8MeIdGv4tQI0XZBb3jxvvXzotpXO4csm1jk5J4x6/488caN8NfB2r+KPEN4thoul27XNzOwJ2qOwA5LEkAAckkAda/Jr9jX9vzxd8MPGOk+GfHOtXHiHwNfTR2rzanMZJtL3HaJUlbLGNcjcjEgKPlwRg/SP8AwV08cXWjfCLwh4Yt5Wii1zVHnuQrY8yO3QEIR3G+VG+qLX5rjOG8yeb4XKswqucJaRle/urWSV9U0uj206HqQxVL2M61NWa3XmfKf7QX/BRv4nfFrWbu38MapdeA/Cocrb2mly+XdyJ0DTXC/PuPPyoVUZx82Nx+d5fH3jW/L6hJ4j164MbDfdNfTtsJ9W3cE/Wn/CfwO3xM+J/hPwksrQDW9VttPaZACYlklVGcA/3QSfwr+gXwl4F0DwN4TtPDOhaTa6doVrD5EdjDEBHtxzkfxFuSSeSSSc5r9MzrNst4MhRwuGwqk5LbRaLS7dm235/Nnl0KNXHOU5ztY/ET4SfttfGH4P6nBNp/jG/1nTkYeZpOuzPeW0i91Aclo/rGVP61+v37Mv7Rug/tM/DaDxNo8Zsb2F/s2paVI+57OcDO3OBuUggq2BkHsQQPyh/4KE/BnSfgp+0fqFhoFtFYaLrFlDrFrYwIEjthIzxuigcBfMikIAwAGAHAr0X/AIJOeNrrQ/2gtX8OiRvsGu6PIZIQcAzQMrxv7kK0w/4Ga8/ibKMvznJP7ZwlNQmoqd0rXXVStu137rexpha1ShX9hN3V7H6O/tJ/tF+HP2aPh1N4m11WvLmV/s+naXC22S9nwSEBwdqgDLORhR2JIB/JH4u/t8/GX4s6jcN/wld14V0pmPlaZ4dka0WNfRpVIkfjrubB7AdK9E/4Kr+PLrxH+0fB4daVvsHh3S4YooM5USzDzpHx2JVogfZBXnf7B/wD0z9oT4+Wmj68hm8O6XZyatqFsCy/aURkRYtykEbnlTPOdobGDzRw1kuW5PkyzjHU1Objz3avZbpRT0u1bXe7tewYqvVrV/YU3ZXseRRfFzx1b3f2qLxp4hjuf+eyarOH/wC+t+a+lP2P/wBsn4v23xn8E+E7/wAaX3iDQNZ1e2sbq21xvtjhJJFUlJXzIpAJwA2PY1+u2l+DdA0TRE0bT9F0+y0hEEa2MFqiQhQMAbAMYxx0r5/8RfsC/Dm7+MvhX4jeG4T4O1LRtRi1Cew0uFRZ3jRuGUeXwIjkYJTAOemea8WrxtlGZ0quHxmEUE4vlektbO32U1r1V7G6wNak1KE79+h4x/wWA/5Jh4B/7DE3/og18F/sjf8AJz/wt/7GKy/9GrX3p/wWA/5Jh4B/7DE3/og1+dPwL8cWPw0+Mfg3xZqUc01houqQX88cABkdI3DFVBIGTjHJr6rhGEqvCrhBXbVRL1bZx41pYu78j9lf2y/2p9P/AGYvhpJdwNDdeMNUV4NF0+TkFwPmnkH/ADzjyCf7xKrxkkfkon7XHxx1C8VIviZ4qluJ32pFDfyZZieFVV9ScAAVzvx4+NviD9oH4lan4x8QyYnuT5dtZoxMdnbqT5cKey5OT3JZjyTX3F/wTC/ZL03U7G1+M3iT7PqDLNJFoNhkOsEkblHuJB2cMCEU9Pv9ShHLhssy/g3JnicwpqpVe90neT2ir3slrd+r7IuVWpjq/JTdl+nc+rf2Ofht8RfA/wAOBqPxR8W6x4h8V6wEnksNSu2mj0yMA7YlyT+8O7LkcZwo+7k+Pftw/wDBQM/A7VZvAvgKO2vvGSIGvtRuF8yDTdwBVAnR5SpB5+VQRkMSQPs7xHrMfh3w9qmrTLmKwtZbpxnGQiFj/Kv51fFHiS/8Y+JNV13VZzc6nqd1LeXMx/jkkYsx/MmvjeEMqpcS5jXzDHxTjCz5UrRu72Vl0SW3XS99b92NrPC0o06b1fU9Guviz8bPjpr8kKeI/GPi7U3Bk+w6bLcShRnkrBD8qrkj7qgVmS+OPiz8H9eS2n1zxh4O1eICQW1xc3VnKFJ4JRiCVJB6jBwa+mP2SP28vA37Mvwpg8NnwDf3+uz3EtzqeqW1xEn2pi7eX94ZAWPYuOmQx/iNZX7Zn7b3g/8Aal8AaZpFp4HvtJ1zTr5bm21S6uI38uMqyyR/KMkN8hx0yoPav1SFfGrH/U1lqWGvbmvHb+bl7eW9vuPIcafs+f2vv9tT6F/YJ/b91j4qeJrf4c/EiaK6165RjpOuJGsRumVSxhmVQF37QxVwBnbgjcQW8h/4Kf8Axd8a6J8cL3wfp/ijVLLwteaHbfaNIguWS2m3GTduQHBzgZ9cV8bfC3xFP4Q+JfhPXLVzHcabq1rdow7FJlb+lftn+2noem3X7M3xLvptPtZr2PRJtlxJCrSLjphiMjFfGZnhMFw1xDh8TSoJwrrl5dEoy5ormWjtutF12sd1KdTFYaUHLWPXyPwlr1PSv2qPjBoel2em6f8AEnxJZ2FnClvb28WoyKkUaKFVVGeAAAAPavLK/fj4B+DPD8/wL+HMkmhabJI/hzTmZ2tIySTax5JOK+y4rzvDZLSpTxGHVZSbSTtpZeaZw4OhKvJqMuWxgfsPeLta8dfss+Bdc8Q6nc6zrF3HdGe9vJDJLKVu5kXcx5OFVR9BXu9V7Oyt9Pt0t7WCO2t04SKFAir34A4FWK/lvGV44rFVa8I8qnJtLsm27dNtj62EXCCi3eyCiiiuMsKKKKACiiigBD0puQKcelN/SgTE5PWl+6KP50UEhRRRUlibaWiigAooooAKKKKAD7wpD0pf50h71RAtPqMdKkoKQ0UhpRSGkMfRRRTAZTl6U2nL0oAWiiigAooooAKKKKAOG+Mvwa8LfHnwDfeEfF1j9s025w8csZCz2kwBCTwuQdki5ODgggsrBlZlP4iftL/s0eKf2YvHz6Br6fbNNud0uk63DGVg1CEEZIGTskXKh4ySVJHLKyO376Vw3xl+DXhb48+Ab7wj4usftmm3OHjljIWe0mAISeFyDskXJwcEEFlYMrMp+84W4prZBW9nUvKhJ6rt/ej59119bNefi8JHERutJI/noor1z9pf9mjxT+zF4+fQNfT7Zptzul0nW4YysGoQgjJAydki5UPGSSpI5ZWR28jr+psNiaOMoxxGHkpQkrpr+v8AhtmfJTjKEnGSs0FFFFdJAV3HwQ8WeF/A3xY8M69408Of8JZ4XsbsS32k7gPOXBAbaflk2MVfy2IWTZsYhWJrh6KxrUo16cqUr2kmtHZ66aNap+aKi+Vpo/oy8E+NtC+JHhTTPE3hnU4NZ0PUoRPa3luTtdc4IIOCrKQVZWAZWUqwBBAxPjL8GvC3x58A33hHxdY/bNNucPHLGQs9pMAQk8LkHZIuTg4IILKwZWZT+OX7HP7Y2u/st+LGhmWfWPAepTBtV0VWG5GwF+02+SAswAAIJCyKoViCEeP9qPBPjbQviR4U0zxN4Z1ODWdD1KET2t5bk7XXOCCDgqykFWVgGVlKsAQQP5S4g4fxnC+MjVpSfJe8JrR3WtnbaS/HddUvr8NiYYuFnv1R+FP7S/7NHin9mLx8+ga+n2zTbndLpOtwxlYNQhBGSBk7JFyoeMklSRyysjt5HX9C/wAZfg14W+PPgG+8I+LrH7Zptzh45YyFntJgCEnhcg7JFycHBBBZWDKzKfxE/aX/AGaPFP7MXj59A19Ptmm3O6XSdbhjKwahCCMkDJ2SLlQ8ZJKkjllZHb9r4S4tp55TWGxLUcRFfKS7rz7r5rTbwsZg3h3zR+H8jyOv6BP2Zf8Ak2/4Uf8AYp6T/wCkcVfz91/QJ+zL/wAm3/Cj/sU9J/8ASOKvA8Tf9zw3+J/kdGVfHL0PNf8Ago5/yZn8Qv8AuHf+nG2r8Ra/br/go5/yZn8Qv+4d/wCnG2r8Ra7vDX/kUVf+vr/9JgZ5p/GXp+rCvSf2Zv8Ak5D4Uf8AY2aT/wClkVebV6T+zN/ych8KP+xs0n/0sir9Kx/+51v8MvyZ5dP44+p/QPRRRX8Rn3gUUUUAfkb/AMFZPh2PDfx30XxVDEEt/EmlqJHA+/cW58tz/wB+2txXxQl9cR2U1mk8i2s0iSyQhjsd0DBWI7kB3x/vH1r9d/8Agqx8PP8AhKv2dbXxHDHuuvDOqRTu+MkW837lx+LtCf8AgNfkDX9XcEY369kdFS1dO8H/ANu7f+StHyGPh7PEPz1Prz/gl38O/wDhMv2nLbWJYi9p4Z0+fUCxHy+a48iNT7/vWYf9c6+kv+Cu/wAOf7U+HfgzxtBEWl0i/k064ZR/yynTcrN7K8OB7ye9XP8Agkb8Ohovwn8WeMp4ts+u6ktnCzd4LZOo9jJNID/uewr6V/a4+HH/AAtb9m/x94eSIzXb6a93aIPvGeAieID6tGF+jGvzTOM79lxjTr392k4w+T0l9zk/uPUo0L4Jx6vX/L8j8Fre+uLSG5ihmeKO5jEU6IxAkQOrhW9RuRGx6qD2r0H9nH4d/wDC2Pjt4G8KPEJrbUdUhF0hGc26HzJ//IaPXnFfc3/BJX4d/wDCQfG7xD4tmjD2/h3S/KiYj7txcttUg/8AXOOcfjX7Tn2NWW5XiMUtGou3q9F+LR4eHp+1qxh5n6zgACvxo/4Kh+FrjQf2rtT1GSMrDremWd7C/Zgkf2c/iDAePp61+zVfOf7aX7Jdp+1J4Ct4bO5h0zxfo5eXSr6Yfun3Ab4JSATsbavIyVIBwRkH+aeD83pZNmsa2IdoSTi32vZ3+9K/kfUY2i69FxjutT8q/wBjzwJ8Nfid8YIfC/xNv7vTdN1K2aLTri1uVgBvd6bEdipADL5gGcfNtHUiv0Z/4dUfBH+/4l/8Gaf/ABqvyu+KXwQ8dfBfV5NO8ZeGb/RJFcok80RNvNjvHKMo4/3Sa0fDf7S3xY8IabFp+j/EfxPY2EKCOK1j1SYxRKOgRSxCj2GK/ds4yvMc1nHF5Rj3CLWyd4vzTR8/Rq0qKcK1O7/E/SXxh/wTf/Zz+H2g3GteJdb1nQ9KtxmS7vtYjiQewJj5J7AZJ7Cve/2SfDfw78N/BHSv+FV6hear4LvLi4ubW8vg4kkfzWjk4dEYAPGw5UdM8g5r8RtQ1rx78bfEUMd5e+IvHWuNnyopJJ9QuMcZCL8zY6cD2r9pP2FfBeufD39lXwNoPiTS7jRtZtlvGnsbtdssQkvZ5E3DsSjqcHkZ5r814uy3GZdlkFjcdKtUlNe63olaWtnduztrotbWPUwdWFWq/Z0+VW3+4/GX48/8ly+In/Yx6j/6UyV+mn/BIv8A5Ny8Tf8AY13H/pHaV+Zfx5GPjl8RQeCPEeo/+lMlP8I+Lvif8O/Cr6v4Y1rxZ4Z8NXVy0L32k3Vza2c04Vdyl4yEZwpXjOcYr9TzrKZZ3k1PBwqKDfI035LY8mhW9hXc2r7n6nf8FQfiro/hL9nDUfCMt3Ede8Tz28NtZq4MqxRTpNJMV67P3QTPq498fjxbW0t5cxW8EbzTyuI444xlnYnAAHck1e1nXdY8X6s17q2oX2t6nOQhuLyd7iaQ9ANzEk196f8ABP79hLXr3xhpXxL+IelTaRo+lyLd6TpN7GUnu5xgxzOh5SNDhgDgswU42/e4cHRwnA2TyVerzO7l25pNJJRXyS+9uxpOU8wrrlVv0R9k/G74paj+yV+y7pmtWumW+tXuhW2naY1tcSsiPwkTHcMnscVV+An7dvws+O1lawx61D4X8SyKBJoetSrDJv8ASKQ4SYcEjad2OSq9Kn/bt+Fvib4xfs4634b8I6b/AGtrctzazx2gmSIuscqs2GdlXIAJxnntX4s+Ofhl4u+GWofYfFnhrVPDtzkhU1G0eEPjuhYYYe6kivzXhvh/LOI8un7epy4jnk7pq9rLeL3V79vU9TFYmrhqi5VeNv61P6APGHww8G/Ea3CeJ/C2i+I4yuFOpWMVwQO20spI+or8zf8AgpV+zb8J/gtpfh7WPBaReH/EepXpin8PwXJeOS32OTcLGzFowrqifLhTv6Ajn4u0b4leLvDlotrpPirW9MtlG0Q2eozQoB6bVYCqlhpuv+PteFvZWupeI9aujkRQRyXVzMfoMsxr7nI+EMXkeKjiHjm6Ud42aT9byaXfr8jz8RjYYiHL7PV9TMtbWa+uYba3iee4mcRxxRqWZ2JwAAOpJ4xX6cf8FafCV9J8Jvhdrk4Mp0u8l0+5l6kSTQI3P1Ns1ZX7DH/BPHWtB8U6Z8RPijZf2bJp0iXWk+HnYNN56nKTXGMhApAZUzu3YLbdu1vu741/CPRfjp8M9c8F67uWy1KIKtxGAZLeVSGjlTPdWAOO4yDwTXg8Q8V4OGeYOdB88KDlzNar30k0u9l20b0OnDYObw81LRy2+R+EHwN8Z2/w7+M3gbxPeu0djpOt2d5dMi7mEKTKZMDudgav6ErW6hvraG5t5Unt5kEkcsbBldSMggjqCOc1+B3x7/Zh8ffs7eIJ7HxRo8x0wSbbXXLWNnsrodismMK3+w2GHpjBOf4a/aS+Kfg3wt/wjeieP9f0vRAhjjs7a+dViU9RGc5jHJ+6R1r6PiTh2HFsaGMwNeOiavumnr06rt59LHLhcS8G5QqRPcP+CoPj3TfG37UE1tpsy3A8P6Tb6PcyIcr56yTTOoPfb54U+hUjtWj/AMEqPDlzq/7TcupRo32bSdFuZpZOgBcpEq/U7ycf7J9K+YPAHw08XfF7xIukeFNDv/EWqzMC6WsZfZk/fkc8IuerMQPev2b/AGKP2U4P2XvhzPb300N94v1lkn1a7h5jTaCI4IyQCUTc3J6szHpgDn4kxmE4e4f/ALJjPmqOKgl1s95NdFvbz0KwsJ4nE+2a0vc/PH/gqJ4WuNB/at1LUZYisGt6ZZ3sT9nCR/Zz+IMB4+nrUX/BM74t6P8AC39oz7Pr14lhp/iLTZNJS5mYLFHcGSOSIux6AmNkHu6/Wv0Q/bU/ZMtf2o/ANvFZXEOm+MNHLzaVezD93JuA3wSkAkI2FORyrAHBGQfxw+J3wa8bfBrWn0vxl4bv9CuA5RJLiI+TPjvFKMpIPdSarh3HYLiLIVlNWfLUUORrrZaKS79PnowxNOeGxHtktL3P6HAcivNfG/7RPgD4e/EHw34H1jXo08Va/cR21nplujTShnYKjShQfLViQAWxnnGcHH4eaX+0T8VNE0ZNJ0/4keLLLTY1VI7W31q4RI1AwFUB/lXHGBgV3P7Hfg7xb47/AGk/Amt2OkatrlvZeIbS71LU44JJo4FWVXd5pcELxzljz+NfKS8O44KlVxGNxKcIxbVla7tpdvbXprfudazJ1Go046s+1P8AgsB/yTDwD/2GJv8A0Qa/M7wD4L1H4j+NtC8LaT5X9p6zexWNuZ32xh5HCgsewGcngnA6Gv0y/wCCwIP/AAq/wCccf2xNz/2wNfBX7IwJ/af+FuBn/iobP/0atfZcHVZYfhf2sN4qo16ptnFjUpYvlfWxoftX/sw6x+y58QodCvbk6rpN9bLc6dqwi8tbkAASqVydrI+QRk8FD/FXq3/BOj9qsfA/4iHwj4hu/K8FeJZ1RpJD8ljeHCxzegVuEc+m1icIc/pF+1x+zpZftKfCDUPDxEcWv2ubzRrx+PJulBwpP9xx8jfUHGVFfhRrOj3vh7V73S9StpLLUbKd7a5tpl2vFIjFWRh2III/CjIsxocZZPUweO1qJWl3/uzX9bp9GGIpywNdTp7dP8j+inxpojeJvBuvaOmA2oWE9oCxwMyRsvP51/OheWc+nXk9rcxNBcwSNFLE4wyOpwQR6ggiv16/4Jt/tTt8ZPh+3gXxDdGXxh4Zt1Ec0rbnvrEEIkpPUvGSqMT1yhySxx5L+3d/wT41zXPFep/Ef4YWH9p/2i7XOreHoMCYTnl5rdf4w5yzJ97cSV3bsL8jwlio8L5nicozKShzWtJ6JtXtr2kndX7Wep2YyDxdKNalrb+vwOR/Yf8A2Tvgf+0r8MDNrN/rC+OdNmkTVLG11BYgIy7GGVEKE7Cm1Scn5lbpkV9I/wDDqj4I/wB/xL/4M0/+NV+SKN4k+G3iUMp1Xwt4hsX4YGSzu7dv/HXU/lXc3P7Vfxku9PNlN8UfFj27LtYf2vOGI9C27cfzr7LMsgzvE4mVfAZi405O9m3pforbrttpp5nFSxFCMFGpSu0ffXjP9i79lT4SeK/D+k+IfFWsWGvanew29hpv9pedPJK7gR7o44WZELEDe2F5619NftlqW/ZY+J+Bn/iRz/yr8gf2avhn47+JPxn8H63pXh7WtetbbXrO7vtUS3kkijVLhGkeSYjaCACeTmv2/wDiX4Jt/iV8O/E3hO7kMNvrem3GnvKBkx+ZGybwPVSQfwr824mpTyrH4JYrFyryg+aV38NpLZatXS6t3sephZKtTnyQ5b7H861f0D/s26jb6t+zz8M7q1lWWJ/DWnDcp6EW0asPqCCD7g1+F/xa+C3jH4IeKLjQvGGiXOl3UbssU7ITb3Sg/wCshkxh1PqOnQgHIqXwr8eviP4G8Nt4f8O+OvEGiaKxZvsNhqMsMaljltoVhtySScYyetfqvE2Rf604Si8LWSUXdPdNNd0ePhcR9UnLnif0KUV8+/sEalf6v+yT8P7zVLq5vb6aG7aS4u5GkkcfbJ9pLMcn5cY9sV9BV/MGNwzweKq4Zu/JJxv3s2rn1lOXPBT7oKKKK4iwooooAKKKKAEptOptJgFFFFIAooooAKKKKACiiigAooooAfSdqG6UtUIZ2FPpnpT6AQUUUUDCiiigBlOXpTacvSgBaKKKACiiigAooooAKKKKAOG+Mvwa8LfHnwDfeEfF1j9s025w8csZCz2kwBCTwuQdki5ODgggsrBlZlP4iftL/s0eKf2YvHz6Br6fbNNud0uk63DGVg1CEEZIGTskXKh4ySVJHLKyO376Vw3xl+DXhb48+Ab7wj4usftmm3OHjljIWe0mAISeFyDskXJwcEEFlYMrMp+84W4prZBW9nUvKhJ6rt/ej59119bNefi8JHERutJI/nor1TxD+zF8RvC/wW0j4p6j4eng8IalLsSf/lrDG23ybiWPqkMpYqjngkDOBJEZPrD9iH9iXwJ41+K3i/WdX8Y6H8RfDvgzVvsNnYabkx6jIAGjubiNh/qOqqql45XjkAd40/e/qDqemWet6bd6fqFpBf6fdwvb3FrdRiSKaJwVdHRgQysCQQRggkGv1LiDjyGWYuGHwkOe1nO91o1flV7NOzvdrTaz1t5GGy91YOU3bsfzdUV9hft0/sLXn7PmpT+MfB0E9/8ADW7mAZCTJLosrnCxSscloWJAjlPOSEc7tjS/HtfpWW5lhs2w0cXhJXi/vT6pro1/Wh5dWlKjJwmtQr6K/Y5/bG139lvxY0Myz6x4D1KYNquiqw3I2Av2m3yQFmAABBIWRVCsQQjx/OtFa43BYfMcPLC4qPNCW6/rZro+gqdSVKSnB2aP6MvBPjbQviR4U0zxN4Z1ODWdD1KET2t5bk7XXOCCDgqykFWVgGVlKsAQQMT4y/Brwt8efAN94R8XWP2zTbnDxyxkLPaTAEJPC5B2SLk4OCCCysGVmU/jl+xz+2Nrv7LfixoZln1jwHqUwbVdFVhuRsBftNvkgLMAACCQsiqFYghHj/ajwT420L4keFNM8TeGdTg1nQ9ShE9reW5O11zggg4KspBVlYBlZSrAEED+WuIOH8ZwvjI1aUnyXvCa0d1rZ22kvx3XVL63DYmGLhZ79UfhT+0v+zR4p/Zi8fPoGvp9s0253S6TrcMZWDUIQRkgZOyRcqHjJJUkcsrI7ftR+zL/AMm3/Cj/ALFPSf8A0jirT+Mvwa8LfHnwDfeEfF1j9s025w8csZCz2kwBCTwuQdki5ODgggsrBlZlOl8MvBv/AArr4b+FPCf2z+0P7B0m00v7Z5Xlef5EKR+Zsy23dszjJxnGT1rqz7if+38soUq6tWhJ37SVt12fdfdpoow+E+r1ZOPws8Q/4KOf8mZ/EL/uHf8Apxtq/EWv26/4KOf8mZ/EL/uHf+nG2r8Ra/UPDX/kUVf+vr/9JgeTmn8Zen6sK9J/Zm/5OQ+FH/Y2aT/6WRV5tXpP7M3/ACch8KP+xs0n/wBLIq/Ssf8A7nW/wy/Jnl0/jj6n9A9FFFfxGfeBRRRQAUUUUAFFFFABRRRQAUUUUAQ3FtFeQPDPEk8Mg2vHIoZWHoQetclL8G/AE9yLiXwP4bkuByJX0i3Lj8dma7OitYValP4JNejsJpPdGfpmh6docRj07T7WwjOMpawrEPyUCtCiis23J3bGFRTQR3ETRTRrLGwwyOMqR7g1LRSAxLDwZ4f0q8F1Y6FplndZz58FnGj5/wB4DPc1t0UVcpSm7ydxJW2CoZoIrmJo5o1ljYYZHUEH6g1NRUDORuPhL4Gu5zPP4L8PTTk5MkmlQM2fXJTNb2kaFpmgW5g0vTrTTYScmO0gWJT74UAVoUVrKtVmuWUm16iUUtkFFFFZDIZ7eK6heGeNJonG1kdQysPQg9RXFXHwI+Gl3c/aJ/h54UnuM7vNk0S2Zs+uSma7uitqdarR/hya9HYlxT3RQ0fQ9O8PWSWel2Frpton3bezhWKMfRVAFX6KKybcndvUoKr3dnBf2z291BHcQOMPFMgZWHoQeDViijbVAcfH8IPAkNz9pTwV4dS4znzl0qAP+ezNdRa2kFjAsFtDHbwr92OJAqj6AVYorSdWpU+OTfqxJJbIKKKKyGFFFFABRRRQBla14Z0fxLEsWr6VY6rEv3UvbZJlH4MDWNp3wi8C6RMZbHwV4espCcl7fSoI2J+oSuuoraNarCPLGTS9WS4p6tEUMMdvEkUSLFEgwqIMAD0AqWiisSite2FtqVq9teW8V3byDDwzoHRvqDwax7XwB4XsZRLbeG9It5Qch4rGJSPxC10NFaRqTirRk0hWT3EAwKWiisxhRRRQAUUUUAFFFFACU2nU2kwCiiikAUUUUAFFFFABRRRQAUUUUAFJ/jR/FQeoqiBT1FPqP+IVJQUgooooGFFFFADKcvSm05elAC0UUUAFFFFABRRRQAUUUUAFflj+35+35/wm/wDaXwy+GWpf8U181vrXiG1f/kJdmtrdh/y79Q8g/wBbyo/dZMy/t/ft9nxqdS+GHwz1HHhsbrbW/EFq/wDyEuz20DD/AJd+odx/reVH7rJm/Pyv33g3g32XLmeZR97eEH07Sku/ZdN3rt87jsdzXpUnp1Z2/wAGvjL4p+A3j6w8XeEb/wCx6lbZSSKQFoLuEkF4JkBG+NsDIyCCFZSrKrD9u/2aP2l/C37TvgFNf0B/sepW2yLVtEmkDT6fMQeDwN8bYYpIAAwB4VldF/A2u3+DXxl8U/Abx9YeLvCN/wDY9StspJFIC0F3CSC8EyAjfG2BkZBBCspVlVh9jxTwtRz+j7SnaNeK92Xf+7Ly7Pp96fFhMXLDys9Ys/oO1PTLPW9Nu9P1C0gv9Pu4Xt7i1uoxJFNE4KujowIZWBIIIwQSDX5U/tL/APBL/wAZ6H4+e7+D+lf8JF4T1DfMmnzahDDPpT5GYS08i+bGc5RwS2AVflQ8n6B/s0ftL+Fv2nfAKa/oD/Y9SttkWraJNIGn0+Yg8Hgb42wxSQABgDwrK6L69X8/Zbm2Z8KYupCC5ZbShK9n2uk16pp7dWmfR1aNLGQTe3Ro/EL/AIdyftEf9E9/8renf/JFH/DuT9oj/onv/lb07/5Ir9vaK+r/AOIlZv8A8+qf3S/+TOP+y6Pd/h/kfiF/w7k/aI/6J7/5W9O/+SK+iv2OvhT+1L+y34sMM3w7n1jwHqcwOq6KuuaduRsBftNvm5AWZQACCQsiqFYghHj/AEzorhxvHmPzHDywuKoUpQluuWX/AMno10fQ0p5dTpSU4Saa9P8AIKKKK/NT1Dw79tX4ceIvi3+zN4y8J+E9O/tXX9Q+x/ZrPz44fM8u9gkf55GVRhEY8kdMDnAr8s/+Hcn7RH/RPf8Ayt6d/wDJFft7RX2+R8XY/IMNLC4WEHFycveTbu0l0ktNOxwYjBU8RLnm320/4Y/EL/h3J+0R/wBE9/8AK3p3/wAkV3HwM/YH+O/g742fD7X9Y8C/ZNI0rxDp99eXH9r2D+VDFcxvI21ZyzYVScAEnHANfsLRXuVvEXNq1OVKVOnaSa2l1/7fMI5ZRi003+H+QUUUV+WHrBRRRQAUUUUAFFFFABRRRQAUUUUAFFFFABRRRQAUUUUAFFFFABRRRQAUUUUAFFFFABRRRQAUUUUAFFFFABRRRQAUUUUAFFFFABRRRQAUUUUAFFFFABRRRQAUUUUAFFFFABRRRQAUUUUAJTadTaTAKKB1opAFFFFABRRRQAUUUUAFFFFAD6afvrTqa3WqJEp9Mp9SigoooqgCiiigBlOXpTacvSgBaKKKACiiigAooooAKKKKAPgD9vr9gQePV1H4l/DTTgPE4DXGsaDbJ/yE+7TwKP8Al47sg/1vUfvMiX8rmUqxVgQQcEHtX9KFfAH7ff7Ag8erqHxL+GmnAeKBun1jQLVP+Qn3aeBR/wAvHUsg/wBb1H7zIl/beDeMvYcuW5lL3doTfTtGXl2fTZ6beDjsDzXq0lr1R+V1FDKVYgggjgg9qK/fj507f4NfGXxT8BvH1h4u8I3/ANj1K2ykkUgLQXcJILwTICN8bYGRkEEKylWVWH1N/wAPcvjB/wBC34I/8Abz/wCS6+IqK8PHZJluZVFVxdCM5JWu1rY6KderSVoSsj7d/wCHuXxg/wChb8Ef+AN5/wDJdH/D3L4wf9C34I/8Abz/AOS6+IqK8/8A1TyP/oFj/XzNPrmI/nZ9u/8AD3L4wf8AQt+CP/AG8/8Akuj/AIe5fGD/AKFvwR/4A3n/AMl18RUUf6p5H/0Cx/r5h9cxH87Pt3/h7l8YP+hb8Ef+AN5/8l0f8PcvjB/0Lfgj/wAAbz/5Lr4ioo/1TyP/AKBY/wBfMPrmI/nZ9u/8PcvjB/0Lfgj/AMAbz/5Lo/4e5fGD/oW/BH/gDef/ACXXxFRR/qnkf/QLH+vmH1zEfzs+3f8Ah7l8YP8AoW/BH/gDef8AyXR/w9y+MH/Qt+CP/AG8/wDkuviKij/VPI/+gWP9fMPrmI/nZ++X7NH7S/hb9p3wCmv6A/2PUrbZFq2iTSBp9PmIPB4G+NsMUkAAYA8Kyui+vV/PN8GvjL4p+A3j6w8XeEb/AOx6lbZSSKQFoLuEkF4JkBG+NsDIyCCFZSrKrD9u/wBmj9pfwt+074BTX9Af7HqVtsi1bRJpA0+nzEHg8DfG2GKSAAMAeFZXRfwfi3hKpkdR4nDJyw8n84vs/Ls/k9d/ocHjFiFyy+L8z16iiivzg9MKKKKACiiigAooooAKKKKACiiigAooooAKKKKACiiigAooooAKKKKACiiigAooooAKKKKACiiigAooooAKKKKACiiigAooooAKKKKACiiigAooooAKKKKACiiigAooooAKKKKAEptOptJgFFFFIAooooAKKKKACiiigAooooAfRRRVEjD1FPpvWnUDQUUUUDCiiigBlOXpTacvSgBaKKKACiiigAooooAKKKKACiiigD4A/b7/AGBR49XUPiV8NNOA8UDdPrGg2qf8hMdWuIFH/Lx3ZB/reo/eZEv5XMpUkEEEcEHtX9KFfGv7TP8AwTW8LfHrx23i3Qtf/wCED1W83PqqQ6aLuC9lJGJgnmx+XIed5BIc4YgNuZ/2fhLjeOCprA5rJ8iXuzs21/ddrtrs+m223h4zAOo/aUVr1R+PNFfpP/w5u/6q7/5bP/3XR/w5u/6q7/5bP/3XX6T/AK88Pf8AQT/5JP8A+RPL+oYn+X8V/mfmxRX6T/8ADm7/AKq7/wCWz/8AddH/AA5u/wCqu/8Als//AHXR/rzw9/0E/wDkk/8A5EPqGJ/l/Ff5n5sUV+k//Dm7/qrv/ls//ddH/Dm7/qrv/ls//ddH+vPD3/QT/wCST/8AkQ+oYn+X8V/mfmxRX6T/APDm7/qrv/ls/wD3XR/w5u/6q7/5bP8A910f688Pf9BP/kk//kQ+oYn+X8V/mfmxRX6T/wDDm7/qrv8A5bP/AN10f8Obv+qu/wDls/8A3XR/rzw9/wBBP/kk/wD5EPqGJ/l/Ff5n5sUV+k//AA5u/wCqu/8Als//AHXR/wAObv8Aqrv/AJbP/wB10f688Pf9BP8A5JP/AORD6hif5fxX+Z+bFdv8GvjL4p+A3j6w8XeEb/7HqVtlJIpAWgu4SQXgmQEb42wMjIIIVlKsqsPvD/hzd/1V3/y2f/uuj/hzd/1V3/y2f/uusa3GfDWIpypVa6lGSs04Ts1/4CVHA4qLuo6+q/zPsv8AZo/aX8LftO+AU1/QH+x6lbbItW0SaQNPp8xB4PA3xthikgADAHhWV0X16vg34Nf8E0/FPwG8fWPi7wj8bPsep22Ukik8MloLuEkF4JkF4N8bYGRkEEKylWVWH3euQBk5PcgYFfztndDLaOKbyqt7SlLVK0k4+T5krrs9+/d/S4eVWUP30bP5aj6KKK+eOkKKKKACiiigAooooAKKKKACiiigAooooAKKKKACiiigAooooAKKKKACiiigAooooAKKKKACiiigAooooAKKKKACiiigAooooAKKKKACiiigAooooAKKKKACiiigAooooASm06m0mAUUUUgCiiigAooooAKKKKACiiigAooooAKaRinUnUYPWqIJKKZRSuWPooopgFFFFABTfxpBQxpALmjNGPejHvTAM0Zox70Y96ADNGaMe9GPegAzRmjHvRj3oAM0Zox70Y96ADNGaMe9GPegAzRmjHvRj3oAM0Zox70Y96ADNGaMe9GfYUgDNGaTJ96Mn3pXAXNGaQCkzngU7gOzRmk7+poz6H8qLgLmkpf+BGjJpXAOaOaTNBz2ouAvNHNNz60uPQmi4C80c0nT2oyfei4C80c0mT70ZPvRcBeaOaM+wox70xBzRzRj3ox70AHNHNGPejHvQAc0c0Y96Me9ABzRzRj3ox70AHNHNJk+9GT70rjF5o5pMn3oyfei4C80c0fj+lH4/pTAOaOaX86TbRqIOaOabzSc+ppiuP5o5pu2j8am5Q7mjmkoz7Gi4C80c0m7/ZNGfanqK4vNHNGTSf8AAjSuMXmjmkzRmi4C80c0lFFwF5o5pKKLgLzRzSUUXAXmjmkoouAvNHNJRRcBeaOaSii4Cgc80lFFABRRRQAUUUUAFFFFABRRRQAUUUUAFFFFABR/nNH3hRVEBnsaCvpzRn/9VIPb9aAJKKSjbQWLRRRQAzaKNopc0ZpXAdRRRTAKKKKACiiigAooooAKKKKACiiigAooooAKKZRSuA+iimhMUwADNIOKOFp2OOaCdxvJ68UH8qP8/SigQUUUVJYL+NL+dJRQAZ9qKKKAD/PNJ9OKWigAPXkUmBjijtxRtH0qiB9LTN5HWjg9KCrj6KTApaBhRRRQAzaKNopc0ZpXATaKNopc0ZouA6mUU+jcAopgHrS5xTFcMj0o/Cijaf71AajcAUZAox7UuOaCRM+1GT60baAc1JYfnS/T+dH8vajPryKogOPf8qMUUZ9qksKTn1/WlpOfagBcUfxYoxmikAYoxRRTAKKKKACiiigAooooAKKKKACiiigAooooAKKKKACiiigAooooAKKKKACiiigAooooAKKKKACiiigAooooAKKKKAD/ADzSfmKWk3UAGT6Zo4z2paP881RA+m7aXt/hR+NBQtFFJ+FAxaKbxRgetADqKZSYagVxaKKKgYuaM0YoxT1ASin0U7AMoowaXFIB1N206iqER4Apc+lG0nryaKCQP50UUUAFFFFSWFFFFABRRRQAUUUUAFFFFABRRRQAdenFJiloqiBBnt0oB9RS0UALxS7aAfp+BpPzosULtpNtL+NJj/apALto20mP9qnUWAZgCkyOwox7UtMkTk9Tij8KWipLCik20tO4rBRRRSGFFFFABRRRQAUUUUAFFFFABRRRQAUUUUAFFL+FJQAUUUUAFFFFABRRRQAUUUUAFFFFABRRRQAUUUUAFFFFABRRRQAUUUUAFFFFABRRRQAUUFyKXdSuAlFLuo3UXASil3UbqLgJRS7qN1FwEopd1G6mAh7UUu6jdQA3aPWndO+KN1IWIFO4rAf88UmBS0BiRSGPNJ+NNoouAYPsaXPsKSnYo3FYTBo59KXApaoNBvINN+b1p26m7zSuFhVznqBSk59fwpKUDNFwA8dh+NJRRU3GFFLuo3UwG/epaXdRuoASil3Um4/rSuAUUu6jdRcBKKTApwGTSuAlFLupu807gLRQWIFAbii4BRRu+Wl3UXASil3UbqLgJSfzp26jdRcBMUYpd1G6mAnJoxS7qN1ACUUUu6gBKKXdRuoASil3UbqVwEopd1JuPFFwCil3Um75qLgFFB5oVRSuAuTRk0oGKWi4DKKKKQBRRRQAUUUUAFFFFABRRRQAUUUUAFFFFABRS7qN1VcBKKXdRuouAlFLuo3UXASil3UbqLgJRS7qN1FwEopd1G6i4CUUu6jdRcBKKXdRuouAlFLuo3UXASil3UbqLgf/2Q==;" vertex="1" parent="1">
          <mxGeometry x="130" y="260.92" width="104.21" height="39.08" as="geometry" />
        </mxCell>
      </root>
    </mxGraphModel>
  </diagram>
</mxfile>
